<?xml version="1.0" encoding="UTF-8"?>
<!DOCTYPE svg PUBLIC "-//W3C//DTD SVG 1.1//EN" "http://www.w3.org/Graphics/SVG/1.1/DTD/svg11.dtd">
<!-- Creator: CorelDRAW -->
<svg xmlns="http://www.w3.org/2000/svg" xml:space="preserve" width="10mm" height="15mm" style="shape-rendering:geometricPrecision; text-rendering:geometricPrecision; image-rendering:optimizeQuality; fill-rule:evenodd; clip-rule:evenodd"
viewBox="0 0 10 15"
 xmlns:xlink="http://www.w3.org/1999/xlink">
 <defs>
  <style type="text/css">
   <![CDATA[
    .fil0 {fill:none}
    .fil1 {fill:white;fill-rule:nonzero}
   ]]>
  </style>
 </defs>
 <g id="Layer_x0020_1">
  <metadata id="CorelCorpID_0Corel-Layer"/>
  <path class="fil0" d="M5 1.7481c-2.218,0 -4.0121,1.7938 -4.0121,4.0118 0,3.0091 4.0121,7.4509 4.0121,7.4509 0,0 4.012,-4.4418 4.012,-7.4509 0,-2.218 -1.7938,-4.0121 -4.012,-4.0121l0 0.0003zm0 5.4447c-0.7909,0 -1.433,-0.6418 -1.433,-1.4329 0,-0.7911 0.6419,-1.433 1.433,-1.433 0.7911,0 1.4329,0.6419 1.4329,1.433 0,0.7911 -0.6418,1.4329 -1.4329,1.4329z"/>
  <path class="fil1" d="M5 1.8972l-0.0016 0 0 -0.0007c-1.0669,0.0002 -2.0329,0.4326 -2.7312,1.1312 -0.6982,0.6984 -1.1301,1.6632 -1.1308,2.7287l0.0007 0 0 0.0035c0,2.6623 3.2224,6.491 3.8629,7.2261 0.6405,-0.7351 3.8629,-4.5638 3.8629,-7.2261l0 -0.0016 0.0007 0c-0.0003,-1.067 -0.4329,-2.0329 -1.1312,-2.7311l-0.0007 0c-0.6848,-0.6848 -1.6255,-1.1128 -2.6663,-1.13l-0.0654 0zm-2.944 0.9207c0.72,-0.7201 1.704,-1.1768 2.7948,-1.2154l0 -0.0039 0.1492 0 0.0034 0 0 0.0007c1.1491,0.0009 2.1883,0.4657 2.9394,1.2168l-0.0004 0.0005c0.752,0.7518 1.2177,1.7921 1.2181,2.9417l0.0007 0 0 0.0016c0,3.066 -4.0393,7.5373 -4.0506,7.5499l-0.1106 0.1237 -0.1106 -0.1237c-0.0113,-0.0126 -4.0506,-4.4839 -4.0506,-7.5499l0 -0.0035 0.0007 0c0.0009,-1.1484 0.4656,-2.1873 1.2165,-2.9385zm2.944 4.5241l-0.0016 0 0 -0.0007c-0.4363,-0.0004 -0.8319,-0.1781 -1.1177,-0.464 -0.2848,-0.2851 -0.4612,-0.6793 -0.4622,-1.114l-0.0006 0 0 -0.0034 0 -0.0016 0.0006 0c0.0005,-0.4361 0.1779,-0.8315 0.4639,-1.1172l-0.0005 -0.0005c0.2846,-0.2846 0.6793,-0.4613 1.1147,-0.4622l0 -0.0007 0.0034 0 0.0016 0 0 0.0007c0.436,0.0005 0.8315,0.1779 1.1172,0.4638l0.0005 -0.0004c0.2845,0.2845 0.4612,0.6793 0.4622,1.1146l0.0006 0 0 0.0035 0 0.0016 -0.0006 0c-0.0005,0.436 -0.1779,0.8317 -0.4636,1.1172l0.0002 0.0004c-0.2846,0.2846 -0.6793,0.4613 -1.1147,0.4622l0 0.0007 -0.0034 0zm-0.0016 -0.2977l0 -0.0006 0.0016 0 0.0034 0 0 0.0006c0.3519,-0.0006 0.6718,-0.1445 0.9036,-0.3763l0.0007 0c0.2322,-0.232 0.3766,-0.5529 0.3768,-0.9065l-0.0007 0 0 -0.0016 0 -0.0035 0.0007 0c-0.0007,-0.3518 -0.1446,-0.6717 -0.3764,-0.9035l0 -0.0007c-0.232,-0.2322 -0.5531,-0.3766 -0.9065,-0.3768l0 0.0007 -0.0016 0 -0.0034 0 0 -0.0007c-0.3519,0.0007 -0.6718,0.1446 -0.9036,0.3763l-0.0007 0c-0.2322,0.2321 -0.3766,0.5531 -0.3768,0.9066l0.0007 0 0 0.0016 0 0.0034 -0.0007 0c0.0007,0.352 0.1446,0.6722 0.3764,0.9042 0.232,0.2323 0.5531,0.3766 0.9065,0.3768z"/>
 </g>
</svg>
