<?xml version="1.0" encoding="UTF-8"?>
<!DOCTYPE svg PUBLIC "-//W3C//DTD SVG 1.1//EN" "http://www.w3.org/Graphics/SVG/1.1/DTD/svg11.dtd">
<!-- Creator: CorelDRAW X5 -->
<svg xmlns="http://www.w3.org/2000/svg" xml:space="preserve" width="104mm" height="20mm" style="shape-rendering:geometricPrecision; text-rendering:geometricPrecision; image-rendering:optimizeQuality; fill-rule:evenodd; clip-rule:evenodd"
viewBox="0 0 10400 2000"
 xmlns:xlink="http://www.w3.org/1999/xlink">
 <defs>
  <style type="text/css">
   <![CDATA[
    .str0 {stroke:#4D4948;stroke-width:25}
    .fil0 {fill:none}
    .fil1 {fill:#4D4948}
    .fil2 {fill:#4D4948;fill-rule:nonzero}
   ]]>
  </style>
 </defs>
 <g id="Layer_x0020_1">
  <metadata id="CorelCorpID_0Corel-Layer"/>
  <rect class="fil0" width="10400" height="2000"/>
 </g>
 <g id="Layer_x0020_1_0">
  <metadata id="CorelCorpID_1Corel-Layer"/>
  <g id="_399728880">
   <path id="_101811992" class="fil1" d="M2235 1053l-451 0 0 90 451 0 0 -90zm90 -315l-45 0 0 -90 -90 0 0 90 -360 0 0 -90 -90 0 0 90 -45 0c-50,0 -90,41 -90,90l0 631c0,50 40,90 90,90l631 0c50,0 90,-41 90,-90l0 -631c0,-50 -41,-90 -90,-90zm0 721l-631 0 0 -496 631 0 0 496zm-225 -225l-315 0 0 90 315 0 0 -90 0 0z"/>
   <path id="_101811872" class="fil2 str0" d="M3479 1203c0,28 -3,52 -10,72 -7,19 -17,36 -29,48 -12,13 -27,23 -45,30 -17,7 -37,12 -58,16 -21,3 -43,5 -67,5 -24,0 -49,0 -74,0l-138 0 0 127c0,9 -1,17 -3,25 -2,7 -7,11 -15,11 -9,0 -15,-3 -17,-10 -3,-7 -4,-15 -4,-25l0 -462c0,-5 0,-8 1,-10 1,-2 2,-4 4,-5 2,-1 4,-1 7,-1 3,0 7,0 11,0l154 0c28,0 55,0 79,0 25,0 48,2 69,7 21,5 40,11 57,20 17,8 31,20 42,34 12,14 20,31 27,50 6,20 9,43 9,70zm-39 1c0,-32 -5,-58 -15,-78 -10,-20 -25,-36 -45,-47 -20,-11 -45,-19 -76,-22 -31,-4 -67,-6 -109,-6l-138 0 0 296 138 0c42,0 78,-1 109,-4 31,-3 56,-9 76,-18 20,-10 35,-24 44,-43 10,-19 14,-44 14,-77zm166 300c0,9 -1,17 -3,23 -2,6 -7,9 -15,9 -5,0 -8,-1 -11,-3 -2,-2 -4,-4 -6,-7 -1,-3 -2,-6 -2,-10 0,-4 0,-8 0,-12l0 -451c0,-5 0,-9 0,-13 0,-4 1,-7 3,-10 1,-3 3,-5 6,-7 3,-2 6,-3 11,-3 4,0 7,1 9,3 2,2 4,4 5,7 1,3 2,7 2,10 0,4 0,8 0,12l0 451zm173 -71c0,15 4,27 11,38 8,10 18,18 32,25 14,6 30,11 49,14 19,3 39,4 61,4 27,0 51,-2 72,-6 21,-4 39,-9 55,-14 16,-6 29,-12 40,-19 11,-7 20,-14 27,-20l0 -92c-31,-5 -63,-9 -96,-14 -33,-4 -66,-6 -100,-6 -24,0 -45,1 -64,4 -19,3 -34,8 -47,14 -13,7 -23,16 -30,28 -7,12 -10,26 -10,44zm197 -233c-30,0 -55,1 -76,2 -21,1 -39,3 -54,6 -15,2 -27,5 -38,8 -10,3 -19,6 -27,8 -4,0 -7,-2 -10,-6 -3,-4 -5,-8 -5,-12 0,-4 2,-7 6,-9 3,-1 8,-3 17,-6 9,-3 22,-6 38,-9 17,-3 37,-6 62,-8 24,-2 53,-3 87,-3 16,0 31,1 47,3 15,2 30,6 44,11 14,5 27,12 38,22 12,9 22,21 31,36 9,15 15,32 20,53 5,21 7,45 7,73l0 133c0,4 0,7 0,11 0,4 -1,7 -3,10 -1,3 -3,6 -6,8 -3,2 -6,3 -10,3 -7,0 -12,-3 -15,-10 -3,-6 -4,-15 -4,-24l0 -32c-6,8 -14,16 -24,24 -10,8 -22,16 -37,23 -15,7 -33,12 -54,17 -21,4 -46,7 -75,7 -27,0 -52,-2 -76,-6 -24,-4 -44,-10 -61,-19 -18,-9 -31,-20 -41,-33 -10,-14 -15,-30 -15,-49 0,-22 5,-41 14,-56 9,-15 22,-27 39,-36 17,-9 36,-15 58,-19 22,-4 47,-6 73,-6 19,0 39,0 58,0 20,0 38,2 56,5 18,3 34,7 48,11 15,5 27,10 37,16 0,-32 -4,-58 -12,-77 -8,-19 -19,-35 -33,-46 -14,-11 -30,-18 -48,-22 -18,-4 -37,-5 -56,-5zm739 303c0,4 0,8 -1,12 -1,4 -2,8 -3,11 -1,3 -3,6 -6,8 -3,2 -6,3 -9,3 -5,0 -8,-1 -10,-3 -2,-2 -4,-5 -5,-8 -1,-3 -2,-7 -2,-11 0,-4 0,-8 0,-12l0 -160c0,-24 -2,-45 -5,-63 -3,-18 -10,-33 -21,-45 -10,-12 -25,-21 -43,-27 -18,-6 -42,-9 -72,-9 -18,0 -38,1 -58,4 -20,3 -40,8 -58,15 -18,7 -35,17 -49,29 -14,12 -24,27 -30,45l0 209c0,4 0,8 0,12 0,4 -1,8 -2,11 -1,3 -3,6 -5,8 -2,2 -5,3 -9,3 -4,0 -8,-1 -10,-3 -3,-2 -5,-5 -6,-8 -1,-3 -2,-7 -3,-11 0,-4 -1,-8 -1,-12l0 -300c0,-5 1,-10 3,-15 2,-4 8,-7 16,-7 8,0 12,2 15,6 2,4 3,9 3,15l0 58c9,-20 21,-36 36,-48 15,-12 32,-21 51,-27 18,-6 37,-10 56,-12 19,-2 36,-3 52,-3 33,0 61,3 84,9 23,6 41,15 55,28 14,13 24,31 30,53 6,22 9,49 9,81l0 160zm340 161c32,0 58,-3 80,-10 21,-7 38,-18 51,-34 13,-16 22,-37 27,-63 5,-26 8,-59 8,-98 -3,13 -9,24 -17,33 -8,9 -17,17 -28,23 -11,6 -22,11 -35,15 -12,4 -25,7 -38,9 -13,2 -26,3 -38,3 -13,0 -24,0 -35,0 -33,0 -61,-3 -84,-9 -23,-6 -41,-16 -55,-31 -14,-14 -25,-33 -31,-57 -6,-23 -9,-52 -9,-87l0 -142c0,-4 0,-8 0,-12 0,-4 1,-7 2,-11 1,-3 3,-6 5,-8 2,-2 6,-3 10,-3 5,0 8,1 11,3 3,2 4,5 6,8 1,3 2,7 2,11 0,4 0,8 0,12l0 142c0,30 2,55 6,75 4,20 11,36 21,48 10,12 25,21 44,25 19,5 43,7 72,7 18,0 37,-1 57,-4 20,-3 39,-7 57,-13 18,-6 34,-15 48,-27 14,-12 23,-26 28,-45l0 -210c0,-4 0,-8 1,-12 0,-4 1,-8 3,-11 1,-3 3,-6 5,-8 2,-2 5,-3 9,-3 5,0 8,1 11,3 3,2 4,5 6,8 1,3 2,7 3,11 0,4 0,8 0,12l0 227c0,47 -4,87 -11,119 -8,32 -19,57 -36,77 -16,19 -37,33 -63,41 -26,8 -57,12 -93,12 -26,0 -48,-1 -66,-4 -18,-3 -33,-6 -45,-10 -12,-4 -22,-9 -30,-14 -8,-5 -15,-10 -21,-15 -2,-3 -4,-6 -4,-9 0,-4 1,-8 3,-11 2,-3 6,-4 11,-4 2,0 5,1 8,3 6,4 13,9 21,13 8,5 17,9 29,12 11,4 25,7 40,9 15,2 33,3 54,3zm553 -127c-5,0 -10,-2 -14,-6 -4,-4 -6,-9 -6,-15 0,-8 4,-15 12,-23l317 -280 -299 0c-5,0 -9,0 -13,0 -4,0 -8,0 -11,-1 -3,-1 -6,-2 -7,-4 -2,-2 -3,-5 -3,-9 0,-5 1,-8 3,-10 2,-2 4,-4 7,-5 3,-1 6,-1 10,-1 4,0 8,0 13,0l326 0c7,0 13,2 17,6 4,4 6,9 6,14 0,8 -4,15 -11,21l-320 282 303 0c5,0 9,0 13,0 4,0 8,0 11,1 3,1 6,3 7,5 2,2 3,6 3,10 0,4 -1,7 -3,9 -2,2 -5,3 -8,4 -3,1 -7,1 -10,1 -4,0 -8,0 -12,0l-332 0zm507 -104c0,15 4,27 11,38 8,10 18,18 32,25 14,6 30,11 49,14 19,3 39,4 61,4 27,0 51,-2 72,-6 21,-4 39,-9 55,-14 16,-6 29,-12 40,-19 11,-7 20,-14 27,-20l0 -92c-31,-5 -63,-9 -96,-14 -33,-4 -66,-6 -100,-6 -24,0 -45,1 -64,4 -19,3 -34,8 -47,14 -13,7 -23,16 -30,28 -7,12 -10,26 -10,44zm197 -233c-30,0 -55,1 -76,2 -21,1 -39,3 -54,6 -15,2 -27,5 -38,8 -10,3 -19,6 -27,8 -4,0 -7,-2 -10,-6 -3,-4 -5,-8 -5,-12 0,-4 2,-7 6,-9 3,-1 8,-3 17,-6 9,-3 22,-6 38,-9 17,-3 37,-6 62,-8 24,-2 53,-3 87,-3 16,0 31,1 47,3 15,2 30,6 44,11 14,5 27,12 38,22 12,9 22,21 31,36 9,15 15,32 20,53 5,21 7,45 7,73l0 133c0,4 0,7 0,11 0,4 -1,7 -3,10 -1,3 -3,6 -6,8 -3,2 -6,3 -10,3 -7,0 -12,-3 -15,-10 -3,-6 -4,-15 -4,-24l0 -32c-6,8 -14,16 -24,24 -10,8 -22,16 -37,23 -15,7 -33,12 -54,17 -21,4 -46,7 -75,7 -27,0 -52,-2 -76,-6 -24,-4 -44,-10 -61,-19 -18,-9 -31,-20 -41,-33 -10,-14 -15,-30 -15,-49 0,-22 5,-41 14,-56 9,-15 22,-27 39,-36 17,-9 36,-15 58,-19 22,-4 47,-6 73,-6 19,0 39,0 58,0 20,0 38,2 56,5 18,3 34,7 48,11 15,5 27,10 37,16 0,-32 -4,-58 -12,-77 -8,-19 -19,-35 -33,-46 -14,-11 -30,-18 -48,-22 -18,-4 -37,-5 -56,-5zm422 293c0,11 0,22 -1,35 0,12 -2,25 -5,37 -3,12 -7,24 -12,36 -6,11 -13,21 -23,30 -10,9 -23,16 -38,21 -15,5 -34,8 -57,8 -4,0 -8,0 -12,0 -4,0 -7,0 -10,-2 -3,-1 -5,-3 -7,-5 -2,-2 -3,-5 -3,-9 0,-4 1,-7 3,-9 2,-2 4,-4 7,-5 3,-1 6,-1 10,-1 4,0 8,0 12,0 26,0 45,-4 59,-12 13,-8 23,-18 29,-31 6,-13 9,-27 10,-43 0,-16 1,-32 1,-48l0 -287c0,-7 1,-12 3,-17 2,-5 8,-7 16,-7 9,0 14,2 16,7 2,5 2,10 2,17l0 287zm-44 -416c0,-7 2,-13 7,-18 5,-5 11,-7 18,-7 7,0 13,2 18,7 5,5 7,11 7,18 0,7 -3,13 -7,17 -5,4 -11,6 -18,6 -7,0 -13,-2 -18,-6 -5,-4 -7,-10 -7,-17zm379 123c-29,0 -54,2 -76,7 -22,5 -41,13 -57,24 -16,11 -28,25 -36,42 -9,17 -14,38 -15,63l349 0 0 -25c0,-15 -3,-30 -9,-44 -6,-13 -15,-25 -28,-36 -13,-10 -30,-18 -51,-24 -21,-6 -47,-9 -77,-9zm-24 314c29,0 55,-2 77,-6 22,-4 41,-8 56,-13 16,-5 29,-11 39,-16 10,-6 18,-10 23,-14 2,-1 3,-1 4,-1 3,0 7,2 9,5 3,3 4,7 4,10 0,3 -2,6 -5,8 -3,3 -9,7 -18,13 -9,6 -22,12 -39,18 -17,6 -38,11 -63,16 -25,5 -55,7 -89,7 -36,0 -66,-4 -91,-13 -25,-9 -45,-21 -61,-37 -16,-16 -27,-35 -34,-58 -7,-23 -11,-47 -11,-74 0,-36 6,-66 17,-89 11,-24 27,-43 47,-57 20,-14 43,-24 70,-30 27,-6 56,-9 87,-9 64,0 112,12 144,36 32,24 48,59 48,104 0,4 0,9 -1,14 -1,5 -1,10 -3,15 -1,5 -2,9 -4,12 -1,3 -3,5 -4,5l-136 0 -230 0c1,28 4,52 11,72 7,20 17,36 31,48 13,12 30,21 50,27 20,6 43,8 69,8zm166 -3c-11,13 -19,26 -24,39 -5,13 -8,24 -8,34 0,13 3,21 8,26 5,5 11,7 15,7 6,0 12,-2 18,-5 6,-3 11,-6 15,-9l5 4c-5,11 -13,19 -24,26 -11,6 -22,10 -34,10 -5,0 -10,-1 -16,-3 -5,-2 -10,-4 -14,-8 -4,-3 -8,-8 -10,-14 -3,-6 -4,-12 -4,-21 0,-15 6,-30 17,-44 11,-14 25,-29 43,-43l14 0zm394 -311c-36,0 -66,3 -91,9 -25,6 -46,15 -61,28 -16,13 -27,29 -35,49 -7,20 -11,44 -11,72 0,28 4,52 12,72 8,20 20,36 37,48 16,12 37,21 62,27 25,6 54,8 87,8 15,0 30,-1 45,-3 15,-2 30,-5 44,-8 14,-3 27,-7 39,-11 12,-4 21,-8 29,-12 5,-2 8,-2 10,-2 4,0 7,1 9,3 2,2 3,5 3,9 0,2 -1,5 -2,8 -2,3 -4,5 -7,7 -27,14 -55,24 -84,29 -29,5 -57,8 -84,8 -35,0 -67,-3 -96,-8 -29,-6 -54,-15 -74,-29 -21,-14 -37,-33 -48,-56 -11,-23 -17,-53 -17,-89 0,-36 5,-66 16,-89 11,-24 26,-43 46,-57 20,-14 45,-24 74,-30 29,-6 62,-9 100,-9 27,0 55,3 84,8 29,5 57,15 84,29 3,2 6,4 7,7 2,3 2,5 2,8 0,3 -1,6 -3,9 -2,2 -6,3 -9,3 -2,0 -5,-1 -10,-2 -7,-4 -17,-8 -29,-12 -12,-4 -25,-8 -39,-11 -14,-3 -28,-6 -44,-8 -15,-2 -30,-3 -45,-3zm11 -255c3,-3 7,-5 12,-5 3,0 7,1 10,3 3,2 7,4 9,6 3,3 5,6 7,9 2,3 3,7 3,10 0,5 -2,9 -7,13l-135 110c-3,2 -5,2 -7,2 -3,0 -6,-1 -9,-3 -2,-2 -4,-5 -4,-9 0,-3 1,-6 4,-8l117 -128z"/>
  </g>
 </g>
</svg>
