<?xml version="1.0" encoding="UTF-8"?>
<!DOCTYPE svg PUBLIC "-//W3C//DTD SVG 1.1//EN" "http://www.w3.org/Graphics/SVG/1.1/DTD/svg11.dtd">
<!-- Creator: CorelDRAW X5 -->
<svg xmlns="http://www.w3.org/2000/svg" xml:space="preserve" width="104mm" height="20mm" style="shape-rendering:geometricPrecision; text-rendering:geometricPrecision; image-rendering:optimizeQuality; fill-rule:evenodd; clip-rule:evenodd"
viewBox="0 0 10400 2000"
 xmlns:xlink="http://www.w3.org/1999/xlink">
 <defs>
  <style type="text/css">
   <![CDATA[
    .str0 {stroke:#4D4948;stroke-width:25}
    .fil2 {fill:none}
    .fil0 {fill:#4D4948}
    .fil1 {fill:#4D4948;fill-rule:nonzero}
   ]]>
  </style>
 </defs>
 <g id="Layer_x0020_1">
  <metadata id="CorelCorpID_0Corel-Layer"/>
  <path id="_101898936" class="fil0" d="M1843 769c-204,0 -369,165 -369,369 0,204 165,369 369,369 204,0 369,-165 369,-369 0,-204 -165,-369 -369,-369zm0 664c-163,0 -295,-132 -295,-295 0,-163 132,-295 295,-295 163,0 295,132 295,295 0,163 -132,295 -295,295zm18 -480l-55 0 0 221 194 116 28 -45 -166 -99 0 -194 -1 1z"/>
  <path id="_101898864" class="fil1 str0" d="M3077 1468c39,0 75,-3 110,-9 35,-6 70,-14 106,-25l0 -194 -196 0c-3,0 -6,0 -9,0 -3,0 -6,0 -9,-2 -3,-1 -5,-3 -7,-5 -2,-2 -3,-5 -3,-9 0,-4 1,-7 3,-9 2,-2 4,-4 6,-5 3,-1 6,-2 9,-2 3,0 6,0 10,0l196 0c11,0 18,3 22,7 4,5 6,13 6,25l0 193c0,9 -3,17 -9,22 -6,5 -12,8 -19,10 -38,9 -75,17 -110,23 -36,6 -71,9 -106,9 -48,0 -89,-5 -125,-15 -36,-10 -66,-25 -90,-47 -24,-21 -42,-49 -54,-83 -12,-34 -18,-75 -18,-123 0,-48 6,-89 18,-123 12,-34 30,-61 54,-83 24,-22 54,-37 90,-47 36,-10 78,-15 125,-15 33,0 66,4 97,11 31,7 63,19 95,35 4,2 7,5 9,8 2,3 3,6 3,9 0,4 -1,7 -3,10 -2,3 -5,4 -9,4 -1,0 -4,-1 -7,-2 -29,-15 -60,-26 -91,-33 -32,-7 -62,-11 -93,-11 -46,0 -85,5 -117,14 -32,9 -59,23 -79,43 -21,19 -36,44 -45,74 -9,30 -14,66 -14,107 0,42 5,77 14,107 9,30 25,54 45,74 21,19 47,34 79,43 32,9 71,14 117,14l-1 0zm526 25c-35,0 -65,-4 -89,-13 -24,-8 -44,-21 -59,-36 -15,-16 -26,-35 -32,-57 -7,-22 -10,-48 -10,-76 0,-33 4,-61 11,-84 7,-23 19,-43 35,-58 16,-15 36,-26 59,-33 24,-7 52,-11 85,-11 33,0 61,3 85,11 24,7 44,18 59,33 16,15 27,34 35,58 8,23 11,51 11,84 0,28 -3,54 -10,76 -7,23 -17,42 -32,57 -15,16 -35,28 -59,36 -24,9 -54,13 -89,13zm0 -27c23,0 43,-2 60,-6 17,-4 31,-10 43,-17 12,-7 21,-16 29,-26 7,-10 13,-21 17,-32 4,-12 7,-24 8,-36 1,-13 2,-25 2,-38 0,-29 -3,-53 -9,-73 -6,-20 -16,-37 -29,-49 -13,-13 -30,-22 -50,-27 -20,-6 -44,-9 -72,-9 -28,0 -52,3 -72,9 -20,6 -37,15 -50,27 -13,13 -23,29 -29,49 -6,20 -9,44 -9,73 0,13 1,25 2,38 1,12 4,24 8,36 4,12 10,22 17,32 7,10 17,18 29,26 12,7 26,13 43,17 17,4 37,6 60,6l2 0zm455 26c-23,0 -45,-3 -65,-9 -21,-6 -39,-15 -54,-29 -16,-14 -28,-32 -37,-55 -9,-23 -14,-52 -14,-87 0,-34 4,-64 11,-87 7,-24 18,-43 33,-58 14,-15 32,-25 53,-32 21,-7 45,-10 72,-10 27,0 50,2 70,6 20,4 36,9 49,15 13,6 24,12 33,19 9,7 15,13 21,19l0 -178c0,-4 0,-8 0,-12 0,-4 1,-8 2,-11 1,-3 3,-6 4,-7 2,-2 5,-3 9,-3 4,0 7,1 9,3 2,2 4,4 5,7 1,3 2,6 2,10 0,4 0,8 0,13l0 459c0,10 -2,16 -5,20 -3,3 -7,5 -10,5 -4,0 -8,-2 -11,-5 -3,-3 -5,-10 -5,-19l0 -64c-3,14 -8,25 -15,35 -7,10 -16,18 -26,25 -10,7 -21,12 -32,17 -12,5 -24,8 -36,11 -12,3 -23,4 -35,4 -11,0 -21,0 -30,0l2 -2zm0 -26c15,0 32,-1 50,-4 18,-3 36,-7 52,-14 17,-7 31,-16 44,-28 13,-12 21,-28 26,-47l0 -167c-6,-6 -13,-11 -23,-18 -9,-6 -20,-12 -34,-17 -14,-6 -30,-10 -49,-13 -19,-3 -41,-5 -67,-5 -25,0 -46,3 -63,9 -18,6 -32,16 -43,29 -11,13 -20,30 -25,50 -5,20 -8,44 -8,72 0,29 4,54 11,73 7,20 17,35 30,47 13,12 27,20 44,25 17,5 35,8 54,8l1 0zm322 23c-4,0 -8,-2 -11,-6 -3,-4 -5,-9 -5,-15 0,-8 3,-15 10,-23l263 -280 -248 0c-4,0 -7,0 -11,0 -3,0 -6,0 -9,-1 -3,-1 -5,-2 -6,-4 -2,-2 -2,-5 -2,-9 0,-5 1,-8 2,-10 1,-2 3,-4 6,-5 2,-1 5,-1 9,-1 3,0 7,0 11,0l270 0c6,0 11,2 14,6 3,4 5,9 5,14 0,8 -3,15 -9,21l-265 282 251 0c4,0 7,0 11,0 3,0 6,0 9,1 2,1 5,3 6,5 2,2 2,6 2,10 0,4 -1,7 -2,9 -2,2 -4,3 -6,4 -3,1 -5,1 -9,1 -3,0 -7,0 -10,0l-275 0 -1 1zm435 -29c0,4 0,8 0,11 0,4 -1,7 -2,9 -1,3 -2,5 -4,6 -2,2 -5,2 -9,2 -7,0 -12,-3 -13,-8 -1,-5 -2,-12 -2,-21l0 -297c0,-8 1,-14 3,-20 2,-6 6,-8 14,-8 6,0 10,3 12,8 2,6 3,12 3,19l0 298 -2 1zm-36 -430c0,-7 2,-13 6,-18 4,-5 9,-7 15,-7 6,0 11,2 15,7 4,5 6,11 6,18 0,7 -2,13 -6,17 -4,4 -9,6 -15,6 -6,0 -11,-2 -15,-6 -4,-4 -6,-10 -6,-17zm504 426c0,4 0,8 -1,12 -1,4 -1,8 -2,11 -1,3 -3,6 -5,8 -2,2 -5,3 -8,3 -4,0 -7,-1 -9,-3 -2,-2 -3,-5 -4,-8 -1,-3 -2,-7 -2,-11 0,-4 0,-8 0,-12l0 -160c0,-24 -1,-45 -4,-63 -3,-18 -9,-33 -17,-45 -9,-12 -21,-21 -36,-27 -15,-6 -35,-9 -60,-9 -15,0 -31,1 -48,4 -17,3 -33,8 -48,15 -15,7 -29,17 -41,29 -12,12 -20,27 -25,45l0 209c0,4 0,8 0,12 0,4 -1,8 -2,11 -1,3 -3,6 -4,8 -2,2 -4,3 -7,3 -4,0 -7,-1 -9,-3 -2,-2 -4,-5 -5,-8 -1,-3 -2,-7 -2,-11 0,-4 -1,-8 -1,-12l0 -300c0,-5 1,-10 3,-15 2,-4 6,-7 14,-7 6,0 10,2 12,6 2,4 2,9 2,15l0 58c7,-20 17,-36 30,-48 13,-12 27,-21 42,-27 15,-6 31,-10 46,-12 16,-2 30,-3 43,-3 28,0 51,3 70,9 19,6 34,15 46,28 12,13 20,31 25,53 5,22 8,49 8,81l0 160 -1 4zm282 161c26,0 48,-3 66,-10 18,-7 32,-18 42,-34 11,-16 18,-37 23,-63 4,-26 7,-59 7,-98 -3,13 -7,24 -14,33 -6,9 -14,17 -23,23 -9,6 -18,11 -29,15 -10,4 -21,7 -32,9 -11,2 -21,3 -32,3 -10,0 -20,0 -29,0 -28,0 -51,-3 -70,-9 -19,-6 -34,-16 -46,-31 -12,-14 -20,-33 -26,-57 -5,-23 -8,-52 -8,-87l0 -142c0,-4 0,-8 0,-12 0,-4 1,-7 2,-11 1,-3 2,-6 4,-8 2,-2 5,-3 8,-3 4,0 7,1 9,3 2,2 4,5 5,8 1,3 2,7 2,11 0,4 0,8 0,12l0 142c0,30 2,55 5,75 3,20 9,36 18,48 9,12 21,21 36,25 15,5 35,7 60,7 15,0 30,-1 47,-4 17,-3 32,-7 47,-13 15,-6 28,-15 39,-27 11,-12 19,-26 24,-45l0 -210c0,-4 0,-8 1,-12 0,-4 1,-8 2,-11 1,-3 2,-6 4,-8 2,-2 4,-3 7,-3 4,0 7,1 9,3 2,2 4,5 5,8 1,3 2,7 2,11 0,4 0,8 0,12l0 227c0,47 -3,87 -9,119 -6,32 -16,57 -30,77 -14,19 -31,33 -52,41 -21,8 -47,12 -77,12 -21,0 -40,-1 -54,-4 -15,-3 -27,-6 -37,-10 -10,-4 -18,-9 -25,-14 -7,-5 -12,-10 -17,-15 -2,-3 -3,-6 -3,-9 0,-4 1,-8 3,-11 2,-3 5,-4 9,-4 2,0 4,1 6,3 5,4 11,9 17,13 7,5 14,9 24,12 9,4 20,7 33,9 13,2 28,3 45,3l2 1zm665 -490c23,0 45,3 65,9 21,6 39,15 54,29 15,14 28,32 37,55 9,23 14,52 14,87 0,34 -4,64 -11,87 -8,24 -19,43 -33,58 -14,15 -32,25 -53,32 -21,7 -45,10 -72,10 -21,0 -40,-2 -57,-5 -17,-3 -33,-7 -47,-12 -14,-5 -27,-10 -38,-16 -11,-6 -21,-12 -30,-17l-1 168c0,4 0,8 0,12 0,4 -1,7 -2,10 -1,3 -2,6 -4,7 -2,2 -5,3 -9,3 -4,0 -7,-1 -9,-3 -2,-2 -3,-5 -4,-8 -1,-3 -2,-7 -2,-11 0,-4 0,-9 0,-13l0 -453c0,-10 2,-16 5,-19 3,-3 6,-4 10,-4 4,0 8,1 10,4 3,3 4,9 4,20l0 64c3,-14 8,-26 16,-36 7,-10 16,-19 26,-27 10,-7 21,-13 32,-18 12,-5 23,-9 35,-11 12,-3 23,-4 35,-4 11,0 21,0 30,0l-1 2zm0 26c-15,0 -32,1 -50,4 -18,3 -36,8 -52,15 -17,7 -31,17 -44,29 -13,13 -22,29 -26,49l0 175c11,5 23,10 36,15 13,5 26,9 40,13 14,4 30,7 46,10 16,2 33,4 51,4 25,0 46,-3 63,-9 18,-6 32,-16 44,-29 11,-13 20,-30 25,-50 5,-20 8,-44 8,-72 0,-29 -4,-53 -11,-73 -7,-20 -17,-35 -30,-47 -12,-12 -27,-20 -44,-25 -17,-5 -35,-8 -54,-8l-2 -1zm504 -16c3,1 5,3 6,5 1,3 2,6 2,9 0,4 -1,8 -3,11 -2,3 -5,5 -10,5 -1,0 -2,0 -2,0 0,0 -1,0 -2,-1 -10,-3 -20,-6 -29,-8 -9,-2 -19,-3 -30,-3 -15,0 -29,2 -43,6 -14,4 -26,9 -37,17 -11,8 -21,17 -29,29 -8,12 -14,26 -18,41l0 210c0,8 -1,15 -3,22 -2,7 -6,10 -12,10 -4,0 -6,-1 -9,-3 -2,-2 -4,-4 -5,-7 -1,-3 -2,-7 -2,-10 0,-4 0,-8 0,-12l0 -296c0,-7 1,-13 3,-18 2,-5 7,-8 14,-8 6,0 9,3 11,8 2,5 2,12 2,20l0 57c4,-20 11,-36 21,-48 10,-12 21,-22 34,-28 12,-7 25,-11 38,-13 13,-2 25,-3 35,-3 10,0 18,0 25,1 7,1 13,2 18,3 5,1 10,2 13,3 4,1 8,3 11,4l1 -3zm81 353c-4,0 -8,-2 -11,-6 -3,-4 -5,-9 -5,-15 0,-8 3,-15 10,-23l263 -280 -248 0c-4,0 -7,0 -11,0 -3,0 -6,0 -9,-1 -2,-1 -5,-2 -6,-4 -2,-2 -2,-5 -2,-9 0,-5 1,-8 2,-10 1,-2 3,-4 6,-5 2,-1 5,-1 9,-1 3,0 7,0 11,0l270 0c6,0 11,2 14,6 3,4 5,9 5,14 0,8 -3,15 -9,21l-265 282 251 0c4,0 7,0 11,0 3,0 6,0 9,1 2,1 5,3 6,5 2,2 2,6 2,10 0,4 -1,7 -2,9 -2,2 -4,3 -6,4 -3,1 -6,1 -9,1 -3,0 -7,0 -10,0l-275 0 -1 1zm564 127c26,0 48,-3 66,-10 18,-7 32,-18 42,-34 11,-16 18,-37 23,-63 4,-26 7,-59 7,-98 -3,13 -7,24 -14,33 -6,9 -14,17 -23,23 -9,6 -18,11 -29,15 -10,4 -21,7 -32,9 -11,2 -21,3 -32,3 -10,0 -20,0 -29,0 -28,0 -51,-3 -70,-9 -19,-6 -34,-16 -46,-31 -12,-14 -20,-33 -26,-57 -5,-23 -8,-52 -8,-87l0 -142c0,-4 0,-8 0,-12 0,-4 1,-7 2,-11 1,-3 2,-6 4,-8 2,-2 5,-3 8,-3 4,0 7,1 9,3 2,2 4,5 5,8 1,3 2,7 2,11 0,4 0,8 0,12l0 142c0,30 2,55 5,75 3,20 9,36 18,48 9,12 21,21 36,25 15,5 35,7 60,7 15,0 30,-1 47,-4 17,-3 32,-7 47,-13 15,-6 28,-15 39,-27 11,-12 19,-26 24,-45l0 -210c0,-4 0,-8 1,-12 0,-4 1,-8 2,-11 1,-3 3,-6 4,-8 2,-2 4,-3 7,-3 4,0 7,1 9,3 2,2 4,5 5,8 1,3 2,7 2,11 0,4 0,8 0,12l0 227c0,47 -3,87 -9,119 -6,32 -16,57 -30,77 -13,19 -31,33 -52,41 -21,8 -47,12 -77,12 -21,0 -40,-1 -54,-4 -15,-3 -27,-6 -37,-10 -10,-4 -18,-9 -25,-14 -7,-5 -12,-10 -17,-15 -2,-3 -3,-6 -3,-9 0,-4 1,-8 3,-11 2,-3 5,-4 9,-4 2,0 4,1 6,3 5,4 11,9 17,13 7,5 14,9 24,12 9,4 20,7 33,9 13,2 28,3 45,3l2 1zm362 -171c0,11 0,22 -1,35 0,12 -2,25 -4,37 -2,12 -6,24 -10,36 -5,11 -11,21 -19,30 -8,9 -19,16 -32,21 -13,5 -28,8 -47,8 -3,0 -6,0 -10,0 -3,0 -6,0 -8,-2 -2,-1 -4,-3 -6,-5 -1,-2 -2,-5 -2,-9 0,-4 1,-7 2,-9 1,-2 3,-4 6,-5 2,-1 5,-1 8,-1 3,0 6,0 10,0 21,0 37,-4 49,-12 11,-8 19,-18 24,-31 5,-13 8,-27 8,-43 0,-16 1,-32 1,-48l0 -287c0,-7 1,-12 3,-17 2,-5 6,-7 13,-7 7,0 12,2 13,7 1,5 2,10 2,17l0 287 0 -2zm-36 -416c0,-7 2,-13 6,-18 4,-5 9,-7 15,-7 6,0 11,2 15,7 4,5 6,11 6,18 0,7 -2,13 -6,17 -4,4 -9,6 -15,6 -6,0 -11,-2 -15,-6 -4,-4 -6,-10 -6,-17zm314 123c-24,0 -45,2 -63,7 -18,5 -34,13 -47,24 -13,11 -23,25 -30,42 -7,17 -11,38 -12,63l289 0 0 -25c0,-15 -2,-30 -7,-44 -5,-13 -13,-25 -23,-36 -11,-10 -25,-18 -42,-24 -17,-6 -39,-9 -64,-9l-1 2zm-20 314c24,0 46,-2 64,-6 18,-4 34,-8 47,-13 13,-5 24,-11 32,-16 8,-6 15,-10 19,-14 2,-1 2,-1 3,-1 3,0 6,2 8,5 2,3 4,7 4,10 0,3 -1,6 -4,8 -2,3 -7,7 -15,13 -8,6 -18,12 -33,18 -14,6 -31,11 -52,16 -21,5 -45,7 -74,7 -30,0 -55,-4 -76,-13 -21,-9 -38,-21 -51,-37 -13,-16 -23,-35 -28,-58 -6,-23 -9,-47 -9,-74 0,-36 5,-66 14,-89 9,-24 22,-43 39,-57 17,-14 36,-24 58,-30 22,-6 47,-9 72,-9 53,0 93,12 119,36 27,24 40,59 40,104 0,4 0,9 -1,14 -1,5 -1,10 -2,15 -1,5 -2,9 -3,12 -1,3 -2,5 -3,5l-113 0 -190 0c1,28 4,52 9,72 6,20 14,36 25,48 11,12 25,21 41,27 16,6 35,8 57,8l3 -1zm138 -3c-9,13 -16,26 -20,39 -4,13 -7,24 -7,34 0,13 2,21 7,26 4,5 9,7 13,7 5,0 10,-2 15,-5 5,-3 9,-6 12,-9l4 4c-4,11 -11,19 -20,26 -9,6 -18,10 -28,10 -4,0 -9,-1 -13,-3 -4,-2 -8,-4 -12,-8 -3,-3 -6,-8 -8,-14 -2,-6 -3,-12 -3,-21 0,-15 5,-30 14,-44 9,-14 21,-29 36,-43l12 0 -2 1zm327 -311c-29,0 -55,3 -75,9 -21,6 -38,15 -51,28 -13,13 -23,29 -29,49 -6,20 -9,44 -9,72 0,28 3,52 10,72 7,20 17,36 31,48 14,12 31,21 51,27 20,6 44,8 72,8 12,0 25,-1 37,-3 13,-2 25,-5 36,-8 12,-3 22,-7 32,-11 10,-4 18,-8 24,-12 4,-2 7,-2 8,-2 3,0 6,1 8,3 2,2 3,5 3,9 0,2 -1,5 -2,8 -1,3 -3,5 -6,7 -23,14 -46,24 -70,29 -24,5 -47,8 -70,8 -29,0 -56,-3 -80,-8 -24,-6 -44,-15 -61,-29 -17,-14 -30,-33 -40,-56 -9,-23 -14,-53 -14,-89 0,-36 4,-66 13,-89 9,-24 21,-43 38,-57 17,-14 37,-24 61,-30 24,-6 52,-9 83,-9 23,0 46,3 70,8 24,5 47,15 70,29 3,2 5,4 6,7 1,3 2,5 2,8 0,3 -1,6 -3,9 -2,2 -5,3 -8,3 -2,0 -4,-1 -8,-2 -6,-4 -14,-8 -24,-12 -10,-4 -20,-8 -32,-11 -11,-3 -24,-6 -36,-8 -13,-2 -25,-3 -37,-3l0 -2zm9 -255c3,-3 6,-5 10,-5 3,0 6,1 9,3 3,2 5,4 8,6 2,3 4,6 6,9 2,3 2,7 2,10 0,5 -2,9 -6,13l-112 110c-2,2 -4,2 -6,2 -3,0 -5,-1 -7,-3 -2,-2 -3,-5 -3,-9 0,-3 1,-6 3,-8l97 -128 -1 0z"/>
  <rect class="fil2" width="10400" height="2000"/>
 </g>
</svg>
