<?xml version="1.0" encoding="UTF-8"?>
<!DOCTYPE svg PUBLIC "-//W3C//DTD SVG 1.1//EN" "http://www.w3.org/Graphics/SVG/1.1/DTD/svg11.dtd">
<!-- Creator: CorelDRAW X5 -->
<svg xmlns="http://www.w3.org/2000/svg" xml:space="preserve" width="104mm" height="20mm" style="shape-rendering:geometricPrecision; text-rendering:geometricPrecision; image-rendering:optimizeQuality; fill-rule:evenodd; clip-rule:evenodd"
viewBox="0 0 10400 2000"
 xmlns:xlink="http://www.w3.org/1999/xlink">
 <defs>
  <style type="text/css">
   <![CDATA[
    .str0 {stroke:#4D4948;stroke-width:25}
    .fil0 {fill:none}
    .fil2 {fill:#4D4948}
    .fil1 {fill:#4D4948;fill-rule:nonzero}
   ]]>
  </style>
 </defs>
 <g id="Layer_x0020_1">
  <metadata id="CorelCorpID_0Corel-Layer"/>
  <rect class="fil0" width="10400" height="2000"/>
 </g>
 <g id="Layer_x0020_1_0">
  <metadata id="CorelCorpID_1Corel-Layer"/>
  <path id="_126673000" class="fil1 str0" d="M3079 1225l270 248c6,6 9,12 9,18 0,5 -1,9 -5,12 -3,3 -7,5 -12,5 -5,0 -10,-2 -15,-7l-277 -258 -96 62 0 171c0,9 -1,16 -4,23 -3,6 -8,9 -15,9 -9,0 -15,-3 -17,-9 -2,-6 -3,-14 -3,-22l0 -454c0,-9 1,-16 4,-22 3,-6 8,-9 17,-9 7,0 12,3 15,9 3,6 4,13 4,21l0 247 371 -270c3,-3 7,-4 10,-6 3,-1 6,-2 9,-2 5,0 9,1 11,4 3,3 4,6 4,11 0,7 -3,13 -10,18l-269 200zm617 288c-43,0 -79,-4 -108,-13 -29,-8 -53,-21 -71,-36 -18,-16 -31,-35 -39,-57 -8,-22 -12,-48 -12,-76 0,-33 5,-61 14,-84 9,-23 23,-43 42,-58 19,-15 43,-26 72,-33 29,-7 63,-11 103,-11 40,0 74,3 103,11 29,7 53,18 72,33 19,15 33,34 42,58 9,23 14,51 14,84 0,28 -4,54 -12,76 -8,23 -21,42 -39,57 -18,16 -42,28 -71,36 -29,9 -65,13 -108,13zm0 -27c28,0 52,-2 73,-6 20,-4 38,-10 52,-17 14,-7 26,-16 35,-26 9,-10 16,-21 21,-32 5,-12 8,-24 10,-36 2,-13 3,-25 3,-38 0,-29 -4,-53 -11,-73 -7,-20 -19,-37 -35,-49 -16,-13 -36,-22 -60,-27 -24,-6 -53,-9 -87,-9 -34,0 -63,3 -87,9 -24,6 -44,15 -60,27 -16,13 -27,29 -35,49 -7,20 -11,44 -11,73 0,13 1,25 3,38 2,12 5,24 10,36 5,12 12,22 21,32 9,10 20,18 35,26 14,7 32,13 52,17 20,4 45,6 73,6zm771 -11c0,4 0,8 -1,12 -1,4 -2,8 -3,11 -1,3 -3,6 -6,8 -3,2 -6,3 -9,3 -5,0 -8,-1 -10,-3 -2,-2 -4,-5 -5,-8 -1,-3 -2,-7 -2,-11 0,-4 0,-8 0,-12l0 -160c0,-24 -2,-45 -5,-63 -3,-18 -10,-33 -21,-45 -10,-12 -25,-21 -43,-27 -18,-6 -42,-9 -72,-9 -18,0 -38,1 -58,4 -20,3 -40,8 -58,15 -18,7 -35,17 -49,29 -14,12 -24,27 -30,45l0 209c0,4 0,8 0,12 0,4 -1,8 -2,11 -1,3 -3,6 -5,8 -2,2 -5,3 -9,3 -4,0 -8,-1 -10,-3 -3,-2 -5,-5 -6,-8 -1,-3 -2,-7 -3,-11 0,-4 -1,-8 -1,-12l0 -300c0,-5 1,-10 3,-15 2,-4 8,-7 16,-7 8,0 12,2 15,6 2,4 3,9 3,15l0 58c9,-20 21,-36 36,-48 15,-12 32,-21 51,-27 18,-6 37,-10 56,-12 19,-2 36,-3 52,-3 33,0 61,3 84,9 23,6 41,15 55,28 14,13 24,31 30,53 6,22 9,49 9,81l0 160zm190 -314l169 0c5,0 8,1 10,3 2,2 3,5 3,8 0,3 -1,5 -4,8 -2,2 -6,3 -10,3l-169 0 0 303c0,10 -2,16 -5,19 -4,3 -8,4 -13,4 -4,0 -8,-1 -12,-4 -4,-3 -6,-9 -6,-19l0 -303 -41 0c-4,0 -8,-1 -10,-3 -2,-2 -3,-5 -3,-8 0,-3 1,-5 3,-8 2,-2 5,-3 10,-3l41 0 0 -30c0,-25 3,-46 8,-63 5,-17 12,-31 22,-41 9,-10 21,-18 34,-22 13,-5 28,-7 45,-7 9,0 18,0 26,0 8,0 17,1 25,2 9,1 18,3 27,6 9,2 20,5 31,9 9,3 14,8 14,15 0,3 -1,5 -4,8 -2,3 -6,4 -11,4 -4,0 -7,-1 -9,-2 -17,-6 -33,-10 -48,-12 -15,-2 -31,-3 -46,-3 -12,0 -23,1 -33,4 -10,3 -18,8 -25,15 -7,8 -12,18 -15,33 -3,14 -5,32 -5,55l0 30zm475 11c-29,0 -54,2 -76,7 -22,5 -41,13 -57,24 -16,11 -28,25 -36,42 -9,17 -14,38 -15,63l349 0 0 -25c0,-15 -3,-30 -9,-44 -6,-13 -15,-25 -28,-36 -13,-10 -30,-18 -51,-24 -21,-6 -47,-9 -77,-9zm-24 314c29,0 55,-2 77,-6 22,-4 41,-8 56,-13 16,-5 29,-11 39,-16 10,-6 18,-10 23,-14 2,-1 3,-1 4,-1 3,0 7,2 9,5 3,3 4,7 4,10 0,3 -2,6 -5,8 -3,3 -9,7 -18,13 -9,6 -22,12 -39,18 -17,6 -38,11 -63,16 -25,5 -55,7 -89,7 -36,0 -66,-4 -91,-13 -25,-9 -45,-21 -61,-37 -16,-16 -27,-35 -34,-58 -7,-23 -11,-47 -11,-74 0,-36 6,-66 17,-89 11,-24 27,-43 47,-57 20,-14 43,-24 70,-30 27,-6 56,-9 87,-9 64,0 112,12 144,36 32,24 48,59 48,104 0,4 0,9 -1,14 -1,5 -1,10 -3,15 -1,5 -2,9 -4,12 -1,3 -3,5 -4,5l-136 0 -230 0c1,28 4,52 11,72 7,20 17,36 31,48 13,12 30,21 50,27 20,6 43,8 69,8zm616 -330c3,1 6,3 7,5 2,3 2,6 2,9 0,4 -1,8 -4,11 -3,3 -6,5 -12,5 -1,0 -2,0 -3,0 0,0 -1,0 -3,-1 -12,-3 -24,-6 -34,-8 -11,-2 -23,-3 -36,-3 -18,0 -36,2 -52,6 -16,4 -31,9 -45,17 -13,8 -25,17 -35,29 -10,12 -17,26 -22,41l0 210c0,8 -1,15 -3,22 -2,7 -7,10 -15,10 -4,0 -8,-1 -10,-3 -3,-2 -5,-4 -6,-7 -1,-3 -2,-7 -2,-10 0,-4 0,-8 0,-12l0 -296c0,-7 1,-13 4,-18 3,-5 8,-8 17,-8 7,0 11,3 13,8 2,5 3,12 3,20l0 57c5,-20 14,-36 26,-48 12,-12 26,-22 41,-28 15,-7 30,-11 46,-13 16,-2 30,-3 42,-3 12,0 22,0 30,1 8,1 16,2 22,3 6,1 12,2 16,3 5,1 9,3 13,4zm306 16c-29,0 -54,2 -76,7 -22,5 -41,13 -57,24 -16,11 -28,25 -36,42 -9,17 -14,38 -15,63l349 0 0 -25c0,-15 -3,-30 -9,-44 -6,-13 -15,-25 -28,-36 -13,-10 -30,-18 -51,-24 -21,-6 -47,-9 -77,-9zm-24 314c29,0 55,-2 77,-6 22,-4 41,-8 56,-13 16,-5 29,-11 39,-16 10,-6 18,-10 23,-14 2,-1 3,-1 4,-1 3,0 7,2 9,5 3,3 4,7 4,10 0,3 -2,6 -5,8 -3,3 -9,7 -18,13 -9,6 -22,12 -39,18 -17,6 -38,11 -63,16 -25,5 -55,7 -89,7 -36,0 -66,-4 -91,-13 -25,-9 -45,-21 -61,-37 -16,-16 -27,-35 -34,-58 -7,-23 -11,-47 -11,-74 0,-36 6,-66 17,-89 11,-24 27,-43 47,-57 20,-14 43,-24 70,-30 27,-6 56,-9 87,-9 64,0 112,12 144,36 32,24 48,59 48,104 0,4 0,9 -1,14 -1,5 -1,10 -3,15 -1,5 -2,9 -4,12 -1,3 -3,5 -4,5l-136 0 -230 0c1,28 4,52 11,72 7,20 17,36 31,48 13,12 30,21 50,27 20,6 43,8 69,8zm753 -11c0,4 0,8 -1,12 -1,4 -2,8 -3,11 -1,3 -3,6 -6,8 -3,2 -6,3 -9,3 -5,0 -8,-1 -10,-3 -2,-2 -4,-5 -5,-8 -1,-3 -2,-7 -2,-11 0,-4 0,-8 0,-12l0 -160c0,-24 -2,-45 -5,-63 -3,-18 -10,-33 -21,-45 -10,-12 -25,-21 -43,-27 -18,-6 -42,-9 -72,-9 -18,0 -38,1 -58,4 -20,3 -40,8 -58,15 -18,7 -35,17 -49,29 -14,12 -24,27 -30,45l0 209c0,4 0,8 0,12 0,4 -1,8 -2,11 -1,3 -3,6 -5,8 -2,2 -5,3 -9,3 -4,0 -8,-1 -10,-3 -3,-2 -5,-5 -6,-8 -1,-3 -2,-7 -3,-11 0,-4 -1,-8 -1,-12l0 -300c0,-5 1,-10 3,-15 2,-4 8,-7 16,-7 8,0 12,2 15,6 2,4 3,9 3,15l0 58c9,-20 21,-36 36,-48 15,-12 32,-21 51,-27 18,-6 37,-10 56,-12 19,-2 36,-3 52,-3 33,0 61,3 84,9 23,6 41,15 55,28 14,13 24,31 30,53 6,22 9,49 9,81l0 160zm359 -303c-36,0 -66,3 -91,9 -25,6 -46,15 -61,28 -16,13 -27,29 -35,49 -7,20 -11,44 -11,72 0,28 4,52 12,72 8,20 20,36 37,48 16,12 37,21 62,27 25,6 54,8 87,8 15,0 30,-1 45,-3 15,-2 30,-5 44,-8 14,-3 27,-7 39,-11 12,-4 21,-8 29,-12 5,-2 8,-2 10,-2 4,0 7,1 9,3 2,2 3,5 3,9 0,2 -1,5 -2,8 -2,3 -4,5 -7,7 -27,14 -55,24 -84,29 -29,5 -57,8 -84,8 -35,0 -67,-3 -96,-8 -29,-6 -54,-15 -74,-29 -21,-14 -37,-33 -48,-56 -11,-23 -17,-53 -17,-89 0,-36 5,-66 16,-89 11,-24 26,-43 46,-57 20,-14 45,-24 74,-30 29,-6 62,-9 100,-9 27,0 55,3 84,8 29,5 57,15 84,29 3,2 6,4 7,7 2,3 2,5 2,8 0,3 -1,6 -3,9 -2,2 -6,3 -9,3 -2,0 -5,-1 -10,-2 -7,-4 -17,-8 -29,-12 -12,-4 -25,-8 -39,-11 -14,-3 -28,-6 -44,-8 -15,-2 -30,-3 -45,-3zm399 293c0,11 0,22 -1,35 0,12 -2,25 -5,37 -3,12 -7,24 -12,36 -6,11 -13,21 -23,30 -10,9 -23,16 -38,21 -15,5 -34,8 -57,8 -4,0 -8,0 -12,0 -4,0 -7,0 -10,-2 -3,-1 -5,-3 -7,-5 -2,-2 -3,-5 -3,-9 0,-4 1,-7 3,-9 2,-2 4,-4 7,-5 3,-1 6,-1 10,-1 4,0 8,0 12,0 26,0 45,-4 59,-12 13,-8 23,-18 29,-31 6,-13 9,-27 10,-43 0,-16 1,-32 1,-48l0 -287c0,-7 1,-12 3,-17 2,-5 8,-7 16,-7 9,0 14,2 16,7 2,5 2,10 2,17l0 287zm-44 -416c0,-7 2,-13 7,-18 5,-5 11,-7 18,-7 7,0 13,2 18,7 5,5 7,11 7,18 0,7 -3,13 -7,17 -5,4 -11,6 -18,6 -7,0 -13,-2 -18,-6 -5,-4 -7,-10 -7,-17zm379 123c-29,0 -54,2 -76,7 -22,5 -41,13 -57,24 -16,11 -28,25 -36,42 -9,17 -14,38 -15,63l349 0 0 -25c0,-15 -3,-30 -9,-44 -6,-13 -15,-25 -28,-36 -13,-10 -30,-18 -51,-24 -21,-6 -47,-9 -77,-9zm-24 314c29,0 55,-2 77,-6 22,-4 41,-8 56,-13 16,-5 29,-11 39,-16 10,-6 18,-10 23,-14 2,-1 3,-1 4,-1 3,0 7,2 9,5 3,3 4,7 4,10 0,3 -2,6 -5,8 -3,3 -9,7 -18,13 -9,6 -22,12 -39,18 -17,6 -38,11 -63,16 -25,5 -55,7 -89,7 -36,0 -66,-4 -91,-13 -25,-9 -45,-21 -61,-37 -16,-16 -27,-35 -34,-58 -7,-23 -11,-47 -11,-74 0,-36 6,-66 17,-89 11,-24 27,-43 47,-57 20,-14 43,-24 70,-30 27,-6 56,-9 87,-9 64,0 112,12 144,36 32,24 48,59 48,104 0,4 0,9 -1,14 -1,5 -1,10 -3,15 -1,5 -2,9 -4,12 -1,3 -3,5 -4,5l-136 0 -230 0c1,28 4,52 11,72 7,20 17,36 31,48 13,12 30,21 50,27 20,6 43,8 69,8z"/>
  <g id="_248769840">
   <path id="_126672952" class="fil2" d="M2067 1414c8,0 16,0 23,1 23,3 45,17 63,31 0,0 1,1 1,1l21 20c6,8 6,12 15,23l11 -18c7,-11 6,-9 15,-17l25 -21c2,-2 1,0 3,-4 9,-13 0,-47 -5,-59 -3,-7 -1,-2 -5,-9l-23 -25c-16,-9 -27,-16 -46,-16 -21,0 -36,3 -51,11l-16 11c0,0 -1,1 -1,1l-15 17c0,0 -1,1 -1,1 -9,14 -12,29 -13,50z"/>
   <path id="_126673072" class="fil2" d="M1449 1490c4,-5 6,-13 16,-25l9 -10c0,0 1,-1 1,-1l5 -5c23,-22 54,-35 87,-36 0,-29 -5,-42 -20,-60l-19 -18c-22,-15 -57,-19 -83,-9l-15 7c-1,1 -5,3 -6,4l-8 7c-20,20 -35,54 -29,80 3,13 15,12 31,29l15 18c2,4 4,7 6,10 7,10 1,6 9,8z"/>
   <path id="_126673216" class="fil2" d="M1613 1420c5,1 8,3 13,6l11 6c0,0 1,1 2,1 3,2 10,5 12,7l16 16c11,10 24,23 28,39 5,-2 5,-7 13,-20 9,-14 7,-12 20,-23l20 -16c20,-12 25,-11 38,-17 1,0 3,-1 3,-2 1,0 1,-1 2,-1l3 -2c0,-18 -2,-31 -10,-46l-10 -14c-4,-6 0,-1 -5,-7 -29,-29 -86,-35 -123,-3 -10,9 -15,17 -22,29l-2 3c-6,12 -9,30 -8,44z"/>
   <path id="_126674704" class="fil2" d="M1841 1414c5,3 9,5 16,7 12,3 22,7 32,14l47 47c4,7 3,11 9,14 4,-19 30,-44 30,-44l46 -30c1,-15 -1,-25 -6,-39 -2,-5 -2,-4 -3,-7 -13,-27 -18,-32 -39,-43 -25,-13 -52,-13 -77,-4l-22 12c-1,0 -2,2 -3,2 0,0 -1,1 -1,1l-26 37c-3,9 -4,24 -4,33z"/>
   <path id="_126673120" class="fil2" d="M2040 1454c-18,10 -16,0 -38,22l-4 4c0,0 -1,1 -1,1 -33,33 -36,80 -12,121l13 16c0,0 1,1 1,1 28,28 60,34 96,23 23,-7 13,-1 30,-13l26 -29c0,0 1,-1 1,-2 13,-23 19,-52 11,-76l-15 -30c0,0 -1,-1 -1,-1 0,0 -5,-6 -5,-7 -1,-2 -5,-5 -6,-6l-9 -8c0,0 -1,-1 -1,-1 -9,-7 -6,-7 -20,-11 -16,-4 -44,-15 -65,-4z"/>
   <path id="_126674872" class="fil2" d="M1295 1454c-6,3 -11,3 -18,6l-37 35c-15,21 -20,58 -12,81 1,3 5,12 7,17l10 15c26,35 65,48 107,34 20,-7 9,1 28,-13 0,0 1,-1 1,-1l17 -16c9,-10 20,-31 22,-45 5,-31 -2,-61 -23,-84 -2,-2 -5,-5 -6,-6l-3 -2c0,0 -4,-3 -4,-3 -19,-15 -63,-32 -90,-18z"/>
   <path id="_126675136" class="fil2" d="M1543 1454c-7,4 -11,4 -18,7l-27 21c-23,24 -32,65 -22,94 4,11 8,23 16,32 1,1 4,5 6,7 3,3 4,4 6,6 3,3 2,2 6,6 4,3 4,3 8,6l35 14c27,4 49,0 72,-14l15 -12c31,-30 40,-73 20,-114 -7,-15 -9,-20 -26,-34 -21,-18 -69,-29 -90,-17z"/>
   <path id="_126675184" class="fil2" d="M1791 1454c-12,7 -15,2 -32,17 0,0 -1,1 -1,1l-17 17c-28,35 -28,91 7,127l6 6c0,0 1,1 1,1 0,0 1,1 1,1 0,0 1,1 1,1l9 8c8,6 8,4 17,7l18 6c39,5 69,-7 93,-34 9,-10 11,-14 17,-29 0,-1 0,-1 1,-2 12,-29 5,-65 -12,-89 0,0 -1,-1 -1,-1 0,0 -1,-1 -1,-1 -17,-21 -33,-32 -61,-38 -10,-2 -39,-2 -46,3z"/>
   <path id="_126675232" class="fil2" d="M2285 1454l-9 4c-4,1 -6,2 -9,3l-15 9c-1,0 -6,5 -7,5l-18 23c-9,15 -8,19 -12,33 -5,16 -1,38 5,53l18 28c23,30 71,42 101,31 27,-10 42,-19 57,-42 14,-22 22,-51 12,-79 -10,-29 -27,-55 -58,-65 -4,-1 -6,-2 -9,-3 -16,-6 -45,-7 -56,-1z"/>
   <path id="_126675280" class="fil2" d="M1740 946c0,0 -1,0 -2,1l-42 36c-24,31 -35,57 -35,100l309 0c1,-23 -2,-49 -12,-66l-21 -34c-2,-3 -5,-5 -7,-7l-26 -22c0,0 -1,-1 -1,-1l-12 -7 10 -13c28,-41 25,-85 -4,-123 -5,-7 -3,-4 -9,-11l-16 -13c-3,-1 -4,-2 -7,-3 -42,-19 -76,-19 -115,11 -29,23 -40,61 -35,98 2,14 9,28 17,40 5,7 5,4 7,13z"/>
   <path id="_126675328" class="fil2" d="M1592 1159l0 198 43 -47c6,-5 6,-5 13,-8 42,-21 93,-17 128,11l11 9c20,17 20,24 29,40 5,-2 1,0 5,-4l35 -42c1,0 2,-2 3,-2l29 -16c4,-1 4,-1 8,-2 29,-8 57,-12 103,14 12,7 30,27 38,39 4,6 0,0 2,3 4,5 1,4 7,6l0 -198c18,-2 29,0 39,-11 1,-2 10,-32 -23,-32 -51,0 -487,-2 -498,1 -13,4 -16,19 -12,29 5,13 28,12 42,13z"/>
  </g>
 </g>
</svg>
