<?xml version="1.0" encoding="UTF-8"?>
<!DOCTYPE svg PUBLIC "-//W3C//DTD SVG 1.1//EN" "http://www.w3.org/Graphics/SVG/1.1/DTD/svg11.dtd">
<!-- Creator: CorelDRAW -->
<svg xmlns="http://www.w3.org/2000/svg" xml:space="preserve" width="15mm" height="15mm" style="shape-rendering:geometricPrecision; text-rendering:geometricPrecision; image-rendering:optimizeQuality; fill-rule:evenodd; clip-rule:evenodd"
viewBox="0 0 15 15"
 xmlns:xlink="http://www.w3.org/1999/xlink">
 <defs>
  <style type="text/css">
   <![CDATA[
    .fil0 {fill:none}
    .fil1 {fill:white;fill-rule:nonzero}
   ]]>
  </style>
 </defs>
 <g id="Layer_x0020_1">
  <metadata id="CorelCorpID_0Corel-Layer"/>
  <path class="fil0" d="M12.1388 2.8612l-9.2778 0c-0.6377,0 -1.1538,0.5218 -1.1538,1.1597l-0.0057 6.9582c0,0.6378 0.5218,1.1598 1.1598,1.1598l9.2775 0c0.6377,0 1.1598,-0.5218 1.1598,-1.1598l-0.0003 -6.9582c0,-0.6377 -0.5218,-1.1597 -1.1597,-1.1597l0.0002 0zm0 8.1179l-9.2778 0 0 -5.7984 4.6389 2.8992 4.6389 -2.8992 0 5.7984zm-4.6389 -4.059l-4.6389 -2.8992 9.2778 0 -4.6389 2.8992z"/>
  <path class="fil1" d="M12.1386 3.0096l-9.2776 0 0 0.0007 -0.0016 0 0 -0.0007c-0.2766,0.0003 -0.5279,0.1146 -0.7094,0.2977 -0.1811,0.1824 -0.2935,0.4344 -0.2942,0.7103l0.0007 0 0 0.0034 -0.0007 0 -0.0058 6.9581 0.0007 0 0 0.0016 -0.0007 0c0.0003,0.2763 0.1148,0.5293 0.2981,0.7126l-0.0002 0.0002c0.1829,0.1825 0.4345,0.2963 0.7099,0.297l0 -0.0007 0.0034 0 9.2776 0 0.0016 0 0 0.0007c0.2768,-0.0002 0.5297,-0.1145 0.7124,-0.2976l0 -0.0007c0.1826,-0.1827 0.2965,-0.4345 0.2972,-0.7096l-0.0007 0 0 -0.0035 0 -6.9581 0 -0.0016 0.0007 0c-0.0003,-0.277 -0.1146,-0.5297 -0.2977,-0.7126 -0.1827,-0.1824 -0.4347,-0.2965 -0.7103,-0.2972l0 0.0007 -0.0032 0 -0.0002 0 0 -0.0007zm-9.2776 -0.2969l9.2776 0 0 -0.0007 0.0002 0 0.0032 0 0 0.0007c0.3585,0.0009 0.6846,0.1478 0.9201,0.383 0.2368,0.2366 0.3844,0.5641 0.3848,0.9237l0.0007 0 0 0.0016 0 6.9581 0 0.0035 -0.0007 0c-0.0009,0.3587 -0.1473,0.685 -0.383,0.9207l-0.0005 -0.0005c-0.2363,0.2369 -0.5636,0.3842 -0.923,0.3847l0 0.0007 -0.0016 0 -9.2776 0 -0.0034 0 0 -0.0007c-0.3585,-0.0009 -0.6844,-0.1478 -0.9201,-0.383l-0.0007 0c-0.2361,-0.2362 -0.3835,-0.5637 -0.3839,-0.9238l-0.0007 0 0 -0.0016 0.0007 0 0.0057 -6.9581 -0.0007 0 0 -0.0034 0.0007 0c0.0009,-0.3583 0.1462,-0.6844 0.38,-0.9201 0.2346,-0.2366 0.5605,-0.3844 0.9206,-0.3848l0 -0.0007 0.0016 0 0 0.0007zm9.2778 8.4149l-9.2778 0 -0.1492 0 0 -0.1485 0 -5.7984 0 -0.2688 0.2279 0.1423 4.5603 2.8501 4.5601 -2.8501 0.2279 -0.1423 0 0.2688 0 5.7984 0 0.1485 -0.1492 0zm-9.1287 -0.297l8.9795 0 0 -5.381 -4.4109 2.7568 -0.0787 0.0491 -0.0787 -0.0491 -4.4112 -2.7568 0 5.381zm4.4112 -3.7839l-4.6391 -2.8992 -0.4397 -0.275 0.5185 0 9.2778 0 0.5184 0 -0.4397 0.275 -4.6388 2.8992 -0.0787 0.0494 -0.0787 -0.0494zm-4.0417 -2.8772l4.1204 2.5752 4.1201 -2.5752 -8.2405 0z"/>
 </g>
</svg>
