<?xml version="1.0" encoding="UTF-8"?>
<!DOCTYPE svg PUBLIC "-//W3C//DTD SVG 1.1//EN" "http://www.w3.org/Graphics/SVG/1.1/DTD/svg11.dtd">
<!-- Creator: CorelDRAW X5 -->
<svg xmlns="http://www.w3.org/2000/svg" xml:space="preserve" width="104mm" height="20mm" style="shape-rendering:geometricPrecision; text-rendering:geometricPrecision; image-rendering:optimizeQuality; fill-rule:evenodd; clip-rule:evenodd"
viewBox="0 0 10400 2000"
 xmlns:xlink="http://www.w3.org/1999/xlink">
 <defs>
  <style type="text/css">
   <![CDATA[
    .str0 {stroke:#4D4948;stroke-width:25}
    .fil0 {fill:none}
    .fil1 {fill:#4D4948}
    .fil2 {fill:#4D4948;fill-rule:nonzero}
   ]]>
  </style>
 </defs>
 <g id="Layer_x0020_1">
  <metadata id="CorelCorpID_0Corel-Layer"/>
  <rect class="fil0" width="10400" height="2000"/>
 </g>
 <g id="Layer_x0020_1_0">
  <metadata id="CorelCorpID_1Corel-Layer"/>
  <path id="_100821296" class="fil1" d="M1430 1514c0,71 38,117 107,117l802 0c13,0 17,-4 26,-10l0 -879c-25,-15 -33,-9 -80,-9 -2,-18 0,-36 -1,-54 0,-25 -8,-26 -32,-26l-335 0c-150,0 -300,1 -450,0 -46,0 -38,-1 -38,75l-1 786zm41 -6l774 0 0 -817 -6 0 -768 0 0 817zm40 -508l0 241c0,15 10,23 26,23l272 0c20,0 29,-9 29,-29l0 -230c0,-19 -7,-29 -26,-29l-278 0c-15,0 -23,8 -23,23zm774 525c0,32 -35,24 -80,24l-730 0c11,28 31,41 68,42l782 0 1 -817 -40 0 0 752zm-734 -313l1 11 245 0 1 -205 -11 -1 -235 0 0 195zm387 -350l7 16c4,13 13,43 18,51 7,10 21,12 31,1 7,-9 34,-122 39,-145 4,-18 8,-21 5,-44 -31,-21 -35,-2 -43,27 -6,24 -13,48 -18,73 -14,-18 -14,-64 -37,-64 -22,0 -22,12 -32,42 -3,9 -3,13 -10,19 -8,-26 -19,-96 -33,-103 -17,-8 -35,4 -27,33 6,21 36,153 43,161 8,10 27,15 38,-16 3,-9 6,-18 9,-26 3,-8 6,-19 9,-26zm-427 -106l0 158c0,28 40,36 40,-6 0,-31 0,-61 0,-92 7,4 8,9 14,17l74 98c18,15 34,1 34,-23l0 -146c0,-16 -3,-27 -17,-29 -38,-5 -24,67 -25,118 -14,-9 -70,-95 -85,-110 -14,-14 -36,-8 -36,16zm648 101c7,18 4,16 4,39 -24,5 -69,-6 -78,10 -1,15 -3,25 12,30 10,3 33,1 45,1 30,0 50,-1 60,-29 9,-23 2,-59 -10,-73 -21,-26 -39,-16 -68,-24 -2,-21 -9,-36 17,-38 17,-1 44,5 56,-4 14,-10 8,-32 -10,-36 -9,-2 -53,-1 -62,0 -35,6 -49,38 -42,76 6,39 37,44 76,47zm-424 80l57 0c19,0 28,-13 21,-32 -12,-14 -33,-6 -58,-9l0 -39c33,-4 34,6 59,-11 3,-44 -24,-28 -59,-32l0 -39c39,-4 62,11 59,-32 -13,-8 -9,-9 -31,-9 -75,0 -69,-4 -69,58 0,28 0,55 0,83 0,24 -7,63 20,63zm172 488c60,4 183,1 249,1 24,0 27,-8 26,-31 -24,-16 -30,-10 -75,-10l-172 0c-14,0 -27,0 -34,10 -9,15 4,29 5,30zm275 -356c-22,-15 -30,-10 -69,-10l-163 0c-22,0 -61,-2 -50,29 4,11 13,13 27,13l204 0c34,0 54,7 52,-31zm-258 196l232 0c14,0 16,-4 26,-10 1,-26 -3,-31 -29,-31 -65,0 -188,-2 -246,1 0,1 -26,40 17,40zm-384 161c39,3 234,3 268,-1 9,-14 8,-9 7,-29 -24,-16 -30,-10 -75,-10l-172 0c-19,0 -40,3 -36,25 3,14 3,5 8,15zm2 -81c65,3 182,1 253,1 29,0 29,-40 0,-40 -75,0 -182,-2 -253,0 -15,18 -15,22 0,39zm367 0c65,3 182,1 253,1 29,0 29,-40 0,-40 -75,0 -182,-2 -253,0 -15,18 -15,22 0,39zm18 -162l229 0c15,0 17,-5 26,-10 1,-26 -3,-32 -29,-32l-226 0c-41,0 -36,41 0,41zm-9 -165l244 0c32,0 27,-40 -3,-40l-238 0c-29,0 -30,40 -3,40z"/>
  <path id="_101128312" class="fil2 str0" d="M3068 1001c5,-9 9,-15 12,-18 3,-3 7,-5 12,-5 4,0 8,2 11,5 3,3 8,9 13,19l256 461c3,6 5,12 5,18 0,6 -1,10 -5,13 -3,3 -7,5 -11,5 -4,0 -9,-1 -13,-4 -4,-3 -8,-8 -13,-16l-79 -143 -330 0 -80 144c-3,6 -7,11 -12,14 -4,3 -9,4 -13,4 -5,0 -9,-2 -12,-6 -2,-4 -4,-9 -4,-15 0,-3 0,-5 2,-7 1,-3 2,-5 4,-8l255 -461zm176 307l-151 -276 -151 276 303 0zm580 158c2,2 4,4 4,6 1,2 1,4 2,7 0,4 -2,8 -4,10 -3,2 -7,4 -12,4 -3,0 -5,0 -7,-2 -2,-1 -5,-3 -7,-6l-213 -192 -70 39 0 139c0,7 -2,12 -6,15 -4,3 -8,5 -12,5 -4,0 -8,-2 -12,-5 -4,-3 -6,-8 -6,-15l0 -475c0,-6 2,-11 7,-14 5,-3 9,-5 13,-5 4,0 8,2 12,5 4,3 6,8 6,14l0 306 290 -169c2,-1 4,-1 6,-1 4,0 7,2 10,5 3,3 4,6 4,10 0,4 -3,8 -8,11l-203 121 209 186zm320 -320c5,0 8,1 10,3 2,2 3,5 3,8 0,3 -1,5 -3,8 -2,2 -6,3 -10,3l-154 0 0 196c0,23 2,41 7,55 5,14 11,25 19,32 8,8 17,13 28,15 11,3 22,4 34,4 15,0 29,-3 43,-8 14,-5 31,-13 49,-23 4,-2 7,-3 11,-3 4,0 7,1 9,3 2,2 3,5 3,9 0,6 -3,11 -10,15 -13,7 -24,13 -34,17 -10,4 -19,8 -28,10 -9,3 -17,4 -25,5 -8,1 -16,1 -25,1 -17,0 -32,-2 -46,-7 -14,-5 -27,-12 -38,-22 -11,-10 -19,-24 -25,-41 -6,-17 -9,-38 -9,-63l0 -196 -41 0c-4,0 -8,-1 -10,-3 -2,-2 -3,-5 -3,-8 0,-3 1,-5 3,-8 2,-2 5,-3 10,-3l41 0 0 -115c0,-10 2,-16 6,-19 4,-3 8,-4 12,-4 5,0 10,1 13,4 3,3 5,9 5,19l0 115 154 0zm488 283c-6,8 -15,15 -25,24 -10,8 -22,15 -37,22 -15,7 -32,12 -52,17 -20,4 -43,7 -68,7 -33,0 -61,-3 -85,-9 -23,-6 -42,-16 -57,-30 -15,-13 -26,-31 -32,-51 -7,-21 -10,-46 -10,-75l0 -160c0,-4 0,-8 1,-12 0,-4 1,-8 3,-11 1,-3 3,-6 6,-8 3,-2 6,-3 10,-3 5,0 8,1 11,3 3,2 4,5 5,8 1,3 2,7 2,11 0,4 0,8 0,12l0 160c0,26 2,48 6,65 4,18 12,32 23,43 11,11 26,18 45,23 19,5 43,7 73,7 21,0 42,-2 60,-5 18,-4 35,-8 50,-14 15,-6 29,-12 41,-19 12,-7 22,-14 31,-21l0 -240c0,-4 0,-8 0,-12 0,-4 1,-8 2,-11 1,-3 3,-6 5,-8 2,-2 6,-3 9,-3 5,0 8,1 11,3 3,2 5,5 6,8 1,3 2,7 3,11 0,4 0,8 0,12l0 289c0,4 0,8 -1,12 0,4 -1,7 -3,10 -1,3 -3,6 -5,7 -2,2 -5,3 -9,3 -9,0 -14,-3 -16,-9 -2,-6 -3,-12 -3,-19l0 -4 0 -33zm210 -39c0,15 4,27 11,38 8,10 18,18 32,25 14,6 30,11 49,14 19,3 39,4 61,4 27,0 51,-2 72,-6 21,-4 39,-9 55,-14 16,-6 29,-12 40,-19 11,-7 20,-14 27,-20l0 -92c-31,-5 -63,-9 -96,-14 -33,-4 -66,-6 -100,-6 -24,0 -45,1 -64,4 -19,3 -34,8 -47,14 -13,7 -23,16 -30,28 -7,12 -10,26 -10,44zm197 -233c-30,0 -55,1 -76,2 -21,1 -39,3 -54,6 -15,2 -27,5 -38,8 -10,3 -19,6 -27,8 -4,0 -7,-2 -10,-6 -3,-4 -5,-8 -5,-12 0,-4 2,-7 6,-9 3,-1 8,-3 17,-6 9,-3 22,-6 38,-9 17,-3 37,-6 62,-8 24,-2 53,-3 87,-3 16,0 31,1 47,3 15,2 30,6 44,11 14,5 27,12 38,22 12,9 22,21 31,36 9,15 15,32 20,53 5,21 7,45 7,73l0 133c0,4 0,7 0,11 0,4 -1,7 -3,10 -1,3 -3,6 -6,8 -3,2 -6,3 -10,3 -7,0 -12,-3 -15,-10 -3,-6 -4,-15 -4,-24l0 -32c-6,8 -14,16 -24,24 -10,8 -22,16 -37,23 -15,7 -33,12 -54,17 -21,4 -46,7 -75,7 -27,0 -52,-2 -76,-6 -24,-4 -44,-10 -61,-19 -18,-9 -31,-20 -41,-33 -10,-14 -15,-30 -15,-49 0,-22 5,-41 14,-56 9,-15 22,-27 39,-36 17,-9 36,-15 58,-19 22,-4 47,-6 73,-6 19,0 39,0 58,0 20,0 38,2 56,5 18,3 34,7 48,11 15,5 27,10 37,16 0,-32 -4,-58 -12,-77 -8,-19 -19,-35 -33,-46 -14,-11 -30,-18 -48,-22 -18,-4 -37,-5 -56,-5zm367 304c0,9 -1,17 -3,23 -2,6 -7,9 -15,9 -5,0 -8,-1 -11,-3 -2,-2 -4,-4 -6,-7 -1,-3 -2,-6 -2,-10 0,-4 0,-8 0,-12l0 -451c0,-5 0,-9 0,-13 0,-4 1,-7 3,-10 1,-3 3,-5 6,-7 3,-2 6,-3 11,-3 4,0 7,1 9,3 2,2 4,4 5,7 1,3 2,7 2,10 0,4 0,8 0,12l0 451zm558 -1c0,4 0,8 -1,12 -1,4 -2,8 -3,11 -1,3 -3,6 -6,8 -3,2 -6,3 -9,3 -5,0 -8,-1 -10,-3 -2,-2 -4,-5 -5,-8 -1,-3 -2,-7 -2,-11 0,-4 0,-8 0,-12l0 -160c0,-24 -2,-45 -5,-63 -3,-18 -10,-33 -21,-45 -10,-12 -25,-21 -43,-27 -18,-6 -42,-9 -72,-9 -18,0 -38,1 -58,4 -20,3 -40,8 -58,15 -18,7 -35,17 -49,29 -14,12 -24,27 -30,45l0 209c0,4 0,8 0,12 0,4 -1,8 -2,11 -1,3 -3,6 -5,8 -2,2 -5,3 -9,3 -4,0 -8,-1 -10,-3 -3,-2 -5,-5 -6,-8 -1,-3 -2,-7 -3,-11 0,-4 -1,-8 -1,-12l0 -300c0,-5 1,-10 3,-15 2,-4 8,-7 16,-7 8,0 12,2 15,6 2,4 3,9 3,15l0 58c9,-20 21,-36 36,-48 15,-12 32,-21 51,-27 18,-6 37,-10 56,-12 19,-2 36,-3 52,-3 33,0 61,3 84,9 23,6 41,15 55,28 14,13 24,31 30,53 6,22 9,49 9,81l0 160zm355 38c-43,0 -79,-4 -108,-13 -29,-8 -53,-21 -71,-36 -18,-16 -31,-35 -39,-57 -8,-22 -12,-48 -12,-76 0,-33 5,-61 14,-84 9,-23 23,-43 42,-58 19,-15 43,-26 72,-33 29,-7 63,-11 103,-11 40,0 74,3 103,11 29,7 53,18 72,33 19,15 33,34 42,58 9,23 14,51 14,84 0,28 -4,54 -12,76 -8,23 -21,42 -39,57 -18,16 -42,28 -71,36 -29,9 -65,13 -108,13zm0 -27c28,0 52,-2 73,-6 20,-4 38,-10 52,-17 14,-7 26,-16 35,-26 9,-10 16,-21 21,-32 5,-12 8,-24 10,-36 2,-13 3,-25 3,-38 0,-29 -4,-53 -11,-73 -7,-20 -19,-37 -35,-49 -16,-13 -36,-22 -60,-27 -24,-6 -53,-9 -87,-9 -34,0 -63,3 -87,9 -24,6 -44,15 -60,27 -16,13 -27,29 -35,49 -7,20 -11,44 -11,73 0,13 1,25 3,38 2,12 5,24 10,36 5,12 12,22 21,32 9,10 20,18 35,26 14,7 32,13 52,17 20,4 45,6 73,6zm746 -76c0,-17 -6,-29 -17,-38 -12,-9 -27,-16 -46,-20 -19,-4 -40,-6 -65,-6 -24,0 -49,0 -74,0 -25,0 -50,-1 -74,-3 -24,-2 -46,-6 -65,-13 -19,-6 -34,-16 -46,-28 -12,-12 -17,-29 -17,-49 0,-22 6,-39 17,-53 12,-14 27,-25 46,-33 19,-8 40,-14 64,-17 24,-3 48,-5 73,-5 40,0 78,3 113,10 35,7 67,18 97,34 3,1 5,3 6,6 1,2 2,5 2,7 0,4 -1,7 -4,11 -3,3 -5,5 -8,5 -2,0 -3,0 -4,-1 -26,-13 -56,-24 -89,-32 -33,-8 -70,-12 -112,-12 -21,0 -41,1 -61,4 -20,3 -37,7 -52,13 -15,6 -28,14 -37,25 -9,10 -14,23 -14,38 0,16 6,28 17,36 12,9 27,15 46,19 19,4 41,6 65,6 24,0 49,0 74,0 25,0 50,1 74,3 24,2 46,7 65,14 19,7 34,16 46,29 12,13 17,29 17,51 0,19 -6,35 -18,48 -12,13 -27,24 -47,32 -19,8 -42,14 -67,17 -25,4 -52,5 -79,5 -17,0 -35,0 -54,0 -19,0 -39,-1 -58,-4 -19,-3 -38,-8 -55,-14 -18,-6 -33,-15 -47,-25 -4,-3 -6,-8 -6,-12 0,-4 1,-8 3,-11 2,-3 5,-4 9,-4 3,0 4,1 6,2 13,9 27,17 42,23 15,6 31,10 47,14 17,3 34,5 52,5 18,0 37,0 56,0 23,0 46,-1 67,-3 21,-2 40,-6 57,-12 17,-6 30,-13 40,-23 10,-9 15,-21 15,-36zm-144 -492c3,-3 7,-5 12,-5 3,0 7,1 10,3 3,2 7,4 9,6 3,3 5,6 7,9 2,3 3,7 3,10 0,5 -2,9 -7,13l-135 110c-3,2 -5,2 -7,2 -3,0 -6,-1 -9,-3 -2,-2 -4,-5 -4,-9 0,-3 1,-6 4,-8l117 -128zm523 255c-36,0 -66,3 -91,9 -25,6 -46,15 -61,28 -16,13 -27,29 -35,49 -7,20 -11,44 -11,72 0,28 4,52 12,72 8,20 20,36 37,48 16,12 37,21 62,27 25,6 54,8 87,8 15,0 30,-1 45,-3 15,-2 30,-5 44,-8 14,-3 27,-7 39,-11 12,-4 21,-8 29,-12 5,-2 8,-2 10,-2 4,0 7,1 9,3 2,2 3,5 3,9 0,2 -1,5 -2,8 -2,3 -4,5 -7,7 -27,14 -55,24 -84,29 -29,5 -57,8 -84,8 -35,0 -67,-3 -96,-8 -29,-6 -54,-15 -74,-29 -21,-14 -37,-33 -48,-56 -11,-23 -17,-53 -17,-89 0,-36 5,-66 16,-89 11,-24 26,-43 46,-57 20,-14 45,-24 74,-30 29,-6 62,-9 100,-9 27,0 55,3 84,8 29,5 57,15 84,29 3,2 6,4 7,7 2,3 2,5 2,8 0,3 -1,6 -3,9 -2,2 -6,3 -9,3 -2,0 -5,-1 -10,-2 -7,-4 -17,-8 -29,-12 -12,-4 -25,-8 -39,-11 -14,-3 -28,-6 -44,-8 -15,-2 -30,-3 -45,-3zm350 307c0,4 0,8 0,11 0,4 -1,7 -2,9 -1,3 -3,5 -5,6 -2,2 -6,2 -11,2 -9,0 -14,-3 -16,-8 -2,-5 -3,-12 -3,-21l0 -297c0,-8 1,-14 3,-20 2,-6 8,-8 16,-8 8,0 13,3 15,8 2,6 3,12 3,19l0 298zm-43 -430c0,-7 2,-13 7,-18 5,-5 10,-7 18,-7 7,0 13,2 18,7 5,5 7,11 7,18 0,7 -2,13 -7,17 -5,4 -11,6 -18,6 -7,0 -13,-2 -18,-6 -5,-4 -7,-10 -7,-17z"/>
 </g>
</svg>
