<?xml version="1.0" encoding="UTF-8"?>
<!DOCTYPE svg PUBLIC "-//W3C//DTD SVG 1.1//EN" "http://www.w3.org/Graphics/SVG/1.1/DTD/svg11.dtd">
<!-- Creator: CorelDRAW -->
<svg xmlns="http://www.w3.org/2000/svg" xml:space="preserve" width="10mm" height="15mm" style="shape-rendering:geometricPrecision; text-rendering:geometricPrecision; image-rendering:optimizeQuality; fill-rule:evenodd; clip-rule:evenodd"
viewBox="0 0 10 15"
 xmlns:xlink="http://www.w3.org/1999/xlink">
 <defs>
  <style type="text/css">
   <![CDATA[
    .fil0 {fill:none}
    .fil1 {fill:white;fill-rule:nonzero}
   ]]>
  </style>
 </defs>
 <g id="Layer_x0020_1">
  <metadata id="CorelCorpID_0Corel-Layer"/>
  <path class="fil0" d="M9.1544 9.253c-0.6379,0 -1.2551,-0.1037 -1.8309,-0.2905 -0.1815,-0.0624 -0.3838,-0.0155 -0.5237,0.1244l-0.8143 1.0217c-1.4678,-0.7002 -2.8421,-2.0227 -3.5734,-3.5423l1.0112 -0.8609c0.14,-0.1452 0.1816,-0.3475 0.1245,-0.529 -0.1919,-0.5758 -0.2905,-1.1928 -0.2905,-1.8309 0,-0.2801 -0.2334,-0.5133 -0.5134,-0.5133l-1.7943 0.0002c-0.2801,-0.0002 -0.6173,0.1242 -0.6173,0.5133 0,4.8182 4.0092,8.8221 8.8221,8.8221 0.3683,0 0.5133,-0.3268 0.5133,-0.612l0 -1.7893c0,-0.2801 -0.2334,-0.5133 -0.5133,-0.5133l0 -0.0002z"/>
  <path class="fil1" d="M9.1458 9.1044l0 -0.0007 0.0085 0 0.1492 0 0 0.0179c0.1214,0.0289 0.2313,0.0918 0.3169,0.1772 0.1198,0.1196 0.1953,0.2855 0.1958,0.4661l0.0007 0 0 0.0016 0 1.7894 0 0.0055 -0.0007 0.0007c-0.0009,0.168 -0.0459,0.3497 -0.1453,0.4918 -0.1074,0.1535 -0.2749,0.2612 -0.5124,0.2623l-0.0007 0.0007 -0.0035 0 -0.0032 0 0 -0.0007c-2.4457,-0.0009 -4.6874,-1.0178 -6.3169,-2.6465 -1.6305,-1.6295 -2.6499,-3.8726 -2.6504,-6.3224l-0.0007 0 0 -0.0016 0 -0.0044 0.0007 -0.0007c0.0014,-0.2488 0.112,-0.4156 0.2678,-0.52 0.1451,-0.0976 0.3293,-0.1363 0.4948,-0.1368l0 -0.0007 0.0032 0 1.7945 0 0.0032 0 0.0007 0.0007c0.179,0.0011 0.3431,0.0757 0.4619,0.1939 0.1196,0.1194 0.1953,0.2853 0.1958,0.4661l0.0007 0 0 0.0016c0,0.4464 0.0493,0.8815 0.1455,1.2971 0.0186,0.0804 0.0399,0.1616 0.0619,0.2417 0.0218,0.0778 0.0464,0.1577 0.0728,0.2375l0.0021 0.0062 0.0013 0.0042c0.0514,0.1643 0.0397,0.3428 -0.0358,0.4991l-0.0002 0c-0.0156,0.0324 -0.0328,0.0622 -0.0512,0.0888 -0.0188,0.0278 -0.0413,0.0556 -0.0665,0.0824l-0.0005 0.0007 -0.0046 0.0048 -0.0027 0.0032 -0.009 0.0074 -0.923 0.7858c0.5191,1.0306 1.3389,1.9638 2.2761,2.6578 0.1896,0.1404 0.3831,0.2703 0.5774,0.3883 0.1628,0.0987 0.3271,0.1891 0.4932,0.2722l0.7399 -0.9284 0.0071 -0.0091 0.0039 -0.0037c0.1276,-0.1276 0.2972,-0.1948 0.4691,-0.1944l0 -0.0007c0.0319,0 0.0664,0.0032 0.1015,0.0087 0.0323,0.0051 0.0663,0.0136 0.1003,0.0248l0.0023 0.0005 0.0041 0.0014c0.2325,0.0752 0.4723,0.137 0.7165,0.1829l0 -0.0003 0.1487 0.026 0 0.0002c0.2976,0.0477 0.602,0.0737 0.9092,0.0739zm-0.1406 0.2947c-0.278,-0.0069 -0.5511,-0.0321 -0.817,-0.0751l-0.0016 0 -0.1488 -0.0259 -0.0023 -0.0007c-0.2586,-0.0486 -0.512,-0.1138 -0.7573,-0.1932l-0.0034 -0.0012 -0.0053 -0.0018 0.0002 -0.0005c-0.016,-0.005 -0.0335,-0.0091 -0.0518,-0.0119 -0.0166,-0.0025 -0.0349,-0.0041 -0.0547,-0.0041l0 -0.0007c-0.0908,-0.0002 -0.1822,0.0351 -0.2524,0.1026l-0.8088 1.0148 -0.0729 0.0913 -0.1061 -0.0488 -0.0029 -0.0014 -0.0017 -0.0012c-0.2097,-0.1003 -0.4181,-0.2132 -0.6221,-0.3366 -0.2052,-0.1244 -0.4065,-0.2596 -0.6008,-0.4035 -1.0052,-0.7445 -1.881,-1.7552 -2.4176,-2.8701l-0.0495 -0.1032 0.0874 -0.0746 1.0027 -0.8538 0.0016 -0.0016 0.0002 0.0003 0.0005 -0.0005 0.0016 -0.0014c0.0121,-0.0133 0.0236,-0.0287 0.0344,-0.0443 0.0122,-0.0176 0.0223,-0.0348 0.0294,-0.0495l0 -0.0007c0.042,-0.0868 0.0484,-0.1875 0.0195,-0.2805l-0.0016 -0.0046 -0.0007 -0.0018c-0.0266,-0.0808 -0.0526,-0.1648 -0.0764,-0.2504l0 -0.0004c-0.0232,-0.0838 -0.0455,-0.1689 -0.0652,-0.255 -0.1017,-0.4393 -0.1538,-0.8966 -0.1538,-1.3637l0 -0.0016 0.0007 0c-0.0002,-0.098 -0.0424,-0.1889 -0.1085,-0.2549 -0.0659,-0.0657 -0.1561,-0.1075 -0.2529,-0.1081l0 0.0006 -0.0032 0 -1.7945 0 -0.0032 0 0 -0.0006c-0.1134,0.0002 -0.2373,0.025 -0.3291,0.0867 -0.0789,0.053 -0.1356,0.1407 -0.1365,0.2738l0.0006 0 0 0.0044 0 0.0016 -0.0006 0c0.0002,2.367 0.9861,4.5353 2.5632,6.1112 1.5764,1.5757 3.7438,2.5601 6.1071,2.5607l0 -0.0006 0.0032 0 0.0035 0 0 0.0006c0.126,-0.0006 0.2139,-0.0566 0.2694,-0.1356 0.0627,-0.0895 0.0911,-0.2093 0.092,-0.3222l-0.0006 0 0 -0.0055 0 -1.7894 0 -0.0016 0.0006 0c-0.0002,-0.0978 -0.0424,-0.1889 -0.1085,-0.255 -0.0659,-0.0658 -0.1561,-0.1076 -0.2531,-0.1083l0 0.0007 -0.0033 0 -0.1491 0 0 -0.0032z"/>
 </g>
</svg>
