<?xml version="1.0" encoding="UTF-8"?>
<!DOCTYPE svg PUBLIC "-//W3C//DTD SVG 1.1//EN" "http://www.w3.org/Graphics/SVG/1.1/DTD/svg11.dtd">
<!-- Creator: CorelDRAW -->
<svg xmlns="http://www.w3.org/2000/svg" xml:space="preserve" width="29mm" height="31mm" style="shape-rendering:geometricPrecision; text-rendering:geometricPrecision; image-rendering:optimizeQuality; fill-rule:evenodd; clip-rule:evenodd"
viewBox="0 0 29 31"
 xmlns:xlink="http://www.w3.org/1999/xlink">
 <defs>
  <style type="text/css">
   <![CDATA[
    .fil3 {fill:#969594}
    .fil0 {fill:#8B0002}
    .fil1 {fill:#969594;fill-rule:nonzero}
    .fil2 {fill:#8B0002;fill-rule:nonzero}
   ]]>
  </style>
 </defs>
 <g id="Layer_x0020_1">
  <metadata id="CorelCorpID_0Corel-Layer"/>
  <g id="_101388504">
   <rect id="_196316000" class="fil0" x="0.120643" y="9.54401e-005" width="28.7588" height="30.9999"/>
   <path id="_196315928" class="fil1" d="M14.6003 9.5198c0.2915,0 0.579,0.0183 0.8613,0.0537 0.271,0.034 0.5371,0.0839 0.7975,0.1485l0.4523 -0.8698 0.0287 -0.0551 0.0551 0.0286 1.1841 0.6147 0.0556 0.0288 -0.0288 0.0552 -0.3662 0.7032c0.1537,0.0759 0.3041,0.1572 0.4507,0.2437 0.1513,0.0892 0.2983,0.1836 0.4405,0.2826l0.5802 -0.6385 0.0418 -0.046 0.0461 0.0419 0.9875 0.8965 0.046 0.0418 -0.0419 0.0461 -0.5567 0.6127c0.1018,0.1087 0.2004,0.2212 0.2958,0.3372 0.0966,0.1175 0.1888,0.2375 0.2767,0.3598l0.7992 -0.3953 0.0556 -0.0275 0.0276 0.0557 0.5921 1.1959 0.0275 0.0557 -0.0558 0.0276 -0.7238 0.3579c0.0598,0.1372 0.1151,0.2755 0.1653,0.4148 0.0505,0.14 0.0968,0.2833 0.1389,0.4298l1.0093 -0.1039 0.0618 -0.0064 0.0064 0.0619 0.1374 1.3275 0.0064 0.0619 -0.0619 0.0063 -0.9075 0.0932c0.0043,0.0654 0.0078,0.1324 0.0104,0.2011 0.0033,0.0851 0.0049,0.1713 0.0049,0.2585 0,0.0833 -0.0015,0.1654 -0.0045,0.2464 -0.0024,0.0661 -0.0057,0.1305 -0.0097,0.1932l0.9545 0.2586 0.0603 0.0164 -0.0162 0.0598 -0.3482 1.2884 -0.0163 0.0603 -0.0599 -0.0162 -0.8226 -0.223c-0.0463,0.1625 -0.0986,0.323 -0.1566,0.4812 -0.0584,0.1593 -0.1226,0.3161 -0.1924,0.4699l0.7441 0.3748 0.0555 0.0279 -0.028 0.0556 -0.5995 1.1923 -0.0279 0.0555 -0.0556 -0.028 -0.8295 -0.418c-0.086,0.1162 -0.1755,0.2296 -0.2684,0.34 -0.0911,0.1083 -0.1868,0.2151 -0.2868,0.3201l0.5485 0.6742 0.0392 0.0482 -0.0482 0.0392 -1.0347 0.8428 -0.0482 0.0392 -0.0392 -0.0482 -0.5289 -0.6506c-0.1239,0.0846 -0.2509,0.1655 -0.3809,0.2425 -0.1297,0.0768 -0.2626,0.1497 -0.3984,0.2184l0.2428 0.8301 0.0174 0.0595 -0.0597 0.0175 -1.2808 0.3748 -0.0595 0.0174 -0.0174 -0.0598 -0.2108 -0.7218c-0.2698,0.0702 -0.5464,0.1246 -0.829,0.1619 -0.2971,0.0394 -0.5991,0.0597 -0.9046,0.0597 -0.2871,0 -0.5702,-0.0178 -0.8484,-0.0522 -0.264,-0.0327 -0.5238,-0.0805 -0.7783,-0.1425l-0.2577 0.7392 -0.0204 0.0587 -0.0587 -0.0204 -1.2601 -0.439 -0.0588 -0.0204 0.0206 -0.0587 0.2629 -0.7531c-0.1382,-0.0671 -0.274,-0.1388 -0.4073,-0.2147 -0.1352,-0.0771 -0.2669,-0.1582 -0.3949,-0.2431l-0.6349 0.6318 -0.044 0.0438 -0.0439 -0.044 -0.9416 -0.9451 -0.0438 -0.044 0.0441 -0.0439 0.5353 -0.5323c-0.1122,-0.1147 -0.2196,-0.2323 -0.3219,-0.3525 -0.1045,-0.1227 -0.2054,-0.2499 -0.3022,-0.3812l-0.6493 0.3505 -0.0546 0.0295 -0.0296 -0.0548 -0.6347 -1.1733 -0.0296 -0.0547 0.0549 -0.0296 0.6049 -0.3261c-0.0632,-0.1401 -0.1222,-0.2834 -0.1767,-0.4296 -0.0552,-0.1481 -0.1052,-0.2974 -0.1497,-0.4476l-0.8876 0.0481 -0.0621 0.0034 -0.0034 -0.0623 -0.0733 -1.332 -0.0035 -0.0624 0.0626 -0.0033 0.7038 -0.0378c-0.0051,-0.0712 -0.0093,-0.1442 -0.0124,-0.219 -0.004,-0.0939 -0.006,-0.1891 -0.006,-0.2856 0,-0.0879 0.0017,-0.1748 0.005,-0.2605 0.0027,-0.0706 0.0063,-0.1393 0.0108,-0.2063l-0.6362 -0.0808 -0.0616 -0.0078 0.0078 -0.0616 0.1669 -1.3237 0.0078 -0.0617 0.0616 0.0079 0.7063 0.0902c0.0486,-0.1688 0.1037,-0.3353 0.1649,-0.4991 0.0612,-0.1636 0.128,-0.3238 0.2004,-0.4803l-0.6415 -0.339 -0.055 -0.029 0.0289 -0.0549 0.6221 -1.1804 0.029 -0.0551 0.055 0.0291 0.7114 0.3763c0.0917,-0.122 0.1872,-0.2407 0.2862,-0.3559 0.0992,-0.1152 0.2021,-0.2272 0.3086,-0.3357l-0.458 -0.6042 -0.0375 -0.0496 0.0495 -0.0376 1.0622 -0.807 0.0497 -0.0377 0.0378 0.0499 0.4217 0.5572c0.1282,-0.0849 0.2601,-0.166 0.3953,-0.2431 0.1354,-0.0771 0.2734,-0.1497 0.414,-0.2176l-0.2255 -0.7291 -0.0183 -0.0592 0.0595 -0.0185 1.2741 -0.3953 0.0593 -0.0184 0.0183 0.0595 0.2067 0.6696c0.2519,-0.0607 0.5089,-0.1075 0.77,-0.1395 0.2765,-0.0339 0.5578,-0.0514 0.8431,-0.0514zm0.8462 0.1774c-0.2772,-0.0348 -0.5596,-0.0527 -0.8462,-0.0527 -0.2804,0 -0.5568,0.0171 -0.8281,0.0504 -0.2763,0.0339 -0.5473,0.0844 -0.812,0.1506l-0.0571 0.0143 -0.0174 -0.0564 -0.2056 -0.6662 -1.1553 0.3585 0.2229 0.721 0.0159 0.0515 -0.0488 0.023c-0.1548,0.0733 -0.3064,0.1523 -0.4543,0.2366 -0.1481,0.0844 -0.2936,0.1748 -0.4361,0.2709l-0.0488 0.033 -0.0357 -0.0471 -0.4194 -0.5541 -0.9632 0.7317 0.4529 0.5974 0.0326 0.043 -0.0382 0.0383c-0.1179,0.1183 -0.2314,0.2409 -0.3403,0.3675 -0.1091,0.1268 -0.2135,0.2575 -0.3128,0.3918l-0.0318 0.0429 -0.0471 -0.0249 -0.7034 -0.372 -0.5641 1.0703 0.639 0.3375 0.0527 0.0279 -0.0254 0.0537c-0.0813,0.1718 -0.1553,0.3467 -0.2217,0.5245 -0.0659,0.1765 -0.1248,0.3568 -0.1762,0.5406l-0.0145 0.0518 -0.0532 -0.0068 -0.6977 -0.089 -0.1513 1.2004 0.6333 0.0804 0.059 0.0075 -0.0044 0.0587c-0.0068,0.0888 -0.0118,0.1756 -0.0151,0.2603 -0.0032,0.0857 -0.005,0.1712 -0.005,0.2561 0,0.0932 0.0021,0.1869 0.006,0.2808 0.0038,0.0904 0.0097,0.1831 0.0175,0.2778l0.0052 0.0637 -0.0644 0.0035 -0.7054 0.0379 0.0665 1.2073 0.8747 -0.0474 0.0493 -0.0027 0.0138 0.048c0.0478,0.1662 0.1014,0.3283 0.1602,0.4862 0.0596,0.16 0.1256,0.3181 0.1976,0.474l0.0245 0.0531 -0.0515 0.0278 -0.6014 0.3242 0.5755 1.0638 0.6423 -0.3467 0.0479 -0.0259 0.032 0.0441c0.1035,0.1427 0.2132,0.282 0.3285,0.4175 0.1157,0.1358 0.2354,0.2659 0.3588,0.3898l0.0439 0.0441 -0.0441 0.0438 -0.5352 0.5322 0.8539 0.857 0.627 -0.624 0.0362 -0.0361 0.0424 0.0285c0.1403,0.0946 0.2835,0.1836 0.4292,0.2667 0.1464,0.0834 0.2964,0.1617 0.4495,0.2345l0.0505 0.024 -0.0184 0.0527 -0.2608 0.7469 1.1427 0.3981 0.256 -0.7342 0.0187 -0.0538 0.055 0.0139c0.2667,0.0673 0.5398,0.1187 0.8182,0.1532 0.2731,0.0338 0.5512,0.0513 0.8334,0.0513 0.3022,0 0.5987,-0.0199 0.8886,-0.0582 0.2961,-0.0392 0.5871,-0.0979 0.8715,-0.1747l0.0586 -0.0158 0.0171 0.0587 0.2104 0.7205 1.1616 -0.34 -0.24 -0.8203 -0.0146 -0.0498 0.0467 -0.0232c0.1483,-0.0737 0.2941,-0.153 0.4368,-0.2375 0.1433,-0.0848 0.2836,-0.175 0.4205,-0.2702l0.0473 -0.0329 0.0365 0.0448 0.5259 0.6469 0.9384 -0.7642 -0.544 -0.6687 -0.0349 -0.0428 0.0385 -0.0398c0.1088,-0.1123 0.2152,-0.2304 0.3188,-0.3536 0.1024,-0.1218 0.2006,-0.2471 0.2944,-0.3758l0.031 -0.0426 0.0474 0.0239 0.821 0.4137 0.5436 -1.0811 -0.7421 -0.3738 -0.0538 -0.027 0.0253 -0.0546c0.0779,-0.1679 0.1492,-0.3398 0.2136,-0.5153 0.0635,-0.1733 0.1203,-0.3504 0.17,-0.5309l0.0165 -0.06 0.0597 0.0162 0.822 0.2229 0.3158 -1.1682 -0.9439 -0.2557 -0.0499 -0.0135 0.0036 -0.051c0.0058,-0.082 0.0102,-0.1621 0.0131,-0.24 0.0029,-0.081 0.0045,-0.1617 0.0045,-0.242 0,-0.0842 -0.0017,-0.169 -0.0049,-0.2541 -0.0032,-0.0834 -0.0081,-0.1691 -0.0147,-0.2565l-0.0045 -0.0603 0.0605 -0.0062 0.9058 -0.093 -0.1246 -1.2039 -0.9994 0.1029 -0.0521 0.0054 -0.0142 -0.0507c-0.0441,-0.1581 -0.0944,-0.3154 -0.1508,-0.4716 -0.0568,-0.1578 -0.1188,-0.3114 -0.1854,-0.4608l-0.0244 -0.0546 0.0536 -0.0265 0.7213 -0.3566 -0.5369 -1.0845 -0.7908 0.3913 -0.0477 0.0236 -0.0307 -0.0436c-0.0966,-0.1365 -0.1973,-0.2687 -0.3019,-0.396 -0.1049,-0.1276 -0.2149,-0.2518 -0.3297,-0.3724l-0.0399 -0.0419 0.039 -0.0428 0.5535 -0.6092 -0.8954 -0.8129 -0.5753 0.6331 -0.0371 0.0408 -0.0449 -0.0318c-0.1553,-0.1099 -0.3144,-0.213 -0.4769,-0.3089 -0.1625,-0.0958 -0.329,-0.185 -0.4992,-0.267l-0.0578 -0.0279 0.0296 -0.0568 0.3669 -0.7046 -1.0735 -0.5573 -0.4464 0.8583 -0.0228 0.0439 -0.0478 -0.0122c-0.2706,-0.0693 -0.5476,-0.1222 -0.8298,-0.1576zm3.3565 2.5202c-0.5493,-0.5493 -1.2049,-0.9922 -1.9324,-1.2944 -0.7,-0.2908 -1.467,-0.4515 -2.2703,-0.4515 -0.8034,0 -1.5704,0.1607 -2.2705,0.4515 -0.7274,0.3021 -1.383,0.7451 -1.9322,1.2944 -0.5494,0.5493 -0.9923,1.2049 -1.2945,1.9324 -0.2908,0.7 -0.4514,1.4669 -0.4514,2.2703 0,0.8034 0.1606,1.5703 0.4514,2.2703 0.3022,0.7275 0.7452,1.3831 1.2945,1.9324 0.5493,0.5494 1.2048,0.9922 1.9323,1.2944 0.7,0.2908 1.467,0.4514 2.2704,0.4514 0.8033,0 1.5703,-0.1607 2.2703,-0.4514 0.7275,-0.3022 1.3831,-0.7452 1.9324,-1.2945 0.5493,-0.5493 0.9922,-1.2048 1.2943,-1.9323 0.2908,-0.6999 0.4514,-1.4669 0.4514,-2.2703 0,-0.8034 -0.1606,-1.5704 -0.4514,-2.2704 -0.3021,-0.7274 -0.745,-1.383 -1.2943,-1.9323zm-1.8847 -1.4094c0.743,0.3087 1.4123,0.7608 1.9728,1.3213 0.5605,0.5604 1.0125,1.2297 1.3212,1.9727 0.297,0.7151 0.4611,1.4982 0.4611,2.3181 0,0.8199 -0.1641,1.603 -0.4611,2.318 -0.3086,0.743 -0.7607,1.4123 -1.3212,1.9728 -0.5605,0.5604 -1.2298,1.0125 -1.9728,1.3212 -0.7151,0.297 -1.4982,0.4612 -2.318,0.4612 -0.8199,0 -1.603,-0.1641 -2.3181,-0.4612 -0.743,-0.3086 -1.4123,-0.7606 -1.9728,-1.3211 -0.5605,-0.5605 -1.0126,-1.2298 -1.3212,-1.9728 -0.2971,-0.7151 -0.4612,-1.4982 -0.4612,-2.3181 0,-0.8199 0.1641,-1.603 0.4612,-2.318 0.3086,-0.7431 0.7607,-1.4123 1.3212,-1.9728 0.5605,-0.5606 1.2297,-1.0126 1.9727,-1.3213 0.7151,-0.297 1.4983,-0.4611 2.3182,-0.4611 0.8198,0 1.6029,0.1641 2.318,0.4611z"/>
   <path id="_196315856" class="fil1" d="M13.6784 10.1764l1.9837 0 0.1695 0 -0.0041 0.1693 -0.3743 15.1867 -0.0009 0.0379 -0.0185 0.0351c-0.0776,0.1474 -0.1434,0.277 -0.2012,0.391 -0.229,0.451 -0.3524,0.6942 -0.5605,0.6961 -0.2344,0.0022 -0.3752,-0.3159 -0.6804,-1.0059 -0.0116,-0.0262 -0.0235,-0.0532 -0.0357,-0.0807l-0.0133 -0.0301 -0.0009 -0.0319 -0.4288 -15.1976 -0.0048 -0.1699 0.1702 0z"/>
   <path id="_196315784" class="fil2" d="M15.4925 10.5072l-1.6439 0 0.423 14.9958c0.0076,0.0171 0.0151,0.034 0.0224,0.0506 0.2448,0.5532 0.3577,0.8083 0.3755,0.8081 0.0076,-0.0001 0.099,-0.18 0.2685,-0.5139 0.0547,-0.1079 0.1164,-0.2294 0.1854,-0.3612l0.3691 -14.9794z"/>
   <path id="_196315712" class="fil1" d="M11.0473 12.4739l7.2928 0 0.1558 0 0 0.1558 0 6.8102c0,0.2938 -0.12,0.5607 -0.3134,0.7541 -0.1934,0.1934 -0.4603,0.3134 -0.7541,0.3134l-1.8876 0c-0.011,0 -0.0212,-0.0001 -0.0319,-0.0002 -0.1694,-0.0014 -0.4807,-0.0042 -0.7075,0.5085l-0.1816 0.4106 -0.1118 -0.4349c-0.1256,-0.4891 -0.5283,-0.4854 -0.6759,-0.4841 -0.0085,0 -0.0163,0.0001 -0.0247,0.0001l-1.8214 0c-0.3012,0 -0.5749,-0.1231 -0.7732,-0.3214 -0.1983,-0.1983 -0.3214,-0.472 -0.3214,-0.7731l0 -6.7832 0 -0.1558 0.1559 0z"/>
   <polygon id="_196315640" class="fil1" points="16.9673,10.5072 12.3342,10.5072 12.1688,10.5072 12.1688,10.3418 12.1688,8.6258 12.1688,8.4604 12.3342,8.4604 16.9673,8.4604 17.1327,8.4604 17.1327,8.6258 17.1327,10.3418 17.1327,10.5072 "/>
   <polygon id="_196315568" class="fil2" points="12.4996,10.1764 16.8019,10.1764 16.8019,8.7912 12.4996,8.7912 "/>
   <path id="_196315496" class="fil3" d="M7.3262 16.1409l0 -2.1608c0,-0.31 0.0773,-0.4218 0.3583,-0.4218 0.5761,0 0.7939,0.4046 0.7939,1.3084 0,0.9298 -0.2669,1.2742 -0.9484,1.2742l-0.2038 0zm0.3303 -2.8926l-2.0656 0 0 0.2152c0.4637,0.0344 0.6112,0.2152 0.6112,0.7662l0 3.8223c0,0.5854 -0.1264,0.7919 -0.6182,0.8092l0 0.2238 2.3676 0 0 -0.2238c-0.534,-0.0258 -0.6253,-0.2324 -0.6253,-0.8092l0 -1.6013 0.6253 0c1.1451,0 1.7493,-0.6456 1.7493,-1.6184 0,-0.6198 -0.2669,-1.1192 -0.7517,-1.3773 -0.3654,-0.1981 -0.7868,-0.2067 -1.2926,-0.2067z"/>
   <path id="_196315424" class="fil3" d="M19.9529 19.0676l3.8755 0 0.2561 -1.9716 -0.1819 0c-0.3573,1.2601 -0.829,1.6201 -1.7592,1.6201 -0.4853,0 -0.5258,-0.1286 -0.5258,-0.7029l0 -2.0487 1.1189 -0.9945 0 -0.4715 -1.1189 0.9944 0 -1.2601c0,-0.6 0.1011,-0.7544 0.6875,-0.763l0 -0.2142 -2.3455 0 0 0.2142c0.4449,0.0257 0.5864,0.2143 0.5864,0.763l0 1.963 -0.7481 0.6602 0 0.4628 0.7481 -0.66 0 1.3801c0,0.583 -0.1213,0.7887 -0.5931,0.8058l0 0.2229z"/>
   <path id="_196315352" class="fil3" d="M16.3736 8.1741c0.6309,-1.8484 2.0636,-0.8463 3.0955,-1.403l0.1935 -0.4192c-0.351,0.0524 -0.7512,0.0481 -1.1597,0.0441 -0.3616,-0.0035 -0.7301,-0.0073 -1.0654,0.028 -0.8526,0.0897 -1.5316,0.4422 -1.4691,1.7501l0.4052 0zm3.3945 -2.0507l0.1578 -0.3419c-0.4655,0.0664 -1.025,0.0556 -1.5988,0.0448 -0.8254,-0.0155 -1.6809,-0.0316 -2.2905,0.1814 -0.7126,0.249 -1.0955,0.8343 -0.6954,2.1664l0.4204 0c-0.0708,-1.4602 0.6942,-1.8542 1.6548,-1.9552 0.3515,-0.0371 0.7233,-0.0333 1.0882,-0.0297 0.4559,0.0045 0.9013,0.0091 1.2635,-0.0658zm0.2623 -0.5685l0.1781 -0.3858c-0.8285,0.1011 -1.7749,0.0687 -2.6883,0.0377 -1.3508,-0.046 -2.6291,-0.0896 -3.2942,0.3031 -0.6084,0.3591 -0.6987,1.1204 0.1632,2.6642l0.7371 0c-0.4153,-1.4349 0.0311,-2.0773 0.8425,-2.361 0.6464,-0.2259 1.5193,-0.2095 2.3616,-0.1935 0.6238,0.0117 1.2305,0.0233 1.7,-0.0647zm0.2801 -0.6071l0.3612 -0.7823c-1.1394,0.6671 -3.1003,0.2697 -5.1708,0.0247 -2.405,-0.2845 -4.7572,0.6825 -2.5124,3.9839l1.1648 0c-0.8732,-1.6089 -0.7314,-2.4292 -0.0323,-2.8419 0.7177,-0.4236 2.0246,-0.3792 3.4058,-0.3322 0.9544,0.0324 1.9451,0.0663 2.7837,-0.0522z"/>
   <path id="_196315280" class="fil2" d="M18.1843 12.7856l-6.9812 0 0 6.6273c0,0.2151 0.0881,0.4108 0.2301,0.5528 0.1419,0.142 0.3376,0.2301 0.5528,0.2301l1.8214 0c0.0057,0 0.0137,-0.0001 0.0223,-0.0002 0.1756,-0.0016 0.6018,-0.0053 0.8503,0.4015 0.2878,-0.4061 0.63,-0.4033 0.8314,-0.4015 0.0106,0.0001 0.0209,0.0002 0.0294,0.0002l1.8876 0c0.2078,0 0.3967,-0.0851 0.5337,-0.2222 0.1371,-0.137 0.2222,-0.3259 0.2222,-0.5337l0 -6.6543z"/>
   <path id="_196315208" class="fil3" d="M11.7959 15.5347l0.4338 0 0.1795 0.2643 0.4787 0 0.4937 0.7679 2.513 0 0.4787 -0.7679 0.5236 0 0.2094 -0.5141 0.3291 0c-0.2101,1.3348 -0.5828,2.1697 -1.1518,2.5472l-2.9918 0c-0.7006,-0.3165 -1.1544,-1.143 -1.4959,-2.2974z"/>
   <path id="_196315064" class="fil3" d="M13.434 18.0748l0.0795 -0.1647 0.5741 -1.1899 1.1496 -2.3826 -0.1075 -0.05 0.0893 -0.1643 0.3976 0.1889 -0.0741 0.1535 -0.0939 -0.0405 -1.1164 2.295 -0.5789 1.1899 -0.1156 0.2376c0.0794,0.106 0.1144,0.2229 0.0631,0.3413l-0.495 1.0486 -0.5804 -0.2784 0.478 -1.0291c0.0539,-0.1157 0.2101,-0.1431 0.3306,-0.1553z"/>
  </g>
 </g>
</svg>
