<?xml version="1.0" encoding="UTF-8"?>
<!DOCTYPE svg PUBLIC "-//W3C//DTD SVG 1.1//EN" "http://www.w3.org/Graphics/SVG/1.1/DTD/svg11.dtd">
<!-- Creator: CorelDRAW -->
<svg xmlns="http://www.w3.org/2000/svg" xml:space="preserve" width="20mm" height="20mm" style="shape-rendering:geometricPrecision; text-rendering:geometricPrecision; image-rendering:optimizeQuality; fill-rule:evenodd; clip-rule:evenodd"
viewBox="0 0 20 20"
 xmlns:xlink="http://www.w3.org/1999/xlink">
 <defs>
  <style type="text/css">
   <![CDATA[
    .fil1 {fill:white}
    .fil0 {fill:#8B0002}
   ]]>
  </style>
 </defs>
 <g id="Layer_x0020_1">
  <metadata id="CorelCorpID_0Corel-Layer"/>
  <g id="_103551288">
   <rect id="_103490128" class="fil0" x="3.49039e-005" y="-3.40405e-005" width="20" height="20"/>
   <path id="_103175592" class="fil1" d="M5.5901 12.3503l0 0.1056c0,0.178 0.2501,0.2084 0.4073,0.0904 0.1395,-0.1047 0.2319,-0.2133 0.3518,-0.3348 0.2251,-0.2277 0.4846,-0.4316 0.7131,-0.6601 0.3112,-0.3112 1.2183,-1.0597 1.406,-1.3401 0.4789,0.2534 0.7333,0.8979 1.5317,0.8979 0.7996,0 1.0559,-0.6462 1.5317,-0.8979 0.1877,0.2804 1.0948,1.0289 1.406,1.3401 0.2285,0.2285 0.488,0.4324 0.7131,0.6601 0.1199,0.1215 0.2123,0.2301 0.3518,0.3348 0.1572,0.118 0.4073,0.0876 0.4073,-0.0904l0 -0.1056c0,-0.1817 -2.4774,-2.2661 -2.5232,-2.4688l4.3951 -3.8156 0.0295 0.2371 0 7.394c0,0.3562 -0.2909,0.6601 -0.6339,0.6601l-11.3548 0c-0.343,0 -0.6339,-0.3039 -0.6339,-0.6601l-0.0059 -7.3948 0.0421 -0.2481 4.4002 3.8138c-0.0576,0.2163 -2.535,2.3007 -2.535,2.4824zm4.3571 -1.7165c-0.4462,0 -1.2278,-0.8898 -1.5739,-1.1461 -0.4823,-0.3571 -0.9604,-0.9114 -1.4365,-1.257 -0.2692,-0.1954 -2.7812,-2.3901 -2.8784,-2.535 0.0998,-0.0233 0.1651,-0.0528 0.2906,-0.0528l11.302 0c0.1255,0 0.1908,0.0295 0.2906,0.0528 -0.1016,0.1516 -2.6036,2.3356 -2.8784,2.535 -0.4794,0.3481 -0.9711,0.9183 -1.4524,1.2675 -0.343,0.2491 -1.105,1.1356 -1.558,1.1356l-0.1056 0zm-6.7074 -4.5948l0 7.922c0.1452,0.209 0.0873,0.3159 0.3363,0.5616 0.1128,0.1115 0.4049,0.2834 0.6144,0.2834l11.619 0c0.2095,0 0.5016,-0.1719 0.6144,-0.2834 0.249,-0.2457 0.1911,-0.3526 0.3363,-0.5616l0 -7.922c-0.1452,-0.209 -0.0873,-0.3159 -0.3363,-0.5616 -0.1128,-0.1115 -0.4049,-0.2834 -0.6144,-0.2834l-11.619 0c-0.2095,0 -0.5016,0.1719 -0.6144,0.2834 -0.249,0.2457 -0.1911,0.3526 -0.3363,0.5616z"/>
  </g>
 </g>
</svg>
