<?xml version="1.0" encoding="UTF-8"?>
<!DOCTYPE svg PUBLIC "-//W3C//DTD SVG 1.1//EN" "http://www.w3.org/Graphics/SVG/1.1/DTD/svg11.dtd">
<!-- Creator: CorelDRAW -->
<svg xmlns="http://www.w3.org/2000/svg" xml:space="preserve" width="104mm" height="20mm" style="shape-rendering:geometricPrecision; text-rendering:geometricPrecision; image-rendering:optimizeQuality; fill-rule:evenodd; clip-rule:evenodd"
viewBox="0 0 104 20"
 xmlns:xlink="http://www.w3.org/1999/xlink">
 <defs>
  <style type="text/css">
   <![CDATA[
    .str0 {stroke:#4D4948;stroke-width:0.25}
    .fil2 {fill:none;fill-rule:nonzero}
    .fil0 {fill:#4D4948}
    .fil1 {fill:#4D4948;fill-rule:nonzero}
   ]]>
  </style>
 </defs>
 <g id="Layer_x0020_1">
  <metadata id="CorelCorpID_0Corel-Layer"/>
  <path id="_126673576" class="fil0" d="M13.02 12.81l-0.87 0 0 0.8 0.87 0 0 -0.8zm2.19 0l-0.86 0 0 0.8 0.86 0 0 -0.8zm4.83 0l-0.86 0 0 0.8 0.86 0 0 -0.8zm2.2 0l-0.86 0 0 0.8 0.86 0 0 -0.8zm-5.02 -0.41c-0.32,0 -0.6,0.2 -0.64,0.44 -0.01,0.04 0,0.03 -0.01,0.06 -0.01,0.04 -0.01,0.02 -0.01,0.07l0 1.45 1.3 0 0 -0.21c-0.02,-0.23 0,-0.11 0,-0.32l0 -0.2c-0.02,-0.23 0,-0.09 0,-0.3l-0.01 -0.27c-0.01,-0.09 0.05,-0.25 -0.1,-0.46 -0.06,-0.09 -0.11,-0.13 -0.21,-0.19 -0.07,-0.04 -0.2,-0.09 -0.31,-0.09l-0.01 0.02zm-4.2 -1.23l-0.87 0 0 0.8 0.87 0 0 -0.8zm2.19 0l-0.86 0 0 0.8 0.86 0 0 -0.8zm4.83 0l-0.86 0 0 0.8 0.86 0 0 -0.8zm2.2 0l-0.86 0 0 0.8 0.86 0 0 -0.8zm-4.82 -1.3l0 0.05 0.34 0c0.03,0 0.11,0.07 0.11,0.1 0,0.4 0.05,0.33 -0.72,0.33 -0.06,0 0,0 -0.03,-0.01 -0.01,0 -0.02,-0.01 -0.03,-0.01 -0.17,-0.08 -0.12,-0.27 -0.12,-0.5 0,-0.23 0,-0.46 0,-0.69 -0.05,0 -0.03,0.01 -0.04,0.01 0,0 -0.02,0.01 -0.02,0.01l-0.27 0.1 -0.16 0.12c-0.07,0.06 -0.07,0.05 -0.13,0.13l-0.05 0.07c-0.07,0.1 -0.08,0.11 -0.13,0.25 -0.04,0.11 -0.07,0.28 -0.05,0.41 0.01,0.07 0.02,0.16 0.05,0.23l0.14 0.26c0,0 0,0 0.01,0.01 0.09,0.1 0.01,0.03 0.13,0.14l0.38 0.22c0.1,0.04 0.13,0.03 0.22,0.05 0.13,0.03 0.19,0.02 0.31,-0.01 0.1,-0.02 0.15,-0.01 0.31,-0.08 0.1,-0.05 0.24,-0.13 0.31,-0.21l0.21 -0.28 0.05 -0.14c0,0 0,-0.01 0,-0.01l0.03 -0.14c0.02,-0.11 0.03,-0.15 0,-0.26 -0.01,-0.04 -0.01,-0.06 -0.01,-0.1l-0.06 -0.17c-0.07,-0.17 -0.19,-0.29 -0.3,-0.38 -0.07,-0.06 -0.19,-0.14 -0.29,-0.17l-0.13 -0.04c-0.04,-0.01 0.01,0 -0.05,-0.02l-0.01 0.26c0,0.22 0.02,0.11 0,0.35 0,0.04 0,0.08 0,0.12zm6.15 0.09l0 4.48 0.22 0c0.05,0 0.21,0.11 0.21,0.18l0 0.47c0,0.02 -0.06,0.1 -0.08,0.11 -0.03,0.03 -0.1,0.07 -0.14,0.07l-13.17 0c-0.08,0 -0.24,-0.11 -0.24,-0.2l0 -0.44c0,-0.05 0.08,-0.14 0.14,-0.17 0,0 0.03,-0.02 0.04,-0.02 0.04,-0.02 -0.02,-0.01 0.04,-0.01l0.22 0 0 -4.48c0,-0.07 0.19,-0.04 0.24,-0.04l3.08 0c0.1,0 0.16,-0.01 0.25,-0.03l0.41 -0.2 0.67 -0.6c0,0 0.01,0 0.01,-0.01 0.12,-0.1 0.32,-0.31 0.5,-0.45l0.35 -0.32c0.02,-0.02 0.04,-0.04 0.07,-0.06l0.03 -0.03c0,0 0,0 0.01,-0.01 0.06,-0.06 0.13,-0.11 0.19,-0.17 0.08,-0.08 0.2,-0.2 0.29,-0.26 0.06,-0.05 0.24,-0.25 0.3,-0.25 0.06,0 0.15,0.12 0.2,0.16 0.16,0.13 0.36,0.33 0.48,0.44l0.47 0.43c0,0 0.01,0.01 0.01,0.01l0.04 0.04c0,0 0.01,0 0.01,0.01 0.15,0.12 0.28,0.27 0.43,0.39l0.11 0.11c0.01,0.01 0.02,0.02 0.03,0.03l0.42 0.37c0,0 0.01,0 0.01,0.01 0,0 0.01,0 0.01,0.01 0.03,0.03 0.05,0.04 0.07,0.07 0.24,0.23 0.33,0.26 0.63,0.33 0.05,0.01 0.07,0.01 0.13,0.01 1.08,-0.01 2.15,0.02 3.23,0 0.06,0 0.1,-0.01 0.1,0.04l-0.02 -0.02zm-6.15 -6.38l0 0.28c0.01,0.13 0.01,0.11 0,0.25l0 0.28c0.02,0.2 0,0.17 0,0.35l0 0.52c0,0.08 -0.01,0.18 0.02,0.25 0.02,0.04 0.06,0.06 0.07,0.08l0.29 0.27c0.02,0.02 0.03,0.03 0.05,0.04 0.01,0.01 0.03,0.02 0.04,0.04l0.98 0.87c0,0 0,0 0.01,0.01 0.37,0.31 0.11,0.24 0.77,0.24l2.34 0c0.08,0 0.09,-0.01 0.15,0.02 0.14,0.05 0.21,0.15 0.3,0.26 0,0 0.01,0.02 0.02,0.02l0.71 0.87c0,0.01 0.01,0.02 0.02,0.02 0.01,0.02 0.01,0.01 0.02,0.02l0.23 0.27c0.01,0.02 0.02,0.03 0.03,0.04l0.27 0.33c0,0 0,0 0.01,0.01 0.01,0.01 0.01,0.01 0.02,0.02l0.07 0.08c0.01,0.01 0.01,0.01 0.02,0.02l0.13 0.16c0.02,0.03 0.03,0.05 0.03,0.08l0 0.11c0,0.04 -0.1,0.14 -0.14,0.14l-3.58 0c-0.03,0 -0.11,-0.04 -0.15,-0.07 -0.19,-0.14 -0.38,-0.34 -0.55,-0.49l-0.53 -0.48c0,0 -0.01,0 -0.01,-0.01l-0.14 -0.12c-0.07,-0.06 -0.13,-0.12 -0.19,-0.18l-1.42 -1.29c-0.03,-0.03 -0.06,-0.07 -0.11,-0.08l-0.04 0.05c-0.02,0.02 -0.03,0.02 -0.05,0.04 -0.12,0.11 -0.24,0.23 -0.37,0.34l-0.47 0.43c-0.15,0.14 -0.37,0.36 -0.53,0.49 -0.15,0.12 -0.28,0.25 -0.42,0.38 -0.19,0.18 -0.39,0.34 -0.57,0.52 -0.07,0.07 -0.13,0.11 -0.19,0.18l-0.21 0.19c0,0 -0.03,0.02 -0.03,0.02l-0.11 0.07c-0.03,0.01 -0.05,0.02 -0.08,0.02l-3.56 0c-0.04,0 -0.09,-0.04 -0.12,-0.08l-0.02 -0.02c0,0 0,-0.01 0,-0.01 -0.02,-0.04 -0.01,-0.02 -0.02,-0.07l0.02 -0.13 0.33 -0.4c0.01,-0.02 0.02,-0.03 0.04,-0.05 0.02,-0.02 0.02,-0.03 0.04,-0.05l1.15 -1.41c0.07,-0.08 0.13,-0.17 0.23,-0.22 0,0 0.01,0 0.01,0 0,0 0.01,0 0.01,0 0.14,-0.06 0.34,-0.03 0.5,-0.03 0.73,0 1.47,0 2.2,0 0.12,0 0.3,0.04 0.38,-0.03 0,0 0.02,-0.02 0.03,-0.02l0.23 -0.21c0,0 0.01,0 0.01,-0.01 0.14,-0.11 0.22,-0.2 0.36,-0.32l0.3 -0.27c0.06,-0.05 0.12,-0.12 0.19,-0.17l0.47 -0.42c0.01,-0.01 0.01,-0.01 0.02,-0.02 0.02,-0.02 0,0 0.03,-0.02 0.01,-0.01 0.04,-0.03 0.05,-0.04 0.03,-0.05 0.01,-0.57 0.01,-0.68l-0.09 0.07c-0.01,0.01 -0.02,0.01 -0.02,0.02 -0.06,0.04 -0.21,0.09 -0.27,0.09l-0.32 0c-0.05,0 -0.15,-0.03 -0.2,-0.05 -0.24,-0.07 -0.21,-0.1 -0.48,-0.13 -0.08,-0.01 -0.12,-0.02 -0.18,-0.01 -0.07,0.01 -0.14,0.01 -0.2,0.02l-0.16 0.05c-0.28,0.07 -0.28,0.27 -0.28,-0.11l0 -1.23c0.06,-0.01 0.17,-0.08 0.24,-0.11l0.09 -0.03c0.03,-0.01 0.01,-0.01 0.04,-0.01 0.03,-0.01 0.05,0 0.08,-0.01 0.05,-0.01 0.01,-0.02 0.07,-0.02l0.36 0c0.04,0 0.03,0.01 0.08,0.02 0.05,0.01 0.05,0.01 0.09,0.02 0.28,0.09 0.34,0.14 0.67,0.14 0.1,0 0.2,-0.02 0.29,-0.06 0.05,-0.02 0.2,-0.13 0.22,-0.13 0.14,0 0.36,-0.04 0.41,0.15 0.02,0.06 0,0.02 0,0.08l-0.04 -0.04z"/>
  <path id="_126673648" class="fil1 str0" d="M74.1716 10.48c0,-0.07 0.02,-0.13 0.07,-0.18 0.05,-0.05 0.1,-0.07 0.18,-0.07 0.07,0 0.13,0.02 0.18,0.07 0.05,0.05 0.07,0.11 0.07,0.18 0,0.07 -0.02,0.13 -0.07,0.17 -0.05,0.04 -0.11,0.06 -0.18,0.06 -0.07,0 -0.13,-0.02 -0.18,-0.06 -0.05,-0.04 -0.07,-0.1 -0.07,-0.17zm0.43 4.3c0,0.04 0,0.08 0,0.11 0,0.04 -0.01,0.07 -0.02,0.09 -0.01,0.03 -0.03,0.05 -0.05,0.06 -0.02,0.02 -0.06,0.02 -0.11,0.02 -0.09,0 -0.14,-0.03 -0.16,-0.08 -0.02,-0.05 -0.03,-0.12 -0.03,-0.21l0 -2.97c0,-0.08 0.01,-0.14 0.03,-0.2 0.02,-0.06 0.08,-0.08 0.16,-0.08 0.08,0 0.13,0.03 0.15,0.08 0.02,0.06 0.03,0.12 0.03,0.19l0 2.98 0 0.01zm-3.2716 -3.07c-0.36,0 -0.66,0.03 -0.91,0.09 -0.25,0.06 -0.46,0.15 -0.61,0.28 -0.16,0.13 -0.27,0.29 -0.35,0.49 -0.07,0.2 -0.11,0.44 -0.11,0.72 0,0.28 0.04,0.52 0.12,0.72 0.08,0.2 0.2,0.36 0.37,0.48 0.16,0.12 0.37,0.21 0.62,0.27 0.25,0.06 0.54,0.08 0.87,0.08 0.15,0 0.3,-0.01 0.45,-0.03 0.15,-0.02 0.3,-0.05 0.44,-0.08 0.14,-0.03 0.27,-0.07 0.39,-0.11 0.12,-0.04 0.21,-0.08 0.29,-0.12 0.05,-0.02 0.08,-0.02 0.1,-0.02 0.04,0 0.07,0.01 0.09,0.03 0.02,0.02 0.03,0.05 0.03,0.09 0,0.02 -0.01,0.05 -0.02,0.08 -0.02,0.03 -0.04,0.05 -0.07,0.07 -0.27,0.14 -0.55,0.24 -0.84,0.29 -0.29,0.05 -0.57,0.08 -0.84,0.08 -0.35,0 -0.67,-0.03 -0.96,-0.08 -0.29,-0.06 -0.54,-0.15 -0.74,-0.29 -0.21,-0.14 -0.37,-0.33 -0.48,-0.56 -0.11,-0.23 -0.17,-0.53 -0.17,-0.89 0,-0.36 0.05,-0.66 0.16,-0.89 0.11,-0.24 0.26,-0.43 0.46,-0.57 0.2,-0.14 0.45,-0.24 0.74,-0.3 0.29,-0.06 0.62,-0.09 1,-0.09 0.27,0 0.55,0.03 0.84,0.08 0.29,0.05 0.57,0.15 0.84,0.29 0.03,0.02 0.06,0.04 0.07,0.07 0.02,0.03 0.02,0.05 0.02,0.08 0,0.03 -0.01,0.06 -0.03,0.09 -0.02,0.02 -0.06,0.03 -0.09,0.03 -0.02,0 -0.05,-0.01 -0.1,-0.02 -0.07,-0.04 -0.17,-0.08 -0.29,-0.12 -0.12,-0.04 -0.25,-0.08 -0.39,-0.11 -0.14,-0.03 -0.28,-0.06 -0.44,-0.08 -0.15,-0.02 -0.3,-0.03 -0.45,-0.03l-0.01 -0.02zm-4.02 2.72c-0.06,0.08 -0.15,0.15 -0.25,0.24 -0.1,0.08 -0.22,0.15 -0.37,0.22 -0.15,0.07 -0.32,0.12 -0.52,0.17 -0.2,0.04 -0.43,0.07 -0.68,0.07 -0.33,0 -0.61,-0.03 -0.85,-0.09 -0.23,-0.06 -0.42,-0.16 -0.57,-0.3 -0.15,-0.13 -0.26,-0.3 -0.32,-0.51 -0.07,-0.21 -0.1,-0.46 -0.1,-0.75l0 -1.6c0,-0.04 0,-0.08 0.01,-0.12 0,-0.04 0.01,-0.08 0.03,-0.11 0.01,-0.03 0.03,-0.06 0.06,-0.08 0.03,-0.02 0.06,-0.03 0.1,-0.03 0.05,0 0.08,0.01 0.11,0.03 0.03,0.02 0.04,0.05 0.05,0.08 0.01,0.03 0.02,0.07 0.02,0.11 0,0.04 0,0.08 0,0.12l0 1.6c0,0.26 0.02,0.48 0.06,0.65 0.04,0.18 0.12,0.32 0.23,0.43 0.11,0.11 0.26,0.18 0.45,0.23 0.19,0.05 0.43,0.07 0.73,0.07 0.21,0 0.42,-0.02 0.6,-0.05 0.18,-0.04 0.35,-0.08 0.5,-0.14 0.15,-0.06 0.29,-0.12 0.41,-0.19 0.12,-0.07 0.22,-0.14 0.31,-0.21l0 -2.4c0,-0.04 0,-0.08 0,-0.12 0,-0.04 0.01,-0.08 0.02,-0.11 0.01,-0.03 0.03,-0.06 0.05,-0.08 0.02,-0.02 0.06,-0.03 0.09,-0.03 0.05,0 0.08,0.01 0.11,0.03 0.03,0.02 0.05,0.05 0.06,0.08 0.01,0.03 0.02,0.07 0.03,0.11 0,0.04 0,0.08 0,0.12l0 2.89c0,0.04 0,0.08 -0.01,0.12 0,0.04 -0.01,0.07 -0.03,0.1 -0.01,0.03 -0.03,0.06 -0.05,0.07 -0.02,0.02 -0.05,0.03 -0.09,0.03 -0.09,0 -0.14,-0.03 -0.16,-0.09 -0.02,-0.06 -0.03,-0.12 -0.03,-0.19l0 -0.04 0 -0.33zm-4.88 -2.83c0.05,0 0.08,0.01 0.1,0.03 0.02,0.02 0.03,0.05 0.03,0.08 0,0.03 -0.01,0.05 -0.03,0.08 -0.02,0.02 -0.06,0.03 -0.1,0.03l-1.54 0 0 1.96c0,0.23 0.02,0.41 0.07,0.55 0.05,0.14 0.11,0.25 0.19,0.32 0.08,0.08 0.17,0.13 0.28,0.15 0.11,0.03 0.22,0.04 0.34,0.04 0.15,0 0.29,-0.03 0.43,-0.08 0.14,-0.05 0.31,-0.13 0.49,-0.23 0.04,-0.02 0.07,-0.03 0.11,-0.03 0.04,0 0.07,0.01 0.09,0.03 0.02,0.02 0.03,0.05 0.03,0.09 0,0.06 -0.03,0.11 -0.1,0.15 -0.13,0.07 -0.24,0.13 -0.34,0.17 -0.1,0.04 -0.19,0.08 -0.28,0.1 -0.09,0.03 -0.17,0.04 -0.25,0.05 -0.08,0.01 -0.16,0.01 -0.25,0.01 -0.17,0 -0.32,-0.02 -0.46,-0.07 -0.14,-0.05 -0.27,-0.12 -0.38,-0.22 -0.11,-0.1 -0.19,-0.24 -0.25,-0.41 -0.06,-0.17 -0.09,-0.38 -0.09,-0.63l0 -1.96 -0.41 0c-0.04,0 -0.08,-0.01 -0.1,-0.03 -0.02,-0.02 -0.03,-0.05 -0.03,-0.08 0,-0.03 0.01,-0.05 0.03,-0.08 0.02,-0.02 0.05,-0.03 0.1,-0.03l0.41 0 0 -1.15c0,-0.1 0.02,-0.16 0.06,-0.19 0.04,-0.03 0.08,-0.04 0.12,-0.04 0.05,0 0.1,0.01 0.13,0.04 0.03,0.03 0.05,0.09 0.05,0.19l0 1.15 1.54 0 0.01 0.01zm-5.46 4.75c0.32,0 0.58,-0.03 0.8,-0.1 0.21,-0.07 0.38,-0.18 0.51,-0.34 0.13,-0.16 0.22,-0.37 0.27,-0.63 0.05,-0.26 0.08,-0.59 0.08,-0.98 -0.03,0.13 -0.09,0.24 -0.17,0.33 -0.08,0.09 -0.17,0.17 -0.28,0.23 -0.11,0.06 -0.22,0.11 -0.35,0.15 -0.12,0.04 -0.25,0.07 -0.38,0.09 -0.13,0.02 -0.26,0.03 -0.38,0.03 -0.13,0 -0.24,0 -0.35,0 -0.33,0 -0.61,-0.03 -0.84,-0.09 -0.23,-0.06 -0.41,-0.16 -0.55,-0.31 -0.14,-0.14 -0.25,-0.33 -0.31,-0.57 -0.06,-0.23 -0.09,-0.52 -0.09,-0.87l0 -1.42c0,-0.04 0,-0.08 0,-0.12 0,-0.04 0.01,-0.07 0.02,-0.11 0.01,-0.03 0.03,-0.06 0.05,-0.08 0.02,-0.02 0.06,-0.03 0.1,-0.03 0.05,0 0.08,0.01 0.11,0.03 0.03,0.02 0.04,0.05 0.06,0.08 0.01,0.03 0.02,0.07 0.02,0.11 0,0.04 0,0.08 0,0.12l0 1.42c0,0.3 0.02,0.55 0.06,0.75 0.04,0.2 0.11,0.36 0.21,0.48 0.1,0.12 0.25,0.21 0.44,0.25 0.19,0.05 0.43,0.07 0.72,0.07 0.18,0 0.37,-0.01 0.57,-0.04 0.2,-0.03 0.39,-0.07 0.57,-0.13 0.18,-0.06 0.34,-0.15 0.48,-0.27 0.14,-0.12 0.23,-0.26 0.28,-0.45l0 -2.1c0,-0.04 0,-0.08 0.01,-0.12 0,-0.04 0.01,-0.08 0.03,-0.11 0.01,-0.03 0.03,-0.06 0.05,-0.08 0.02,-0.02 0.05,-0.03 0.09,-0.03 0.05,0 0.08,0.01 0.11,0.03 0.03,0.02 0.04,0.05 0.06,0.08 0.01,0.03 0.02,0.07 0.03,0.11 0,0.04 0,0.08 0,0.12l0 2.27c0,0.47 -0.04,0.87 -0.11,1.19 -0.08,0.32 -0.19,0.57 -0.36,0.77 -0.16,0.19 -0.37,0.33 -0.63,0.41 -0.26,0.08 -0.57,0.12 -0.93,0.12 -0.26,0 -0.48,-0.01 -0.66,-0.04 -0.18,-0.03 -0.33,-0.06 -0.45,-0.1 -0.12,-0.04 -0.22,-0.09 -0.3,-0.14 -0.08,-0.05 -0.15,-0.1 -0.21,-0.15 -0.02,-0.03 -0.04,-0.06 -0.04,-0.09 0,-0.04 0.01,-0.08 0.03,-0.11 0.02,-0.03 0.06,-0.04 0.11,-0.04 0.02,0 0.05,0.01 0.08,0.03 0.06,0.04 0.13,0.09 0.21,0.13 0.08,0.05 0.17,0.09 0.29,0.12 0.11,0.04 0.25,0.07 0.4,0.09 0.15,0.02 0.33,0.03 0.54,0.03l0 0.01zm-3.26 -4.75c0.05,0 0.08,0.01 0.1,0.03 0.02,0.02 0.03,0.05 0.03,0.08 0,0.03 -0.01,0.05 -0.03,0.08 -0.02,0.02 -0.06,0.03 -0.1,0.03l-1.54 0 0 1.96c0,0.23 0.02,0.41 0.07,0.55 0.05,0.14 0.11,0.25 0.19,0.32 0.08,0.08 0.17,0.13 0.28,0.15 0.11,0.03 0.22,0.04 0.34,0.04 0.15,0 0.29,-0.03 0.43,-0.08 0.14,-0.05 0.31,-0.13 0.49,-0.23 0.04,-0.02 0.07,-0.03 0.11,-0.03 0.04,0 0.07,0.01 0.09,0.03 0.02,0.02 0.03,0.05 0.03,0.09 0,0.06 -0.03,0.11 -0.1,0.15 -0.13,0.07 -0.24,0.13 -0.34,0.17 -0.1,0.04 -0.19,0.08 -0.28,0.1 -0.09,0.03 -0.17,0.04 -0.25,0.05 -0.08,0.01 -0.16,0.01 -0.25,0.01 -0.17,0 -0.32,-0.02 -0.46,-0.07 -0.14,-0.05 -0.27,-0.12 -0.38,-0.22 -0.11,-0.1 -0.19,-0.24 -0.25,-0.41 -0.06,-0.17 -0.09,-0.38 -0.09,-0.63l0 -1.96 -0.41 0c-0.04,0 -0.08,-0.01 -0.1,-0.03 -0.02,-0.02 -0.03,-0.05 -0.03,-0.08 0,-0.03 0.01,-0.05 0.03,-0.08 0.02,-0.02 0.05,-0.03 0.1,-0.03l0.41 0 0 -1.15c0,-0.1 0.02,-0.16 0.06,-0.19 0.04,-0.03 0.08,-0.04 0.12,-0.04 0.05,0 0.1,0.01 0.13,0.04 0.03,0.03 0.05,0.09 0.05,0.19l0 1.15 1.54 0 0.01 0.01zm-3.64 2.49c0,-0.17 -0.06,-0.29 -0.17,-0.38 -0.12,-0.09 -0.27,-0.16 -0.46,-0.2 -0.19,-0.04 -0.4,-0.06 -0.65,-0.06 -0.24,0 -0.49,0 -0.74,0 -0.25,0 -0.5,-0.01 -0.74,-0.03 -0.24,-0.02 -0.46,-0.06 -0.65,-0.13 -0.19,-0.06 -0.34,-0.16 -0.46,-0.28 -0.12,-0.12 -0.17,-0.29 -0.17,-0.49 0,-0.22 0.06,-0.39 0.17,-0.53 0.12,-0.14 0.27,-0.25 0.46,-0.33 0.19,-0.08 0.4,-0.14 0.64,-0.17 0.24,-0.03 0.48,-0.05 0.73,-0.05 0.4,0 0.78,0.03 1.13,0.1 0.35,0.07 0.67,0.18 0.97,0.34 0.03,0.01 0.05,0.03 0.06,0.06 0.01,0.02 0.02,0.05 0.02,0.07 0,0.04 -0.01,0.07 -0.04,0.11 -0.03,0.03 -0.05,0.05 -0.08,0.05 -0.02,0 -0.03,0 -0.04,-0.01 -0.26,-0.13 -0.56,-0.24 -0.89,-0.32 -0.33,-0.08 -0.7,-0.12 -1.12,-0.12 -0.21,0 -0.41,0.01 -0.61,0.04 -0.2,0.03 -0.37,0.07 -0.52,0.13 -0.15,0.06 -0.28,0.14 -0.37,0.25 -0.09,0.1 -0.14,0.23 -0.14,0.38 0,0.16 0.06,0.28 0.17,0.36 0.12,0.09 0.27,0.15 0.46,0.19 0.19,0.04 0.41,0.06 0.65,0.06 0.24,0 0.49,0 0.74,0 0.25,0 0.5,0.01 0.74,0.03 0.24,0.02 0.46,0.07 0.65,0.14 0.19,0.07 0.34,0.16 0.46,0.29 0.12,0.13 0.17,0.29 0.17,0.51 0,0.19 -0.06,0.35 -0.18,0.48 -0.12,0.13 -0.27,0.24 -0.47,0.32 -0.19,0.08 -0.42,0.14 -0.67,0.17 -0.25,0.04 -0.52,0.05 -0.79,0.05 -0.17,0 -0.35,0 -0.54,0 -0.19,0 -0.39,-0.01 -0.58,-0.04 -0.19,-0.03 -0.38,-0.08 -0.55,-0.14 -0.18,-0.06 -0.33,-0.15 -0.47,-0.25 -0.04,-0.03 -0.06,-0.08 -0.06,-0.12 0,-0.04 0.01,-0.08 0.03,-0.11 0.02,-0.03 0.05,-0.04 0.09,-0.04 0.03,0 0.04,0.01 0.06,0.02 0.13,0.09 0.27,0.17 0.42,0.23 0.15,0.06 0.31,0.1 0.47,0.14 0.17,0.03 0.34,0.05 0.52,0.05 0.18,0 0.37,0 0.56,0 0.23,0 0.46,-0.01 0.67,-0.03 0.21,-0.02 0.4,-0.06 0.57,-0.12 0.17,-0.06 0.3,-0.13 0.4,-0.23 0.1,-0.09 0.15,-0.21 0.15,-0.36l0 -0.03zm-5.27 0.66c0,0.04 0,0.08 -0.01,0.12 -0.01,0.04 -0.02,0.08 -0.03,0.11 -0.01,0.03 -0.03,0.06 -0.06,0.08 -0.03,0.02 -0.06,0.03 -0.09,0.03 -0.05,0 -0.08,-0.01 -0.1,-0.03 -0.02,-0.02 -0.04,-0.05 -0.05,-0.08 -0.01,-0.03 -0.02,-0.07 -0.02,-0.11 0,-0.04 0,-0.08 0,-0.12l0 -1.6c0,-0.24 -0.02,-0.45 -0.05,-0.63 -0.03,-0.18 -0.1,-0.33 -0.21,-0.45 -0.1,-0.12 -0.25,-0.21 -0.43,-0.27 -0.18,-0.06 -0.42,-0.09 -0.72,-0.09 -0.18,0 -0.38,0.01 -0.58,0.04 -0.2,0.03 -0.4,0.08 -0.58,0.15 -0.18,0.07 -0.35,0.17 -0.49,0.29 -0.14,0.12 -0.24,0.27 -0.3,0.45l0 2.09c0,0.04 0,0.08 0,0.12 0,0.04 -0.01,0.08 -0.02,0.11 -0.01,0.03 -0.03,0.06 -0.05,0.08 -0.02,0.02 -0.05,0.03 -0.09,0.03 -0.04,0 -0.08,-0.01 -0.1,-0.03 -0.03,-0.02 -0.05,-0.05 -0.06,-0.08 -0.01,-0.03 -0.02,-0.07 -0.03,-0.11 0,-0.04 -0.01,-0.08 -0.01,-0.12l0 -3c0,-0.05 0.01,-0.1 0.03,-0.15 0.02,-0.04 0.08,-0.07 0.16,-0.07 0.08,0 0.12,0.02 0.15,0.06 0.02,0.04 0.03,0.09 0.03,0.15l0 0.58c0.09,-0.2 0.21,-0.36 0.36,-0.48 0.15,-0.12 0.32,-0.21 0.51,-0.27 0.18,-0.06 0.37,-0.1 0.56,-0.12 0.19,-0.02 0.36,-0.03 0.52,-0.03 0.33,0 0.61,0.03 0.84,0.09 0.23,0.06 0.41,0.15 0.55,0.28 0.14,0.13 0.24,0.31 0.3,0.53 0.06,0.22 0.09,0.49 0.09,0.81l0 1.6 -0.02 0.04zm-6.07 -4.26c0,-0.07 0.02,-0.13 0.07,-0.18 0.05,-0.05 0.1,-0.07 0.18,-0.07 0.07,0 0.13,0.02 0.18,0.07 0.05,0.05 0.07,0.11 0.07,0.18 0,0.07 -0.02,0.13 -0.07,0.17 -0.05,0.04 -0.11,0.06 -0.18,0.06 -0.07,0 -0.13,-0.02 -0.18,-0.06 -0.05,-0.04 -0.07,-0.1 -0.07,-0.17zm0.43 4.3c0,0.04 0,0.08 0,0.11 0,0.04 -0.01,0.07 -0.02,0.09 -0.01,0.03 -0.03,0.05 -0.05,0.06 -0.02,0.02 -0.06,0.02 -0.11,0.02 -0.09,0 -0.14,-0.03 -0.16,-0.08 -0.02,-0.05 -0.03,-0.12 -0.03,-0.21l0 -2.97c0,-0.08 0.01,-0.14 0.03,-0.2 0.02,-0.06 0.08,-0.08 0.16,-0.08 0.08,0 0.13,0.03 0.15,0.08 0.02,0.06 0.03,0.12 0.03,0.19l0 2.98 0 0.01zm-10.27 -2.29c0,0.43 0.06,0.8 0.19,1.1 0.12,0.3 0.31,0.54 0.56,0.73 0.25,0.19 0.56,0.33 0.94,0.41 0.38,0.09 0.82,0.13 1.32,0.13 0.51,0 0.95,-0.04 1.32,-0.13 0.38,-0.08 0.69,-0.22 0.94,-0.41 0.25,-0.19 0.44,-0.43 0.56,-0.73 0.12,-0.3 0.18,-0.67 0.18,-1.1 0,-0.43 -0.06,-0.79 -0.18,-1.1 -0.12,-0.3 -0.31,-0.55 -0.56,-0.74 -0.25,-0.19 -0.56,-0.33 -0.94,-0.41 -0.38,-0.09 -0.82,-0.13 -1.32,-0.13 -0.51,0 -0.95,0.04 -1.32,0.13 -0.38,0.08 -0.69,0.22 -0.94,0.41 -0.25,0.19 -0.43,0.44 -0.56,0.74 -0.12,0.3 -0.19,0.67 -0.19,1.1zm6.41 0c0,0.45 -0.07,0.84 -0.2,1.18 -0.13,0.34 -0.34,0.61 -0.62,0.84 -0.28,0.22 -0.63,0.39 -1.06,0.5 -0.43,0.11 -0.93,0.16 -1.52,0.16 -0.59,0 -1.09,-0.06 -1.52,-0.16 -0.43,-0.11 -0.78,-0.27 -1.06,-0.5 -0.28,-0.22 -0.48,-0.5 -0.62,-0.84 -0.13,-0.34 -0.2,-0.73 -0.2,-1.18 0,-0.45 0.07,-0.84 0.2,-1.18 0.13,-0.34 0.34,-0.61 0.62,-0.84 0.28,-0.22 0.63,-0.39 1.06,-0.5 0.43,-0.11 0.94,-0.16 1.52,-0.16 0.59,0 1.09,0.06 1.52,0.16 0.43,0.11 0.78,0.28 1.06,0.5 0.28,0.22 0.49,0.5 0.62,0.84 0.13,0.34 0.2,0.73 0.2,1.18zm42.3716 2.3493c0.29,0 0.55,-0.02 0.77,-0.06 0.22,-0.04 0.41,-0.08 0.56,-0.13 0.16,-0.05 0.29,-0.11 0.39,-0.16 0.1,-0.06 0.18,-0.1 0.23,-0.14 0.02,-0.01 0.03,-0.01 0.04,-0.01 0.03,0 0.07,0.02 0.09,0.05 0.03,0.03 0.04,0.07 0.04,0.1 0,0.03 -0.02,0.06 -0.05,0.08 -0.03,0.03 -0.09,0.07 -0.18,0.13 -0.09,0.06 -0.22,0.12 -0.39,0.18 -0.17,0.06 -0.38,0.11 -0.63,0.16 -0.25,0.05 -0.55,0.07 -0.89,0.07 -0.36,0 -0.66,-0.04 -0.91,-0.13 -0.25,-0.09 -0.45,-0.21 -0.61,-0.37 -0.16,-0.16 -0.27,-0.35 -0.34,-0.58 -0.07,-0.23 -0.11,-0.47 -0.11,-0.74 0,-0.36 0.06,-0.66 0.17,-0.89 0.11,-0.24 0.27,-0.43 0.47,-0.57 0.2,-0.14 0.43,-0.24 0.7,-0.3 0.27,-0.06 0.56,-0.09 0.87,-0.09 0.64,0 1.12,0.12 1.44,0.36 0.32,0.24 0.48,0.59 0.48,1.04 0,0.04 0,0.09 -0.01,0.14 -0.01,0.05 -0.01,0.1 -0.03,0.15 -0.01,0.05 -0.02,0.09 -0.04,0.12 -0.01,0.03 -0.03,0.05 -0.04,0.05l-1.36 0 -2.3 0c0.01,0.28 0.04,0.52 0.11,0.72 0.07,0.2 0.17,0.36 0.31,0.48 0.13,0.12 0.3,0.21 0.5,0.27 0.2,0.06 0.43,0.08 0.69,0.08l0.03 -0.01zm0.24 -3.14c-0.29,0 -0.54,0.02 -0.76,0.07 -0.22,0.05 -0.41,0.13 -0.57,0.24 -0.16,0.11 -0.28,0.25 -0.36,0.42 -0.09,0.17 -0.14,0.38 -0.15,0.63l3.49 0 0 -0.25c0,-0.15 -0.03,-0.3 -0.09,-0.44 -0.06,-0.13 -0.15,-0.25 -0.28,-0.36 -0.13,-0.1 -0.3,-0.18 -0.51,-0.24 -0.21,-0.06 -0.47,-0.09 -0.77,-0.09l0 0.02z"/>
  <rect class="fil2" width="104" height="20"/>
 </g>
</svg>
