<?xml version="1.0" encoding="UTF-8"?>
<!DOCTYPE svg PUBLIC "-//W3C//DTD SVG 1.1//EN" "http://www.w3.org/Graphics/SVG/1.1/DTD/svg11.dtd">
<!-- Creator: CorelDRAW X5 -->
<svg xmlns="http://www.w3.org/2000/svg" xml:space="preserve" width="104mm" height="20mm" style="shape-rendering:geometricPrecision; text-rendering:geometricPrecision; image-rendering:optimizeQuality; fill-rule:evenodd; clip-rule:evenodd"
viewBox="0 0 10400 2000"
 xmlns:xlink="http://www.w3.org/1999/xlink">
 <defs>
  <style type="text/css">
   <![CDATA[
    .str0 {stroke:#4D4948;stroke-width:25}
    .fil0 {fill:none}
    .fil1 {fill:#4D4948}
    .fil2 {fill:#4D4948;fill-rule:nonzero}
   ]]>
  </style>
 </defs>
 <g id="Layer_x0020_1">
  <metadata id="CorelCorpID_0Corel-Layer"/>
  <rect class="fil0" width="10400" height="2000"/>
 </g>
 <g id="Layer_x0020_1_0">
  <metadata id="CorelCorpID_1Corel-Layer"/>
  <g id="_390167872">
   <path id="_101898480" class="fil1" d="M1585 1491c136,42 278,64 423,37 39,-7 94,-22 123,-39 2,-23 1,-130 0,-161 -1,-89 -46,-162 -128,-196 -47,-19 -92,-15 -147,-15 -54,0 -99,-4 -145,16 -43,18 -66,40 -90,72 -45,59 -37,132 -37,205 0,24 -2,59 1,81zm-282 -357l0 191c106,29 122,36 242,47 3,-15 0,-41 1,-57 2,-47 15,-92 42,-129 17,-24 32,-41 56,-59 36,-27 63,-31 75,-39 -3,-6 -7,-8 -11,-13 -35,-41 -41,-71 -48,-123 -44,-3 -90,-1 -134,-1 -46,0 -78,6 -112,23 -28,14 -56,40 -72,63 -34,48 -33,87 -38,97l-1 0zm1094 189l0 -189c-4,-6 -4,-19 -7,-27 -7,-27 -15,-45 -30,-67 -17,-25 -41,-46 -69,-62 -28,-17 -67,-26 -106,-26 -20,0 -118,-1 -129,1 -1,29 -8,56 -19,79 -20,40 -26,36 -40,57 17,12 79,21 131,98 49,73 38,114 42,187 45,4 134,-15 179,-30l48 -19 0 -2zm-563 -536c-92,17 -148,96 -135,182 13,81 86,147 182,134 79,-10 149,-87 135,-182 -13,-90 -99,-150 -182,-135l0 1zm-275 -167c-84,11 -151,81 -142,177 8,83 83,150 177,141 22,-2 41,-10 59,-19 20,-10 3,-45 55,-105 27,-31 30,-15 27,-52 -8,-80 -84,-154 -177,-142l1 0zm544 1c-77,12 -131,69 -139,141 -2,21 2,17 13,25 35,27 67,71 76,124 3,17 3,15 20,20 22,7 47,10 71,7 81,-12 149,-83 138,-179 -9,-79 -86,-153 -179,-139l0 1z"/>
   <path id="_101812736" class="fil2 str0" d="M3165 1235l270 248c6,6 9,12 9,18 0,5 -1,9 -5,12 -3,3 -7,5 -12,5 -5,0 -10,-2 -15,-7l-277 -258 -96 62 0 171c0,9 -1,16 -4,23 -3,6 -8,9 -15,9 -9,0 -15,-3 -17,-9 -2,-6 -3,-14 -3,-22l0 -454c0,-9 1,-16 4,-22 3,-6 8,-9 17,-9 7,0 12,3 15,9 3,6 4,13 4,21l0 247 371 -270c3,-3 7,-4 10,-6 3,-1 6,-2 9,-2 5,0 9,1 11,4 3,3 4,6 4,11 0,7 -3,13 -10,18l-269 200 -1 1zm429 179c0,15 4,27 11,38 8,10 18,18 32,25 14,6 30,11 49,14 19,3 39,4 61,4 27,0 51,-2 72,-6 21,-4 39,-9 55,-14 16,-6 29,-12 40,-19 11,-7 20,-14 27,-20l0 -92c-31,-5 -63,-9 -96,-14 -33,-4 -66,-6 -100,-6 -24,0 -45,1 -64,4 -19,3 -34,8 -47,14 -13,7 -23,16 -30,28 -7,12 -10,26 -10,44zm197 -233c-30,0 -55,1 -76,2 -21,1 -39,3 -54,6 -15,2 -27,5 -38,8 -10,3 -19,6 -27,8 -4,0 -7,-2 -10,-6 -3,-4 -5,-8 -5,-12 0,-4 2,-7 6,-9 3,-1 8,-3 17,-6 9,-3 22,-6 38,-9 17,-3 37,-6 62,-8 24,-2 53,-3 87,-3 16,0 31,1 47,3 15,2 30,6 44,11 14,5 27,12 38,22 12,9 22,21 31,36 9,15 15,32 20,53 5,21 7,45 7,73l0 133c0,4 0,7 0,11 0,4 -1,7 -3,10 -1,3 -3,6 -6,8 -3,2 -6,3 -10,3 -7,0 -12,-3 -15,-10 -3,-6 -4,-15 -4,-24l0 -32c-6,8 -14,16 -24,24 -10,8 -22,16 -37,23 -15,7 -33,12 -54,17 -21,4 -46,7 -75,7 -27,0 -52,-2 -76,-6 -24,-4 -44,-10 -61,-19 -18,-9 -31,-20 -41,-33 -10,-14 -15,-30 -15,-49 0,-22 5,-41 14,-56 9,-15 22,-27 39,-36 17,-9 36,-15 58,-19 22,-4 47,-6 73,-6 19,0 39,0 58,0 20,0 38,2 56,5 18,3 34,7 48,11 15,5 27,10 37,16 0,-32 -4,-58 -12,-77 -8,-19 -19,-35 -33,-46 -14,-11 -30,-18 -48,-22 -18,-4 -37,-5 -56,-5l0 3zm518 340c-28,0 -54,-3 -79,-9 -25,-6 -47,-15 -65,-29 -19,-14 -34,-32 -45,-55 -11,-23 -16,-52 -16,-87 0,-34 5,-64 14,-87 9,-24 22,-43 40,-58 17,-15 39,-25 64,-32 25,-7 55,-10 87,-10 33,0 61,2 84,6 24,4 43,9 60,15 16,6 29,12 40,19 10,7 19,13 25,19l0 -178c0,-4 0,-8 0,-12 0,-4 1,-8 2,-11 1,-3 3,-6 5,-7 2,-2 6,-3 10,-3 5,0 8,1 11,3 3,2 4,4 6,7 1,3 2,6 2,10 0,4 0,8 0,13l0 459c0,10 -2,16 -6,20 -4,3 -8,5 -12,5 -5,0 -10,-2 -13,-5 -4,-3 -6,-10 -6,-19l0 -64c-3,14 -9,25 -18,35 -9,10 -19,18 -31,25 -12,7 -25,12 -39,17 -14,5 -28,8 -43,11 -14,3 -28,4 -42,4 -13,0 -25,0 -36,0l1 -2zm0 -26c18,0 39,-1 61,-4 22,-3 43,-7 63,-14 20,-7 38,-16 53,-28 15,-12 26,-28 32,-47l0 -167c-7,-6 -16,-11 -27,-18 -11,-6 -25,-12 -41,-17 -16,-6 -36,-10 -59,-13 -23,-3 -50,-5 -81,-5 -30,0 -55,3 -76,9 -21,6 -39,16 -52,29 -14,13 -24,30 -30,50 -6,20 -9,44 -9,72 0,29 4,54 13,73 9,20 21,35 36,47 15,12 33,20 54,25 21,5 42,8 65,8l-2 0zm665 -330c3,1 6,3 7,5 2,3 2,6 2,9 0,4 -1,8 -4,11 -3,3 -6,5 -12,5 -1,0 -2,0 -3,0 0,0 -1,0 -3,-1 -12,-3 -24,-6 -34,-8 -11,-2 -23,-3 -36,-3 -18,0 -36,2 -52,6 -16,4 -31,9 -45,17 -13,8 -25,17 -35,29 -10,12 -17,26 -22,41l0 210c0,8 -1,15 -3,22 -2,7 -7,10 -15,10 -4,0 -8,-1 -10,-3 -3,-2 -5,-4 -6,-7 -1,-3 -2,-7 -2,-10 0,-4 0,-8 0,-12l0 -296c0,-7 1,-13 4,-18 3,-5 8,-8 17,-8 7,0 11,3 13,8 2,5 3,12 3,20l0 57c5,-20 14,-36 26,-48 12,-12 26,-22 41,-28 15,-7 30,-11 46,-13 16,-2 30,-3 42,-3 12,0 22,0 30,1 8,1 16,2 22,3 6,1 12,2 16,3 5,1 9,3 13,4l0 -3zm127 249c0,15 4,27 11,38 8,10 18,18 32,25 14,6 30,11 49,14 19,3 39,4 61,4 27,0 51,-2 72,-6 21,-4 39,-9 55,-14 16,-6 29,-12 40,-19 11,-7 20,-14 27,-20l0 -92c-31,-5 -63,-9 -96,-14 -33,-4 -66,-6 -100,-6 -24,0 -45,1 -64,4 -19,3 -34,8 -47,14 -13,7 -23,16 -30,28 -7,12 -10,26 -10,44zm197 -233c-30,0 -55,1 -76,2 -21,1 -39,3 -54,6 -15,2 -27,5 -38,8 -10,3 -19,6 -27,8 -4,0 -7,-2 -10,-6 -3,-4 -5,-8 -5,-12 0,-4 2,-7 6,-9 3,-1 8,-3 17,-6 9,-3 22,-6 38,-9 17,-3 37,-6 62,-8 24,-2 53,-3 87,-3 16,0 31,1 47,3 15,2 30,6 44,11 14,5 27,12 38,22 12,9 22,21 31,36 9,15 15,32 20,53 5,21 7,45 7,73l0 133c0,4 0,7 0,11 0,4 -1,7 -3,10 -1,3 -3,6 -6,8 -3,2 -6,3 -10,3 -7,0 -12,-3 -15,-10 -3,-6 -4,-15 -4,-24l0 -32c-6,8 -14,16 -24,24 -10,8 -22,16 -37,23 -15,7 -33,12 -54,17 -21,4 -46,7 -75,7 -27,0 -52,-2 -76,-6 -24,-4 -44,-10 -61,-19 -18,-9 -31,-20 -41,-33 -10,-14 -15,-30 -15,-49 0,-22 5,-41 14,-56 9,-15 22,-27 39,-36 17,-9 36,-15 58,-19 22,-4 47,-6 73,-6 19,0 39,0 58,0 20,0 38,2 56,5 18,3 34,7 48,11 15,5 27,10 37,16 0,-32 -4,-58 -12,-77 -8,-19 -19,-35 -33,-46 -14,-11 -30,-18 -48,-22 -18,-4 -37,-5 -56,-5l0 3z"/>
  </g>
 </g>
</svg>
