<?xml version="1.0" encoding="UTF-8"?>
<!DOCTYPE svg PUBLIC "-//W3C//DTD SVG 1.1//EN" "http://www.w3.org/Graphics/SVG/1.1/DTD/svg11.dtd">
<!-- Creator: CorelDRAW X5 -->
<svg xmlns="http://www.w3.org/2000/svg" xml:space="preserve" width="104mm" height="20mm" style="shape-rendering:geometricPrecision; text-rendering:geometricPrecision; image-rendering:optimizeQuality; fill-rule:evenodd; clip-rule:evenodd"
viewBox="0 0 10400 2000"
 xmlns:xlink="http://www.w3.org/1999/xlink">
 <defs>
  <style type="text/css">
   <![CDATA[
    .str0 {stroke:#4D4948;stroke-width:25}
    .fil0 {fill:none}
    .fil1 {fill:#4D4948}
    .fil2 {fill:#4D4948;fill-rule:nonzero}
   ]]>
  </style>
 </defs>
 <g id="Layer_x0020_1">
  <metadata id="CorelCorpID_0Corel-Layer"/>
  <rect class="fil0" width="10400" height="2000"/>
 </g>
 <g id="Layer_x0020_1_0">
  <metadata id="CorelCorpID_1Corel-Layer"/>
  <g id="_402176272">
   <path id="_101812424" class="fil1" d="M2415 1010l-324 -28 -127 -298 -127 299 -324 27 246 213 -74 317 278 -168 278 168 -73 -317 246 -213zm-451 278l-169 102 45 -193 -150 -130 197 -17 77 -182 77 182 197 17 -150 130 45 193 -170 -103z"/>
   <path id="_101812304" class="fil2 str0" d="M3606 1352c0,20 -4,38 -11,53 -7,15 -17,29 -30,40 -13,12 -28,21 -45,29 -17,8 -36,14 -57,19 -20,5 -42,8 -65,10 -23,2 -46,3 -70,3 -33,0 -66,-2 -99,-5 -33,-3 -63,-8 -92,-13 -28,-5 -54,-11 -75,-16 -22,-6 -38,-11 -49,-17 -4,-2 -8,-5 -10,-8 -2,-3 -3,-7 -3,-10 0,-4 1,-7 3,-9 2,-3 5,-4 9,-4 2,0 4,0 6,1 12,5 29,10 52,16 22,6 48,11 77,16 28,5 59,9 91,13 32,3 64,5 96,5 31,0 60,-2 88,-6 28,-4 52,-11 73,-21 21,-10 38,-22 50,-38 12,-16 19,-36 19,-59 0,-20 -5,-36 -16,-48 -11,-12 -25,-23 -43,-30 -18,-8 -40,-13 -64,-17 -24,-4 -50,-7 -77,-9 -27,-2 -55,-3 -85,-3 -29,0 -57,-1 -85,-4 -27,-2 -53,-6 -77,-11 -24,-5 -46,-12 -64,-21 -18,-9 -33,-21 -43,-35 -11,-14 -16,-32 -16,-54 0,-20 4,-37 11,-53 7,-15 18,-28 31,-39 13,-11 28,-20 46,-27 18,-7 37,-13 58,-17 21,-4 43,-8 66,-9 23,-2 46,-3 69,-3 29,0 57,1 85,4 28,3 54,6 78,11 24,4 46,9 66,15 19,5 35,11 47,16 2,1 4,3 6,5 1,2 2,5 2,7 0,4 -2,8 -4,12 -3,4 -7,6 -12,6 -3,0 -6,-1 -8,-2 -16,-7 -34,-13 -54,-18 -20,-6 -41,-10 -63,-14 -22,-4 -45,-6 -69,-9 -24,-2 -47,-3 -70,-3 -32,0 -63,2 -92,6 -29,4 -55,10 -77,19 -22,9 -40,21 -54,36 -13,15 -20,34 -20,57 0,17 5,31 16,42 11,11 25,20 43,26 18,7 40,12 64,15 24,3 50,5 77,5 27,0 55,0 85,0 29,0 57,2 85,5 27,3 53,8 77,14 24,6 46,14 64,24 18,10 33,24 43,40 11,16 16,36 16,60zm371 -216c28,0 54,3 79,9 25,6 47,15 65,29 19,14 34,32 44,55 11,23 16,52 16,87 0,34 -4,64 -14,87 -9,24 -22,43 -40,58 -17,15 -39,25 -64,32 -25,7 -55,10 -87,10 -25,0 -48,-2 -69,-5 -21,-3 -40,-7 -57,-12 -17,-5 -32,-10 -46,-16 -14,-6 -26,-12 -36,-17l-1 168c0,4 0,8 0,12 0,4 -1,7 -2,10 -1,3 -3,6 -5,7 -2,2 -6,3 -10,3 -5,0 -8,-1 -10,-3 -2,-2 -4,-5 -5,-8 -1,-3 -2,-7 -2,-11 0,-4 0,-9 0,-13l0 -453c0,-10 2,-16 6,-19 4,-3 8,-4 12,-4 5,0 9,1 12,4 3,3 5,9 5,20l0 64c4,-14 10,-26 19,-36 9,-10 19,-19 31,-27 12,-7 25,-13 39,-18 14,-5 28,-9 43,-11 14,-3 28,-4 42,-4 14,0 26,0 37,0zm0 26c-19,0 -39,1 -61,4 -22,3 -43,8 -63,15 -20,7 -38,17 -53,29 -15,13 -26,29 -31,49l0 175c13,5 28,10 43,15 15,5 32,9 49,13 17,4 36,7 55,10 19,2 40,4 62,4 30,0 55,-3 76,-9 21,-6 39,-16 52,-29 14,-13 24,-30 30,-50 6,-20 9,-44 9,-72 0,-29 -4,-53 -13,-73 -9,-20 -21,-35 -36,-47 -15,-12 -33,-20 -53,-25 -21,-5 -42,-8 -65,-8zm540 0c-29,0 -54,2 -76,7 -22,5 -41,13 -57,24 -16,11 -28,25 -36,42 -9,17 -14,38 -15,63l349 0 0 -25c0,-15 -3,-30 -9,-44 -6,-13 -15,-25 -28,-36 -13,-10 -30,-18 -51,-24 -21,-6 -47,-9 -77,-9zm-24 314c29,0 55,-2 77,-6 22,-4 41,-8 56,-13 16,-5 29,-11 39,-16 10,-6 18,-10 23,-14 2,-1 3,-1 4,-1 3,0 7,2 9,5 3,3 4,7 4,10 0,3 -2,6 -5,8 -3,3 -9,7 -18,13 -9,6 -22,12 -39,18 -17,6 -38,11 -63,16 -25,5 -55,7 -89,7 -36,0 -66,-4 -91,-13 -25,-9 -45,-21 -61,-37 -16,-16 -27,-35 -34,-58 -7,-23 -11,-47 -11,-74 0,-36 6,-66 17,-89 11,-24 27,-43 47,-57 20,-14 43,-24 70,-30 27,-6 56,-9 87,-9 64,0 112,12 144,36 32,24 48,59 48,104 0,4 0,9 -1,14 -1,5 -1,10 -3,15 -1,5 -2,9 -4,12 -1,3 -3,5 -4,5l-136 0 -230 0c1,28 4,52 11,72 7,20 17,36 31,48 13,12 30,21 50,27 20,6 43,8 69,8zm560 -314c-36,0 -66,3 -91,9 -25,6 -46,15 -61,28 -16,13 -27,29 -35,49 -7,20 -11,44 -11,72 0,28 4,52 12,72 8,20 20,36 37,48 16,12 37,21 62,27 25,6 54,8 87,8 15,0 30,-1 45,-3 15,-2 30,-5 44,-8 14,-3 27,-7 39,-11 12,-4 21,-8 29,-12 5,-2 8,-2 10,-2 4,0 7,1 9,3 2,2 3,5 3,9 0,2 -1,5 -2,8 -2,3 -4,5 -7,7 -27,14 -55,24 -84,29 -29,5 -57,8 -84,8 -35,0 -67,-3 -96,-8 -29,-6 -54,-15 -74,-29 -21,-14 -37,-33 -48,-56 -11,-23 -17,-53 -17,-89 0,-36 5,-66 16,-89 11,-24 26,-43 46,-57 20,-14 45,-24 74,-30 29,-6 62,-9 100,-9 27,0 55,3 84,8 29,5 57,15 84,29 3,2 6,4 7,7 2,3 2,5 2,8 0,3 -1,6 -3,9 -2,2 -6,3 -9,3 -2,0 -5,-1 -10,-2 -7,-4 -17,-8 -29,-12 -12,-4 -25,-8 -39,-11 -14,-3 -28,-6 -44,-8 -15,-2 -30,-3 -45,-3zm400 293c0,11 0,22 -1,35 0,12 -2,25 -5,37 -3,12 -7,24 -12,36 -6,11 -13,21 -23,30 -10,9 -23,16 -38,21 -15,5 -34,8 -57,8 -4,0 -8,0 -12,0 -4,0 -7,0 -10,-2 -3,-1 -5,-3 -7,-5 -2,-2 -3,-5 -3,-9 0,-4 1,-7 3,-9 2,-2 4,-4 7,-5 3,-1 6,-1 10,-1 4,0 8,0 12,0 26,0 45,-4 59,-12 13,-8 23,-18 29,-31 6,-13 9,-27 10,-43 0,-16 1,-32 1,-48l0 -287c0,-7 1,-12 3,-17 2,-5 8,-7 16,-7 9,0 14,2 16,7 2,5 2,10 2,17l0 287zm-44 -416c0,-7 2,-13 7,-18 5,-5 11,-7 18,-7 7,0 13,2 18,7 5,5 7,11 7,18 0,7 -3,13 -7,17 -5,4 -11,6 -18,6 -7,0 -13,-2 -18,-6 -5,-4 -7,-10 -7,-17zm200 356c0,15 4,27 11,38 8,10 18,18 32,25 14,6 30,11 49,14 19,3 39,4 61,4 27,0 51,-2 72,-6 21,-4 39,-9 55,-14 16,-6 29,-12 40,-19 11,-7 20,-14 27,-20l0 -92c-31,-5 -63,-9 -96,-14 -33,-4 -66,-6 -100,-6 -24,0 -45,1 -64,4 -19,3 -34,8 -47,14 -13,7 -23,16 -30,28 -7,12 -10,26 -10,44zm197 -233c-30,0 -55,1 -76,2 -21,1 -39,3 -54,6 -15,2 -27,5 -38,8 -10,3 -19,6 -27,8 -4,0 -7,-2 -10,-6 -3,-4 -5,-8 -5,-12 0,-4 2,-7 6,-9 3,-1 8,-3 17,-6 9,-3 22,-6 38,-9 17,-3 37,-6 62,-8 24,-2 53,-3 87,-3 16,0 31,1 47,3 15,2 30,6 44,11 14,5 27,12 38,22 12,9 22,21 31,36 9,15 15,32 20,53 5,21 7,45 7,73l0 133c0,4 0,7 0,11 0,4 -1,7 -3,10 -1,3 -3,6 -6,8 -3,2 -6,3 -10,3 -7,0 -12,-3 -15,-10 -3,-6 -4,-15 -4,-24l0 -32c-6,8 -14,16 -24,24 -10,8 -22,16 -37,23 -15,7 -33,12 -54,17 -21,4 -46,7 -75,7 -27,0 -52,-2 -76,-6 -24,-4 -44,-10 -61,-19 -18,-9 -31,-20 -41,-33 -10,-14 -15,-30 -15,-49 0,-22 5,-41 14,-56 9,-15 22,-27 39,-36 17,-9 36,-15 58,-19 22,-4 47,-6 73,-6 19,0 39,0 58,0 20,0 38,2 56,5 18,3 34,7 48,11 15,5 27,10 37,16 0,-32 -4,-58 -12,-77 -8,-19 -19,-35 -33,-46 -14,-11 -30,-18 -48,-22 -18,-4 -37,-5 -56,-5zm367 304c0,9 -1,17 -3,23 -2,6 -7,9 -15,9 -5,0 -8,-1 -11,-3 -2,-2 -4,-4 -6,-7 -1,-3 -2,-6 -2,-10 0,-4 0,-8 0,-12l0 -451c0,-5 0,-9 0,-13 0,-4 1,-7 3,-10 1,-3 3,-5 6,-7 3,-2 6,-3 11,-3 4,0 7,1 9,3 2,2 4,4 5,7 1,3 2,7 2,10 0,4 0,8 0,12l0 451zm190 3c0,4 0,8 0,11 0,4 -1,7 -2,9 -1,3 -3,5 -5,6 -2,2 -6,2 -11,2 -9,0 -14,-3 -16,-8 -2,-5 -3,-12 -3,-21l0 -297c0,-8 1,-14 3,-20 2,-6 8,-8 16,-8 8,0 13,3 15,8 2,6 3,12 3,19l0 298zm-43 -430c0,-7 2,-13 7,-18 5,-5 10,-7 18,-7 7,0 13,2 18,7 5,5 7,11 7,18 0,7 -2,13 -7,17 -5,4 -11,6 -18,6 -7,0 -13,-2 -18,-6 -5,-4 -7,-10 -7,-17zm193 459c-5,0 -10,-2 -14,-6 -4,-4 -6,-9 -6,-15 0,-8 4,-15 12,-23l317 -280 -299 0c-5,0 -9,0 -13,0 -4,0 -8,0 -11,-1 -3,-1 -6,-2 -7,-4 -2,-2 -3,-5 -3,-9 0,-5 1,-8 3,-10 2,-2 4,-4 7,-5 3,-1 6,-1 10,-1 4,0 8,0 13,0l326 0c7,0 13,2 17,6 4,4 6,9 6,14 0,8 -4,15 -11,21l-320 282 303 0c5,0 9,0 13,0 4,0 8,0 11,1 3,1 6,3 7,5 2,2 3,6 3,10 0,4 -1,7 -3,9 -2,2 -5,3 -8,4 -3,1 -7,1 -10,1 -4,0 -8,0 -12,0l-332 0zm507 -104c0,15 4,27 11,38 8,10 18,18 32,25 14,6 30,11 49,14 19,3 39,4 61,4 27,0 51,-2 72,-6 21,-4 39,-9 55,-14 16,-6 29,-12 40,-19 11,-7 20,-14 27,-20l0 -92c-31,-5 -63,-9 -96,-14 -33,-4 -66,-6 -100,-6 -24,0 -45,1 -64,4 -19,3 -34,8 -47,14 -13,7 -23,16 -30,28 -7,12 -10,26 -10,44zm197 -233c-30,0 -55,1 -76,2 -21,1 -39,3 -54,6 -15,2 -27,5 -38,8 -10,3 -19,6 -27,8 -4,0 -7,-2 -10,-6 -3,-4 -5,-8 -5,-12 0,-4 2,-7 6,-9 3,-1 8,-3 17,-6 9,-3 22,-6 38,-9 17,-3 37,-6 62,-8 24,-2 53,-3 87,-3 16,0 31,1 47,3 15,2 30,6 44,11 14,5 27,12 38,22 12,9 22,21 31,36 9,15 15,32 20,53 5,21 7,45 7,73l0 133c0,4 0,7 0,11 0,4 -1,7 -3,10 -1,3 -3,6 -6,8 -3,2 -6,3 -10,3 -7,0 -12,-3 -15,-10 -3,-6 -4,-15 -4,-24l0 -32c-6,8 -14,16 -24,24 -10,8 -22,16 -37,23 -15,7 -33,12 -54,17 -21,4 -46,7 -75,7 -27,0 -52,-2 -76,-6 -24,-4 -44,-10 -61,-19 -18,-9 -31,-20 -41,-33 -10,-14 -15,-30 -15,-49 0,-22 5,-41 14,-56 9,-15 22,-27 39,-36 17,-9 36,-15 58,-19 22,-4 47,-6 73,-6 19,0 39,0 58,0 20,0 38,2 56,5 18,3 34,7 48,11 15,5 27,10 37,16 0,-32 -4,-58 -12,-77 -8,-19 -19,-35 -33,-46 -14,-11 -30,-18 -48,-22 -18,-4 -37,-5 -56,-5zm546 0c-36,0 -66,3 -91,9 -25,6 -46,15 -61,28 -16,13 -27,29 -35,49 -7,20 -11,44 -11,72 0,28 4,52 12,72 8,20 20,36 37,48 16,12 37,21 62,27 25,6 54,8 87,8 15,0 30,-1 45,-3 15,-2 30,-5 44,-8 14,-3 27,-7 39,-11 12,-4 21,-8 29,-12 5,-2 8,-2 10,-2 4,0 7,1 9,3 2,2 3,5 3,9 0,2 -1,5 -2,8 -2,3 -4,5 -7,7 -27,14 -55,24 -84,29 -29,5 -57,8 -84,8 -35,0 -67,-3 -96,-8 -29,-6 -54,-15 -74,-29 -21,-14 -37,-33 -48,-56 -11,-23 -17,-53 -17,-89 0,-36 5,-66 16,-89 11,-24 26,-43 46,-57 20,-14 45,-24 74,-30 29,-6 62,-9 100,-9 27,0 55,3 84,8 29,5 57,15 84,29 3,2 6,4 7,7 2,3 2,5 2,8 0,3 -1,6 -3,9 -2,2 -6,3 -9,3 -2,0 -5,-1 -10,-2 -7,-4 -17,-8 -29,-12 -12,-4 -25,-8 -39,-11 -14,-3 -28,-6 -44,-8 -15,-2 -30,-3 -45,-3zm400 293c0,11 0,22 -1,35 0,12 -2,25 -5,37 -3,12 -7,24 -12,36 -6,11 -13,21 -23,30 -10,9 -23,16 -38,21 -15,5 -34,8 -57,8 -4,0 -8,0 -12,0 -4,0 -7,0 -10,-2 -3,-1 -5,-3 -7,-5 -2,-2 -3,-5 -3,-9 0,-4 1,-7 3,-9 2,-2 4,-4 7,-5 3,-1 6,-1 10,-1 4,0 8,0 12,0 26,0 45,-4 59,-12 13,-8 23,-18 29,-31 6,-13 9,-27 10,-43 0,-16 1,-32 1,-48l0 -287c0,-7 1,-12 3,-17 2,-5 8,-7 16,-7 9,0 14,2 16,7 2,5 2,10 2,17l0 287zm-44 -416c0,-7 2,-13 7,-18 5,-5 11,-7 18,-7 7,0 13,2 18,7 5,5 7,11 7,18 0,7 -3,13 -7,17 -5,4 -11,6 -18,6 -7,0 -13,-2 -18,-6 -5,-4 -7,-10 -7,-17zm379 123c-29,0 -54,2 -76,7 -22,5 -41,13 -57,24 -16,11 -28,25 -36,42 -9,17 -14,38 -15,63l349 0 0 -25c0,-15 -3,-30 -9,-44 -6,-13 -15,-25 -28,-36 -13,-10 -30,-18 -51,-24 -21,-6 -47,-9 -77,-9zm-24 314c29,0 55,-2 77,-6 22,-4 41,-8 56,-13 16,-5 29,-11 39,-16 10,-6 18,-10 23,-14 2,-1 3,-1 4,-1 3,0 7,2 9,5 3,3 4,7 4,10 0,3 -2,6 -5,8 -3,3 -9,7 -18,13 -9,6 -22,12 -39,18 -17,6 -38,11 -63,16 -25,5 -55,7 -89,7 -36,0 -66,-4 -91,-13 -25,-9 -45,-21 -61,-37 -16,-16 -27,-35 -34,-58 -7,-23 -11,-47 -11,-74 0,-36 6,-66 17,-89 11,-24 27,-43 47,-57 20,-14 43,-24 70,-30 27,-6 56,-9 87,-9 64,0 112,12 144,36 32,24 48,59 48,104 0,4 0,9 -1,14 -1,5 -1,10 -3,15 -1,5 -2,9 -4,12 -1,3 -3,5 -4,5l-136 0 -230 0c1,28 4,52 11,72 7,20 17,36 31,48 13,12 30,21 50,27 20,6 43,8 69,8z"/>
  </g>
 </g>
</svg>
