<?xml version="1.0" encoding="UTF-8"?>
<!DOCTYPE svg PUBLIC "-//W3C//DTD SVG 1.1//EN" "http://www.w3.org/Graphics/SVG/1.1/DTD/svg11.dtd">
<!-- Creator: CorelDRAW X5 -->
<svg xmlns="http://www.w3.org/2000/svg" xml:space="preserve" width="104mm" height="20mm" style="shape-rendering:geometricPrecision; text-rendering:geometricPrecision; image-rendering:optimizeQuality; fill-rule:evenodd; clip-rule:evenodd"
viewBox="0 0 10400 2000"
 xmlns:xlink="http://www.w3.org/1999/xlink">
 <defs>
  <style type="text/css">
   <![CDATA[
    .str0 {stroke:#4D4948;stroke-width:25}
    .fil0 {fill:none}
    .fil1 {fill:#4D4948}
    .fil2 {fill:#4D4948;fill-rule:nonzero}
   ]]>
  </style>
 </defs>
 <g id="Layer_x0020_1">
  <metadata id="CorelCorpID_0Corel-Layer"/>
  <rect class="fil0" width="10400" height="2000"/>
  <g id="_387629640">
   <polygon id="_101811584" class="fil1" points="1985,474 1985,474 1984,474 1984,474 "/>
   <path id="_101811536" class="fil1" d="M2251 718c0,0 0,1 -1,1 -2,3 -4,5 -2,10 -13,3 -5,18 -4,31 2,21 3,29 3,52 0,5 1,8 1,13 0,12 -1,21 0,32 0,3 -1,6 -1,10 0,14 1,34 -2,47 -1,3 -3,13 -3,17 4,1 6,-1 11,-5 6,-5 12,-12 18,-19 3,-3 6,-7 8,-11l7 -12c2,-4 4,-9 6,-13 3,-6 9,-22 10,-27 2,-9 6,-23 6,-32 0,-11 2,-25 -1,-36 -1,-3 -1,-5 -1,-7 -1,-4 -1,-4 -3,-7l-4 -11c-3,-8 -9,-13 -15,-18 -1,-1 0,0 -1,-1l-3 -1 -4 3c-2,-2 -7,-5 -13,-8 -5,-3 -10,-5 -15,-7l3 -1z"/>
   <path id="_101811488" class="fil1" d="M1627 946l-2 -10c0,-6 -3,-9 -3,-15 0,-8 -5,-22 -6,-30 0,-3 0,-5 -1,-8l-5 -22c-1,-6 -1,-11 -2,-16 -1,-5 -2,-10 -2,-16 0,-6 0,-11 -1,-17 -1,-11 -2,-22 -2,-33l4 -23c2,-9 4,-10 -5,-14 -4,-2 -11,-2 -16,-2 -10,0 -17,8 -22,15 -8,10 -11,24 -12,37 0,2 0,4 0,6 -2,12 0,24 1,36 1,11 4,20 6,31 1,3 2,3 3,7 2,9 6,19 10,27 3,6 11,18 15,24l4 -2c1,3 10,9 19,16 6,4 12,8 17,12l0 -3z"/>
   <path id="_101811440" class="fil1" d="M1892 1420c2,-1 4,-4 6,-8l0 0c4,-5 8,-13 8,-12l2 -4 8 -6c2,1 6,5 9,7 5,3 5,-3 12,-1 3,1 13,13 16,16 5,5 10,11 16,16l14 15c15,17 33,33 48,51l15 17c2,3 14,15 14,18 0,3 -2,6 -3,8l-83 137c-7,10 -11,21 -18,30l-17 31c-3,4 -6,13 -10,15 -9,0 -8,0 -12,-6l-27 -44c-1,-1 -1,-2 -1,-3 -1,-1 -1,-1 -2,-3l-22 -36c-1,-2 -1,-1 -2,-3 -7,-10 -13,-22 -20,-33l-48 -78c-6,-11 2,-10 10,-22 5,-7 11,-12 17,-19 1,-2 3,-3 4,-5 0,0 1,-1 1,-1l40 -47c3,-3 6,-6 8,-10 4,-5 11,-12 16,-18l1 1 0 -3z"/>
   <path id="_101811392" class="fil1" d="M1909 1396l2 -4c-6,-3 -14,8 -20,15l0 0c-2,3 -4,6 -5,6l3 4 -3 3c-1,1 -1,1 -2,2 -1,1 -2,2 -3,4l-43 45c0,0 -1,1 -1,1 -1,1 -2,2 -3,4 -1,2 -2,2 -3,4l-37 39c-2,3 -5,5 -8,6 -1,-2 -1,-2 -2,-3 -6,-9 -10,-20 -16,-29l-4 -7c-1,-1 -1,-2 -2,-4l-52 -94c-1,-1 -1,-2 -2,-4l-46 -84c-1,-1 -3,-7 -3,-8 8,-5 21,-8 28,-12 3,-2 3,-2 7,-2 8,0 15,6 22,9 9,4 23,12 32,16 7,4 14,7 21,11l10 5c3,1 3,2 5,3 3,1 3,2 5,3l42 22c2,1 3,2 5,3 3,1 3,2 6,3 9,4 34,19 42,22 4,1 7,4 10,6l11 5c9,5 7,3 12,5l-8 6 0 -1z"/>
   <path id="_101811344" class="fil1" d="M1603 1305c0,0 -1,0 -3,1 -3,1 -1,1 -4,2 -2,1 -3,1 -5,2 -2,1 -2,1 -4,2l-93 43c-3,2 -6,3 -8,4l-12 6c-2,1 -2,0 -4,2 0,4 3,5 5,7l94 94c6,6 69,68 75,76 2,3 4,4 6,7 1,1 0,0 1,2 13,16 28,30 41,45l2 3c1,1 2,2 3,3l18 20c5,6 13,13 18,20l30 33c3,3 3,4 6,7l9 10c1,1 2,2 3,3 1,1 2,2 3,3 1,1 2,2 3,3l19 21c1,1 1,1 2,2 1,1 2,2 3,4l12 13c6,6 7,10 16,10l57 2c7,0 1,-8 -1,-11 -3,-4 -6,-12 -9,-17 -1,-1 -1,-2 -2,-4l-14 -25c-1,-3 -1,-2 -2,-5l-7 -13c-3,-6 -6,-11 -9,-17l-27 -49c-1,-1 -1,-1 -1,-2l-9 -17c-2,-4 -5,-8 -7,-13 -1,-3 -1,-2 -3,-4 -1,-2 -1,-2 -2,-4 -1,-1 -2,-3 -3,-4l-14 -26c-1,-2 -1,-2 -2,-4 -1,-2 -2,-3 -3,-4 -1,-2 0,-2 -2,-4 -1,-2 -1,-2 -3,-4 -2,-3 -4,-6 -5,-9l-51 -81c-2,-3 -3,-5 -5,-8l-15 -25c-4,-5 -8,-11 -11,-16l-36 -57c-4,-8 -13,-19 -18,-30 -6,2 -12,4 -17,6 -7,3 -12,4 -14,1l0 0c0,0 0,-1 0,-1l-1 -3z"/>
   <path id="_101811296" class="fil1" d="M1611 1300c0,-1 0,-1 1,-1 0,2 0,3 -1,1l0 0z"/>
   <path id="_101811248" class="fil1" d="M2222 1298c-3,5 -7,11 -8,13l-18 27c-1,1 -2,2 -2,3 -1,2 -1,2 -2,4 -5,8 -26,39 -29,44l-21 35c-1,2 -1,2 -2,4l-10 17c-4,9 -9,16 -14,25l-20 36c-1,2 -3,5 -4,7 -1,1 -1,2 -2,4 -1,2 -1,1 -2,3l-8 14c-1,1 -4,6 -4,8l-45 83c-6,12 -17,31 -24,44 -3,6 -10,19 -14,25 -2,3 -3,4 -4,7 -2,4 -7,11 -9,14l-13 21c-1,2 -4,5 -3,8 4,2 47,0 55,0 5,0 6,-2 8,-4l14 -15c19,-22 41,-43 61,-63 4,-4 8,-8 12,-12l65 -65c2,-2 4,-4 6,-6l68 -68c1,-1 1,-1 1,-1l49 -50c23,-24 47,-47 71,-71 6,-6 14,-14 21,-21 2,-2 1,-2 1,-5 -4,-1 -4,-1 -7,-3 -6,-3 -14,-6 -20,-9l-27 -12c-5,-2 -9,-3 -13,-6 -3,-1 -5,-2 -7,-3 -2,-1 -4,-2 -7,-3l-15 -7 0 2c-12,-2 -54,-18 -77,-27l-1 0 0 3z"/>
   <path id="_101811200" class="fil1" d="M2406 1368l0 0 0 0 -4 0c2,0 3,0 4,0l0 0 0 0 0 0c0,0 0,0 0,0z"/>
   <polygon id="_101811152" class="fil1" points="2406,1368 2406,1369 2406,1369 "/>
   <path id="_101811104" class="fil1" d="M2188 728c0,1 0,4 -1,8 10,5 17,14 28,16 4,17 12,6 10,51 -1,24 3,59 3,87 0,30 -7,52 -16,64l0 2c2,10 2,30 -30,115 -4,10 -8,22 -14,32l-11 21 -20 32c-6,10 -17,24 -23,32l-37 43 -16 15c-8,9 -16,15 -25,21l-11 7c-2,2 -3,3 -6,4 -1,1 -2,1 -3,1l-9 5c-5,2 -20,10 -26,11 -4,1 -4,1 -7,2 -4,2 -19,4 -24,4 -5,0 -12,2 -17,2 -14,0 -10,0 -22,-2 -4,0 -7,0 -11,-1 -6,-1 -20,-7 -26,-9 -2,-1 -2,0 -4,-1 -7,-3 -14,-5 -20,-9l-15 -8c-6,-4 -28,-20 -34,-24 -10,-9 -21,-18 -30,-28 -7,-8 -15,-16 -21,-25 -7,-10 -13,-16 -20,-26 -4,-7 -10,-14 -14,-21 -2,-3 -3,-5 -4,-7l-22 -40c-1,-2 -1,-2 -2,-4l-16 -36c-1,-2 -1,-3 -1,-5 -1,-1 -1,-2 -2,-4 -1,-2 -1,-3 -1,-5l-8 -21c-1,-2 -1,-3 -1,-5l-11 -35c-1,-4 -2,-5 -3,-9l-9 -37c-2,-10 -4,-19 -6,-28 -1,-3 -1,-7 -1,-11 -1,-3 -2,-5 -2,-9l-3 -32c0,-7 0,-16 1,-24 2,-15 3,-29 5,-44 1,-5 2,-7 2,-13 1,-9 9,-43 9,-51 0,-11 76,-14 89,-7 120,-2 146,26 204,21 107,-10 150,-37 252,-15l2 0z"/>
   <path id="_101811056" class="fil1" d="M2193 1288l-15 30c-1,1 -3,6 -4,7l-5 11c-1,2 -3,4 -6,11l-9 18c-1,3 -1,2 -2,4l-15 30c-5,10 -7,13 -12,22 -2,3 -2,4 -4,7l-27 46c-1,2 -1,1 -2,3l-21 35c-1,3 -3,5 -5,7 -6,-2 -24,-26 -30,-32l-30 -33c-2,-3 -5,-5 -7,-8l-37 -42c-3,-3 -13,-15 -14,-18l26 -14c9,-4 23,-13 33,-18l30 -16c2,-1 1,-1 4,-2 4,-1 7,-4 10,-5l30 -16c10,-5 19,-11 30,-16l50 -26c7,0 9,3 18,6l14 7 0 2z"/>
   <path id="_101811008" class="fil1" d="M1911 1330l23 0c11,0 28,-2 39,-6 6,-2 12,-2 17,-5l38 -17c2,-1 2,-1 3,-2 6,-4 19,-11 24,-15l16 -13c16,-13 31,-28 43,-44l2 -2c0,0 0,0 0,0l1 -1c4,-5 15,-19 18,-26l6 -10c1,-3 0,-2 4,-2 1,4 1,17 2,22 1,16 1,31 1,47 0,5 -7,8 -11,10 -4,3 -9,6 -14,8l-28 17c-5,3 -9,5 -13,8l-106 63c-2,1 -1,1 -3,2 -1,1 -2,1 -3,2l-24 14c-2,1 -5,3 -6,5 -8,8 -1,8 -13,3 -6,-3 -5,-6 -9,-8l-79 -43c-9,-6 -28,-16 -36,-22 -7,-5 -15,-9 -22,-13l-18 -11c-2,-1 -2,-1 -4,-2l-35 -22c-5,-3 -20,-11 -20,-15 0,-14 2,-28 2,-43 0,-7 0,-33 2,-38 3,2 7,10 9,13 1,2 3,5 4,7l14 21c2,2 4,4 5,6 2,2 3,5 5,7 3,4 8,8 10,12 4,7 16,17 22,23 8,8 16,14 24,21 3,2 3,3 6,5 3,2 4,3 7,5l17 11c2,1 2,0 4,2l7 4c3,2 4,2 7,4 2,1 2,1 4,2 2,1 3,1 5,2 2,1 1,1 4,2 4,1 9,3 13,5 4,2 5,1 8,3 6,2 22,6 29,6l-1 -2z"/>
   <path id="_101810960" class="fil1" d="M2235 793c0,16 1,20 -1,36l-2 23c0,4 -1,7 -2,11 -1,4 -1,7 -1,11l-4 20c-1,4 -1,7 -2,10 -1,-3 -4,-23 -4,-27 0,-10 -2,-20 -3,-29 -1,-5 -2,-8 -3,-13l-5 -27c-1,-5 -1,-9 -2,-14 -1,-3 -3,-10 -2,-13 0,0 7,-11 8,-15 1,-3 3,-10 5,-12 2,-1 3,-2 5,-3 4,-2 7,-7 9,0 1,5 5,39 5,44l-1 -2z"/>
   <polygon id="_101810912" class="fil1" points="2698,1795 2699,1796 "/>
   <path id="_101810864" class="fil1" d="M2381 391c1,6 1,79 0,85 -22,7 -45,15 -68,21l-51 16c-5,1 -13,5 -17,5 -2,-1 -3,-4 -4,-7 -32,-43 -151,-61 -199,-65 -28,-2 -58,-5 -87,-5 -30,0 -77,0 -107,3 -7,1 -15,1 -21,2 -55,4 -180,25 -203,70 -4,0 -28,-8 -34,-10 -11,-4 -23,-7 -34,-11 -44,-13 -89,-29 -134,-43l-50 -16c-3,-1 -15,-4 -16,-6 3,-2 123,-38 128,-40 21,-7 43,-13 64,-20l256 -80c21,-7 43,-13 64,-20l48 -15c4,-1 13,-5 16,-5 3,0 225,71 256,80 42,12 86,27 128,40l64 20 1 1z"/>
   <path id="_101810816" class="fil1" d="M2232 542c-14,2 -88,-2 -97,1 0,2 -1,12 0,13 1,2 11,1 13,1 12,0 78,-1 84,0 1,5 1,18 0,24l-54 0c-4,0 -2,2 -3,14 5,2 48,0 57,1l0 23c-14,2 -93,-1 -97,1 -1,2 -1,10 0,13 5,2 84,0 97,1 1,3 1,19 0,24l-56 0c-1,3 -1,11 0,14l56 0c1,6 0,33 0,41l-27 -4c-29,-3 -87,-2 -117,1 -38,3 -64,6 -101,12 -26,4 -27,8 -57,8 -16,0 -33,-6 -49,-8 -24,-3 -50,-8 -75,-10 -27,-2 -53,-5 -81,-5 -23,0 -53,-1 -76,3 -3,1 -11,2 -14,2 -1,-8 0,-157 0,-179 0,-32 87,-55 120,-61 72,-13 118,-16 192,-16 47,0 122,6 169,16 37,8 64,15 95,33 6,4 14,11 18,17 3,4 4,13 3,20z"/>
   <path id="_101810768" class="fil1" d="M2409 709c0,13 21,151 23,174 3,25 16,60 -25,64 -24,3 -42,-12 -39,-33 1,-7 2,-14 3,-22 2,-14 4,-29 6,-43 2,-14 4,-29 6,-44 2,-15 4,-29 6,-43 2,-14 4,-30 6,-43 2,-14 2,-8 -7,-15 -18,-12 -11,-40 10,-44 15,-3 27,8 29,19 2,8 0,15 -4,20 -4,5 -8,7 -14,10z"/>
   <path id="_101782208" class="fil1" d="M2410 393l0 252c0,0 -14,1 -14,-1l0 -188c0,-9 -1,-64 0,-68 3,0 12,3 14,4l0 1z"/>
   <path id="_101782160" class="fil1" d="M2511 433c-1,1 -83,29 -86,29 -1,-16 0,-39 0,-56 4,0 17,5 22,6l43 14c4,1 20,5 21,7z"/>
   <path id="_101782112" class="fil1" d="M1650 358c4,1 6,5 4,9 -1,4 -5,4 -9,6 -37,11 -75,24 -112,35 -7,2 -40,14 -45,12 -3,-1 -5,-5 -4,-9 1,-4 5,-5 9,-6 36,-11 75,-23 112,-35 7,-2 40,-14 45,-12z"/>
   <path id="_101782064" class="fil1" d="M1470 413c9,1 7,9 6,11 -2,3 -9,4 -13,6 -5,1 -25,8 -29,8 -4,-1 -7,-7 -4,-11 2,-3 8,-4 13,-6 4,-1 25,-8 28,-8l-1 0z"/>
  </g>
  <path id="_101781920" class="fil2 str0" d="M3701 1359c0,20 -4,38 -11,53 -7,15 -17,29 -30,40 -13,12 -28,21 -45,29 -17,8 -36,14 -57,19 -20,5 -42,8 -65,10 -23,2 -46,3 -70,3 -33,0 -66,-2 -99,-5 -33,-3 -63,-8 -92,-13 -28,-5 -54,-11 -75,-16 -22,-6 -38,-11 -49,-17 -4,-2 -8,-5 -10,-8 -2,-3 -3,-7 -3,-10 0,-4 1,-7 3,-9 2,-3 5,-4 9,-4 2,0 4,0 6,1 12,5 29,10 52,16 22,6 48,11 77,16 28,5 59,9 91,13 32,3 64,5 96,5 31,0 60,-2 88,-6 28,-4 52,-11 73,-21 21,-10 38,-22 50,-38 12,-16 19,-36 19,-59 0,-20 -5,-36 -16,-48 -11,-12 -25,-23 -43,-30 -18,-8 -40,-13 -64,-17 -24,-4 -50,-7 -77,-9 -27,-2 -55,-3 -85,-3 -29,0 -57,-1 -85,-4 -27,-2 -53,-6 -77,-11 -24,-5 -46,-12 -64,-21 -18,-9 -33,-21 -43,-35 -11,-14 -16,-32 -16,-54 0,-20 4,-37 11,-53 7,-15 18,-28 31,-39 13,-11 28,-20 46,-28 18,-7 37,-13 58,-17 21,-4 43,-8 66,-9 23,-2 46,-3 69,-3 29,0 57,1 85,4 28,3 54,6 78,11 24,4 46,9 66,15 19,5 35,11 47,16 2,1 4,3 6,5 1,2 2,5 2,7 0,4 -2,8 -4,12 -3,4 -7,6 -12,6 -3,0 -6,-1 -8,-2 -16,-7 -34,-13 -54,-18 -20,-6 -41,-10 -63,-14 -22,-4 -45,-6 -69,-9 -24,-2 -47,-3 -70,-3 -32,0 -63,2 -92,6 -29,4 -55,10 -77,19 -22,9 -40,21 -54,36 -13,15 -20,34 -20,57 0,17 5,31 16,42 11,11 25,20 43,26 18,7 40,12 64,15 24,3 50,5 77,5 27,0 55,0 85,0 29,0 57,2 85,5 27,3 53,8 77,14 24,6 46,14 64,24 18,10 33,24 43,40 11,16 16,36 16,60l0 3zm329 -201c5,0 8,1 10,3 2,2 3,5 3,8 0,3 -1,5 -3,8 -2,2 -6,3 -10,3l-154 0 0 196c0,23 2,41 7,55 5,14 11,25 19,32 8,8 17,13 28,15 11,3 22,4 34,4 15,0 29,-3 43,-8 14,-5 31,-13 49,-23 4,-2 7,-3 11,-3 4,0 7,1 9,3 2,2 3,5 3,9 0,6 -3,11 -10,15 -13,7 -24,13 -34,17 -10,4 -19,8 -28,10 -9,3 -17,4 -25,5 -8,1 -16,1 -25,1 -17,0 -32,-2 -46,-7 -14,-5 -27,-12 -38,-22 -11,-10 -19,-24 -25,-41 -6,-17 -9,-38 -9,-63l0 -196 -41 0c-4,0 -8,-1 -10,-3 -2,-2 -3,-5 -3,-8 0,-3 1,-5 3,-8 2,-2 5,-3 10,-3l41 0 0 -115c0,-10 2,-16 6,-19 4,-3 8,-4 12,-4 5,0 10,1 13,4 3,3 5,9 5,19l0 115 154 0 1 1zm488 283c-6,8 -15,15 -25,24 -10,8 -22,15 -37,22 -15,7 -32,12 -52,17 -20,4 -43,7 -68,7 -33,0 -61,-3 -85,-9 -23,-6 -42,-16 -57,-30 -15,-13 -26,-31 -32,-51 -7,-21 -10,-46 -10,-75l0 -160c0,-4 0,-8 1,-12 0,-4 1,-8 3,-11 1,-3 3,-6 6,-8 3,-2 6,-3 10,-3 5,0 8,1 11,3 3,2 4,5 5,8 1,3 2,7 2,11 0,4 0,8 0,12l0 160c0,26 2,48 6,65 4,18 12,32 23,43 11,11 26,18 45,23 19,5 43,7 73,7 21,0 42,-2 60,-5 18,-4 35,-8 50,-14 15,-6 29,-12 41,-19 12,-7 22,-14 31,-21l0 -240c0,-4 0,-8 0,-12 0,-4 1,-8 2,-11 1,-3 3,-6 5,-8 2,-2 6,-3 9,-3 5,0 8,1 11,3 3,2 5,5 6,8 1,3 2,7 3,11 0,4 0,8 0,12l0 289c0,4 0,8 -1,12 0,4 -1,7 -3,10 -1,3 -3,6 -5,7 -2,2 -5,3 -9,3 -9,0 -14,-3 -16,-9 -2,-6 -3,-12 -3,-19l0 -4 0 -33zm373 68c-28,0 -54,-3 -79,-9 -25,-6 -47,-15 -65,-29 -19,-14 -34,-32 -45,-55 -11,-23 -16,-52 -16,-87 0,-34 5,-64 14,-87 9,-24 22,-43 40,-58 17,-15 39,-25 64,-32 25,-7 55,-10 87,-10 33,0 61,2 84,6 24,4 43,9 60,15 16,6 29,12 40,19 10,7 19,13 25,19l0 -178c0,-4 0,-8 0,-12 0,-4 1,-8 2,-11 1,-3 3,-6 5,-7 2,-2 6,-3 10,-3 5,0 8,1 11,3 3,2 4,4 6,7 1,3 2,6 2,10 0,4 0,8 0,13l0 459c0,10 -2,16 -6,20 -4,3 -8,5 -12,5 -5,0 -10,-2 -13,-5 -4,-3 -6,-10 -6,-19l0 -64c-3,14 -9,25 -18,35 -9,10 -19,18 -31,25 -12,7 -25,12 -39,17 -14,5 -28,8 -43,11 -14,3 -28,4 -42,4 -13,0 -25,0 -36,0l1 -2zm0 -26c18,0 39,-1 61,-4 22,-3 43,-7 63,-14 20,-7 38,-16 53,-28 15,-12 26,-28 32,-47l0 -167c-7,-6 -16,-11 -27,-18 -11,-6 -25,-12 -41,-17 -16,-6 -36,-10 -59,-13 -23,-3 -50,-5 -81,-5 -30,0 -55,3 -76,9 -21,6 -39,16 -52,29 -14,13 -24,30 -30,50 -6,20 -9,44 -9,72 0,29 4,54 13,73 9,20 21,35 36,47 15,12 33,20 54,25 21,5 42,8 65,8l-2 0zm597 -314c-29,0 -54,2 -76,7 -22,5 -41,13 -57,24 -16,11 -28,25 -36,42 -9,17 -14,38 -15,63l349 0 0 -25c0,-15 -3,-30 -9,-44 -6,-13 -15,-25 -28,-36 -13,-10 -30,-18 -51,-24 -21,-6 -47,-9 -77,-9l0 2zm-24 314c29,0 55,-2 77,-6 22,-4 41,-8 56,-13 16,-5 29,-11 39,-16 10,-6 18,-10 23,-14 2,-1 3,-1 4,-1 3,0 7,2 9,5 3,3 4,7 4,10 0,3 -2,6 -5,8 -3,3 -9,7 -18,13 -9,6 -22,12 -39,18 -17,6 -38,11 -63,16 -25,5 -55,7 -89,7 -36,0 -66,-4 -91,-13 -25,-9 -45,-21 -61,-37 -16,-16 -27,-35 -34,-58 -7,-23 -11,-47 -11,-74 0,-36 6,-66 17,-89 11,-24 27,-43 47,-57 20,-14 43,-24 70,-30 27,-6 56,-9 87,-9 64,0 112,12 144,36 32,24 48,59 48,104 0,4 0,9 -1,14 -1,5 -1,10 -3,15 -1,5 -2,9 -4,12 -1,3 -3,5 -4,5l-136 0 -230 0c1,28 4,52 11,72 7,20 17,36 31,48 13,12 30,21 50,27 20,6 43,8 69,8l3 -1zm753 -11c0,4 0,8 -1,12 -1,4 -2,8 -3,11 -1,3 -3,6 -6,8 -3,2 -6,3 -9,3 -5,0 -8,-1 -10,-3 -2,-2 -4,-5 -5,-8 -1,-3 -2,-7 -2,-11 0,-4 0,-8 0,-12l0 -160c0,-24 -2,-45 -5,-63 -3,-18 -10,-33 -21,-45 -10,-12 -25,-21 -43,-27 -18,-6 -42,-9 -72,-9 -18,0 -38,1 -58,4 -20,3 -40,8 -58,15 -18,7 -35,17 -49,29 -14,12 -24,27 -30,45l0 209c0,4 0,8 0,12 0,4 -1,8 -2,11 -1,3 -3,6 -5,8 -2,2 -5,3 -9,3 -4,0 -8,-1 -10,-3 -3,-2 -5,-5 -6,-8 -1,-3 -2,-7 -3,-11 0,-4 -1,-8 -1,-12l0 -300c0,-5 1,-10 3,-15 2,-4 8,-7 16,-7 8,0 12,2 15,6 2,4 3,9 3,15l0 58c9,-20 21,-36 36,-48 15,-12 32,-21 51,-27 18,-6 37,-10 56,-12 19,-2 36,-3 52,-3 33,0 61,3 84,9 23,6 41,15 55,28 14,13 24,31 30,53 6,22 9,49 9,81l0 160 -2 4zm359 -303c-36,0 -66,3 -91,9 -25,6 -46,15 -61,28 -16,13 -27,29 -35,49 -7,20 -11,44 -11,72 0,28 4,52 12,72 8,20 20,36 37,48 16,12 37,21 62,27 25,6 54,8 87,8 15,0 30,-1 45,-3 15,-2 30,-5 44,-8 14,-3 27,-7 39,-11 12,-4 21,-8 29,-12 5,-2 8,-2 10,-2 4,0 7,1 9,3 2,2 3,5 3,9 0,2 -1,5 -2,8 -2,3 -4,5 -7,7 -27,14 -55,24 -84,29 -29,5 -57,8 -84,8 -35,0 -67,-3 -96,-8 -29,-6 -54,-15 -74,-29 -21,-14 -37,-33 -48,-56 -11,-23 -17,-53 -17,-89 0,-36 5,-66 16,-89 11,-24 26,-43 46,-57 20,-14 45,-24 74,-30 29,-6 62,-9 100,-9 27,0 55,3 84,8 29,5 57,15 84,29 3,2 6,4 7,7 2,3 2,5 2,8 0,3 -1,6 -3,9 -2,2 -6,3 -9,3 -2,0 -5,-1 -10,-2 -7,-4 -17,-8 -29,-12 -12,-4 -25,-8 -39,-11 -14,-3 -28,-6 -44,-8 -15,-2 -30,-3 -45,-3l-1 -2zm350 307c0,4 0,8 0,11 0,4 -1,7 -2,9 -1,3 -3,5 -5,6 -2,2 -6,2 -11,2 -9,0 -14,-3 -16,-8 -2,-5 -3,-12 -3,-21l0 -297c0,-8 1,-14 3,-20 2,-6 8,-8 16,-8 8,0 13,3 15,8 2,6 3,12 3,19l0 298 0 1zm-43 -430c0,-7 2,-13 7,-18 5,-5 10,-7 18,-7 7,0 13,2 18,7 5,5 7,11 7,18 0,7 -2,13 -7,17 -5,4 -11,6 -18,6 -7,0 -13,-2 -18,-6 -5,-4 -7,-10 -7,-17z"/>
 </g>
</svg>
