<?xml version="1.0" encoding="UTF-8"?>
<!DOCTYPE svg PUBLIC "-//W3C//DTD SVG 1.1//EN" "http://www.w3.org/Graphics/SVG/1.1/DTD/svg11.dtd">
<!-- Creator: CorelDRAW -->
<svg xmlns="http://www.w3.org/2000/svg" xml:space="preserve" width="20mm" height="20mm" style="shape-rendering:geometricPrecision; text-rendering:geometricPrecision; image-rendering:optimizeQuality; fill-rule:evenodd; clip-rule:evenodd"
viewBox="0 0 20 20"
 xmlns:xlink="http://www.w3.org/1999/xlink">
 <defs>
  <style type="text/css">
   <![CDATA[
    .fil0 {fill:#4D4948}
    .fil1 {fill:white}
   ]]>
  </style>
 </defs>
 <g id="Layer_x0020_1">
  <metadata id="CorelCorpID_0Corel-Layer"/>
  <polygon class="fil0" points="0,0 20,0 20,20 0,20 "/>
  <path class="fil1" d="M3.4959 14.224c0.0698,0 0.2844,-0.4309 0.3173,-0.5314 0.0336,-0.1025 0.0611,-0.2486 0.0452,-0.3598 -0.0113,-0.0789 -0.0522,-0.3161 -0.1057,-0.3161 -0.0259,0 -0.1773,0.0694 -0.2568,0.0694 -0.0925,0 -0.2029,-0.0694 -0.2568,-0.0694 -0.0731,0 -0.1051,0.2234 -0.1184,0.3162 -0.0211,0.1473 0.0185,0.251 0.0516,0.3666 0.0317,0.1109 0.2462,0.5245 0.3236,0.5245zm2.0931 -2.0122c0,0.0953 0.7438,0.5697 0.8593,0.6535 0.1442,0.1047 0.3234,0.1791 0.4709,0.282 0.132,0.0921 0.3595,0.1639 0.5061,0.2442 0.261,0.1428 0.7898,0.2877 1.1219,0.3695 0.3567,0.088 0.8944,0.1438 1.318,0.1438 0.9228,0 1.9018,-0.2435 2.5665,-0.5293 0.3496,-0.1503 0.7448,-0.3161 1.0546,-0.5117 0.1404,-0.0886 0.912,-0.5239 0.912,-0.6659l0 -0.222c0,-0.0375 -0.0062,-0.0383 -0.0129,-0.0694l-0.0257 0c-0.0295,0.0881 -0.7846,0.5197 -0.9133,0.5812 -0.1675,0.0801 -0.3179,0.1687 -0.4939,0.2433 -0.1712,0.0725 -0.3525,0.1369 -0.5215,0.2136 -0.5332,0.2417 -1.6698,0.4884 -2.4245,0.4884l-0.3082 0c-0.1452,0 -0.2968,-0.0118 -0.4357,-0.0287 -0.1012,-0.0124 -0.312,-0.0548 -0.399,-0.0546 -0.2411,0.0007 -0.5537,-0.1526 -0.7576,-0.1526l-0.2974 -0.1039c-0.0986,-0.0071 -0.509,-0.1904 -0.6077,-0.2364 -0.1052,-0.0491 -0.1895,-0.0803 -0.2916,-0.129 -0.0992,-0.0472 -0.1816,-0.1044 -0.2748,-0.1471 -0.184,-0.0844 -0.9805,-0.6449 -1.0455,-0.6465l0 0.2776zm8.8093 -2.6506c0,-0.0375 -0.0062,-0.0383 -0.0129,-0.0694l-1.6845 0.5893c-0.092,0.0074 -0.5462,0.1988 -0.6708,0.2376 -0.2101,0.0655 -0.4651,0.1475 -0.6628,0.2274 -0.2159,0.0872 -0.4374,0.1435 -0.6609,0.2294 -0.1034,0.0397 -0.5758,0.2289 -0.6614,0.2289l-0.0899 0c-0.0627,0 -0.6247,-0.2047 -0.6677,-0.2359 -0.1052,0 -0.1509,-0.0626 -0.241,-0.0865 -0.0334,-0.0089 -0.0884,-0.0148 -0.1265,-0.0299 -0.0463,-0.0183 -0.0429,-0.0387 -0.1021,-0.0561 -0.0969,-0.0286 -0.1572,-0.0198 -0.2387,-0.0751 -0.0991,-0.0672 -0.1623,-0.0121 -0.2163,-0.0993 -0.1815,0 -0.215,-0.0843 -0.3594,-0.0973 -0.0962,-0.0087 -0.2431,-0.0897 -0.3389,-0.1195 -0.2282,-0.071 -0.4611,-0.1785 -0.681,-0.2355 -0.101,-0.0263 -0.2324,-0.0828 -0.3416,-0.1165 -0.1155,-0.0356 -0.2197,-0.0786 -0.3377,-0.1208 -0.1044,-0.0373 -0.603,-0.2263 -0.6766,-0.2263 -0.0296,0 -0.0386,0.0096 -0.0386,0.0416l0 1.6792c0,0.1368 0.6603,0.5401 0.7868,0.6347 0.2342,0.1752 0.6198,0.367 0.8994,0.499 0.1645,0.0776 0.3121,0.1423 0.4937,0.2019 0.152,0.0499 0.3581,0.1113 0.5216,0.1719 0.1878,0.0697 0.9364,0.1994 1.1767,0.1994l0.7704 0 0.7054 -0.0788c0.0775,-0.046 0.2415,-0.06 0.3733,-0.06 0.1255,-0.0908 0.2942,-0.0792 0.4371,-0.1382 0.1333,-0.0551 0.2885,-0.0956 0.4329,-0.1428 0.2704,-0.0882 0.5454,-0.2363 0.8071,-0.349 0.1951,-0.0841 1.4049,-0.7856 1.4049,-0.9104l0 -1.693zm-0.655 -2.5812c-0.0759,0 -0.8069,-0.2734 -0.9376,-0.319 -0.3029,-0.1058 -0.6212,-0.2351 -0.9295,-0.3277 -0.2974,-0.0894 -0.6418,-0.2152 -0.9305,-0.3267 -0.1038,-0.0401 -0.8689,-0.3172 -0.9264,-0.3172l-0.077 0c-0.0578,0 -0.327,0.1526 -0.4623,0.1526l0 0.0278 -0.9918 0.337 -0.2171 0.0727 -0.7142 0.2527 -3.2363 1.1371c-0.1644,0.1076 -1.0858,0.3275 -1.1586,0.4347l0.978 0.3403 0.2315 0.0825 2.6837 0.9437 0.062 0.0074 0.1152 0.0839c0.078,-0.0006 0.2017,0.014 0.2187,0.0826l0.077 0c0.1211,0 0.2078,0.0792 0.3034,0.1163 0.0737,0.0286 0.0719,-0.0047 0.1632,0.0456 0.0397,0.0218 0.0977,0.0588 0.1415,0.0692 0.2527,0.0596 0.4188,0.1084 0.6351,0.2017 0.185,0.0799 0.4516,0.1247 0.6256,0.2121 0.0378,0.0191 0.5997,0.2155 0.6096,0.2155 0.052,0 0.1503,-0.0832 0.244,-0.0832l1.6584 -0.5905 1.7809 -0.6242 1.892 -0.6656 1.2553 -0.4405c-0.0436,-0.0626 -1.1356,-0.4235 -1.3072,-0.4842 -0.1675,-0.0593 -1.2357,-0.4562 -1.3243,-0.4562l-0.4623 -0.1804zm-10.8766 1.5542c-0.2508,-0.1814 -0.5265,-0.0298 -0.5265,-0.5273 0.0701,-0.1132 0.026,-0.1153 0.1462,-0.2028 0.0604,-0.0439 0.1562,-0.067 0.2298,-0.0986 0.1378,-0.0591 0.3489,-0.123 0.4872,-0.1674 0.3246,-0.1043 0.6378,-0.2419 0.9681,-0.3415 0.3265,-0.0985 0.6492,-0.2332 0.9699,-0.3396 0.1334,-0.0442 0.3586,-0.1148 0.482,-0.173 0.1484,-0.07 0.3321,-0.1013 0.487,-0.1675 0.3138,-0.1341 0.6657,-0.2117 0.9773,-0.3456 0.1115,-0.0479 0.3787,-0.1456 0.4816,-0.1734 0.1811,-0.0489 0.3116,-0.11 0.4905,-0.1638 0.1396,-0.042 0.3414,-0.1194 0.481,-0.1741 0.1552,-0.0608 0.3296,-0.1033 0.4883,-0.1661 0.1242,-0.0491 0.8799,-0.3315 0.9774,-0.3315 0.0525,0 2.956,1.0193 3.0049,1.0547l2.1727 0.755 0.0488 0.0083 0.7086 0.2561 0.0491 0.0075c0.0886,0.0641 0.3385,0.1176 0.4601,0.1689 0.1473,0.0623 0.3018,0.1057 0.4496,0.1664 0.2376,0.0974 0.7597,0.1529 0.7597,0.4835l0 0.0555c0,0.139 -0.1149,0.2584 -0.2139,0.2963 -0.1012,0.0387 -0.2644,0.1007 -0.3612,0.1231 -0.2133,0.0494 -0.5061,0.206 -0.7227,0.2597 -0.2136,0.053 -0.5153,0.1734 -0.7273,0.2549 -0.0932,0.0358 -0.6812,0.2456 -0.7358,0.2456l-0.0407 0.0534c0.0021,0.8718 0.0021,1.7414 0.0021,2.6111 0,0.2079 0.0338,0.4836 -0.0648,0.5821 -0.1116,0.1114 -0.2258,0.1815 -0.3461,0.2783 -0.1948,0.1569 -0.5283,0.3615 -0.7556,0.4879 -1.0342,0.5749 -2.2492,1.0803 -3.8159,1.0803 -0.2183,0 -0.8496,-0.0201 -0.9998,-0.0714 -0.0709,-0.0242 -0.3602,-0.0752 -0.4408,-0.0927 -0.1329,-0.0288 -0.3316,-0.0485 -0.4214,-0.1135 -0.2414,0 -1.1197,-0.4336 -1.3357,-0.541 -0.3921,-0.1951 -0.7865,-0.4893 -1.1352,-0.7439 -0.096,-0.0701 -0.1739,-0.1407 -0.2619,-0.2165 -0.1062,-0.0913 -0.1568,-0.1184 -0.1568,-0.3301 -0.0002,-0.3285 0.0003,-0.6571 0.0003,-0.9856 0,-0.6569 0,-1.3138 0,-1.9706l-0.0283 -0.025 -1.3567 -0.4672 -0.0019 0.0758 -0.0126 0.1943 -0.0003 0.0833 0.0087 0.8742 -0.0087 1.485 0.0123 0.1943 0.0006 0.2775c0.0884,0.0222 0.1923,0.1521 0.2337,0.2331 0.0616,0.1204 0.0467,0.2955 0.0947,0.3695 0.1159,0.179 0.2495,0.3804 0.2495,0.6741l0 0.2221c0,0.3127 -0.1517,0.5545 -0.2646,0.7549 -0.0583,0.1036 -0.1309,0.2077 -0.2074,0.2893 -0.0338,0.0361 -0.2216,0.2397 -0.2343,0.2603l-0.1409 0.017c-0.1546,0.0177 -0.4724,-0.443 -0.5474,-0.5638 -0.1186,-0.1908 -0.2748,-0.547 -0.2748,-0.8549 0,-0.1739 0.0458,-0.365 0.095,-0.494 0.0726,-0.1907 0.1249,-0.2239 0.2132,-0.3664 0,-0.4313 0.321,-0.5031 0.321,-0.6106l0 -3.2196c0,-0.1342 -0.2792,-0.1361 -0.3596,-0.1943l-0.0513 0z"/>
 </g>
</svg>
