<?xml version="1.0" encoding="UTF-8"?>
<!DOCTYPE svg PUBLIC "-//W3C//DTD SVG 1.1//EN" "http://www.w3.org/Graphics/SVG/1.1/DTD/svg11.dtd">
<!-- Creator: CorelDRAW -->
<svg xmlns="http://www.w3.org/2000/svg" xml:space="preserve" width="20mm" height="20mm" style="shape-rendering:geometricPrecision; text-rendering:geometricPrecision; image-rendering:optimizeQuality; fill-rule:evenodd; clip-rule:evenodd"
viewBox="0 0 20 20"
 xmlns:xlink="http://www.w3.org/1999/xlink">
 <defs>
  <style type="text/css">
   <![CDATA[
    .fil1 {fill:white}
    .fil0 {fill:#45909B}
   ]]>
  </style>
 </defs>
 <g id="Layer_x0020_1">
  <metadata id="CorelCorpID_0Corel-Layer"/>
  <g id="_103546464">
   <rect id="_103548840" class="fil0" x="3.49039e-005" y="-3.40405e-005" width="20" height="20"/>
   <path id="_103494928" class="fil1" d="M4.5348 3.8106l2.7655 0 0 12.3789c-1.0952,-0.2924 -2.7655,-1.9693 -2.7655,-3.2923l0 -9.0866zm-0.5267 9.2183c0,1.4719 1.9949,3.6873 3.2922,3.6873 0.3083,0 0.5268,-0.2185 0.5268,-0.5267l0 -12.3789c0,-0.3082 -0.2185,-0.5268 -0.5268,-0.5268l-2.7655 0c-0.3082,0 -0.5267,0.2186 -0.5267,0.5268l0 9.2183zm4.4774 -4.7408l3.0289 0 0 7.7697 -3.0289 0 0 -7.7697zm-0.1316 7.9014l3.2922 0 0 -8.0331 -3.2922 0 0 8.0331zm0.1316 -0.1317l3.0289 0 0 -7.7697 -3.0289 0 0 7.7697zm4.2141 -12.2472l2.6338 0 0 9.0866c0,1.3977 -1.4871,2.8934 -2.6338,3.1606l0 -12.2472zm-0.1317 12.9056c1.2989,0 3.424,-2.3765 3.424,-3.6873l0 -9.2183c0,-0.4048 -0.3858,-0.5268 -0.7902,-0.5268l-2.3704 0c-0.4043,0 -0.7902,0.122 -0.7902,0.5268l0 12.3789c0,0.3082 0.2186,0.5267 0.5268,0.5267z"/>
  </g>
 </g>
</svg>
