<?xml version="1.0" encoding="UTF-8"?>
<!DOCTYPE svg PUBLIC "-//W3C//DTD SVG 1.1//EN" "http://www.w3.org/Graphics/SVG/1.1/DTD/svg11.dtd">
<!-- Creator: CorelDRAW X5 -->
<svg xmlns="http://www.w3.org/2000/svg" xml:space="preserve" width="50mm" height="55mm" style="shape-rendering:geometricPrecision; text-rendering:geometricPrecision; image-rendering:optimizeQuality; fill-rule:evenodd; clip-rule:evenodd"
viewBox="0 0 5000 5500"
 xmlns:xlink="http://www.w3.org/1999/xlink">
 <defs>
  <style type="text/css">
   <![CDATA[
    .str0 {stroke:#B2B3B3;stroke-width:20}
    .fil0 {fill:#FEFEFE}
   ]]>
  </style>
 </defs>
 <g id="Layer_x0020_1">
  <metadata id="CorelCorpID_0Corel-Layer"/>
  <path class="fil0 str0" d="M2760 2152c34,280 81,317 198,513 99,166 788,1247 829,1356 93,252 -13,389 -216,450 -181,54 -490,34 -693,34 -485,0 -972,3 -1457,0l-4 981c77,14 1825,0 1952,-1 330,-1 566,1 829,-141 207,-112 394,-287 508,-475 291,-480 304,-1037 3,-1517l-556 -909c-32,-51 -175,-267 -179,-312 -48,-38 -95,-288 -96,-369 -3,-155 0,-313 0,-469l-1122 0 3 858zm-800 -2141c-298,37 -555,306 -510,654 38,294 306,551 651,507 296,-38 552,-305 509,-651 -37,-298 -307,-553 -651,-510zm654 1290l-1193 0 0 3055 1193 0 0 -3055zm-1340 -6l-1203 0 0 1048 1203 0 0 -1048zm-1197 1249l1188 0 0 2931 -1188 0 0 -2931z"/>
 </g>
</svg>
