<?xml version="1.0" encoding="UTF-8"?>
<!DOCTYPE svg PUBLIC "-//W3C//DTD SVG 1.1//EN" "http://www.w3.org/Graphics/SVG/1.1/DTD/svg11.dtd">
<!-- Creator: CorelDRAW -->
<svg xmlns="http://www.w3.org/2000/svg" xml:space="preserve" width="130mm" height="42mm" style="shape-rendering:geometricPrecision; text-rendering:geometricPrecision; image-rendering:optimizeQuality; fill-rule:evenodd; clip-rule:evenodd"
viewBox="0 0 130 42"
 xmlns:xlink="http://www.w3.org/1999/xlink">
 <defs>
  <style type="text/css">
   <![CDATA[
    .fil0 {fill:#781E19}
    .fil3 {fill:#969594}
    .fil4 {fill:#1F1A17;fill-rule:nonzero}
    .fil2 {fill:#781E19;fill-rule:nonzero}
    .fil1 {fill:#969594;fill-rule:nonzero}
   ]]>
  </style>
 </defs>
 <g id="Layer_x0020_1">
  <metadata id="CorelCorpID_0Corel-Layer"/>
  <g id="_153199296">
   <polygon id="_153200568" class="fil0" points="1.6197,0.3794 27.8735,0.3794 27.8735,41.6206 1.6197,41.6206 "/>
   <path id="_153200496" class="fil1" d="M14.9251 19.7244c0.3351,0 0.6655,0.0211 0.9899,0.0617 0.3114,0.0392 0.6172,0.0964 0.9164,0.1706l0.5198 -0.9993 0.0329 -0.0634 0.0633 0.0328 1.3609 0.7063 0.0638 0.0332 -0.033 0.0634 -0.4209 0.8081c0.1766,0.0872 0.3494,0.1807 0.518,0.28 0.1739,0.1027 0.3427,0.2111 0.5062,0.3248l0.6667 -0.7336 0.048 -0.053 0.053 0.0482 1.1348 1.0303 0.0529 0.048 -0.0481 0.053 -0.6398 0.7041c0.1169,0.1248 0.2303,0.254 0.3399,0.3873 0.111,0.1352 0.217,0.2731 0.318,0.4136l0.9184 -0.4543 0.0639 -0.0316 0.0318 0.0641 0.6803 1.3742 0.0317 0.064 -0.0641 0.0317 -0.8318 0.4112c0.0687,0.1577 0.1322,0.3167 0.1899,0.4769 0.058,0.1608 0.1113,0.3255 0.1596,0.4938l1.16 -0.1194 0.0709 -0.0072 0.0074 0.0711 0.1579 1.5255 0.0073 0.0711 -0.0711 0.0073 -1.0429 0.1071c0.005,0.0751 0.009,0.152 0.012,0.2311 0.0037,0.0978 0.0056,0.1967 0.0056,0.297 0,0.0957 -0.0017,0.19 -0.0051,0.2831 -0.0028,0.076 -0.0066,0.1499 -0.0112,0.2222l1.0969 0.2972 0.0693 0.0187 -0.0186 0.0688 -0.4002 1.4806 -0.0188 0.0692 -0.0688 -0.0186 -0.9452 -0.2562c-0.0533,0.1867 -0.1133,0.3712 -0.18,0.5528 -0.0671,0.1832 -0.141,0.3634 -0.2211,0.5401l0.8551 0.4306 0.0637 0.0321 -0.0321 0.064 -0.689 1.3701 -0.0321 0.0638 -0.0638 -0.0321 -0.9533 -0.4804c-0.0988,0.1334 -0.2017,0.2638 -0.3084,0.3907 -0.1047,0.1244 -0.2147,0.2471 -0.3296,0.3679l0.6304 0.7747 0.045 0.0554 -0.0554 0.045 -1.1891 0.9686 -0.0554 0.045 -0.045 -0.0553 -0.6078 -0.7477c-0.1424,0.0972 -0.2883,0.1902 -0.4377,0.2786 -0.1491,0.0883 -0.3018,0.172 -0.4579,0.251l0.2791 0.9539 0.02 0.0685 -0.0687 0.0201 -1.4718 0.4307 -0.0683 0.02 -0.0201 -0.0688 -0.2422 -0.8294c-0.31,0.0806 -0.628,0.1432 -0.9526,0.1861 -0.3415,0.0451 -0.6885,0.0686 -1.0397,0.0686 -0.3298,0 -0.6552,-0.0205 -0.9749,-0.06 -0.3034,-0.0376 -0.6019,-0.0925 -0.8944,-0.1638l-0.2961 0.8496 -0.0235 0.0673 -0.0674 -0.0235 -1.4482 -0.5045 -0.0674 -0.0234 0.0235 -0.0674 0.3022 -0.8654c-0.1588,-0.0773 -0.3149,-0.1596 -0.468,-0.2468 -0.1554,-0.0887 -0.3068,-0.1818 -0.4539,-0.2793l-0.7296 0.7259 -0.0506 0.0505 -0.0504 -0.0507 -1.082 -1.0861 -0.0504 -0.0506 0.0506 -0.0504 0.6153 -0.6116c-0.129,-0.1318 -0.2524,-0.267 -0.37,-0.4051 -0.1201,-0.141 -0.236,-0.2872 -0.3473,-0.438l-0.7461 0.4026 -0.0627 0.0339 -0.0341 -0.063 -0.7294 -1.3482 -0.034 -0.0628 0.0631 -0.034 0.6952 -0.3749c-0.0727,-0.1608 -0.1404,-0.3255 -0.2031,-0.4936 -0.0634,-0.1703 -0.1209,-0.3417 -0.172,-0.5144l-1.0201 0.0554 -0.0713 0.0038 -0.0039 -0.0715 -0.0843 -1.5307 -0.004 -0.0718 0.072 -0.0038 0.8088 -0.0434c-0.0059,-0.0818 -0.0107,-0.1657 -0.0143,-0.2516 -0.0046,-0.108 -0.0069,-0.2175 -0.0069,-0.3283 0,-0.101 0.002,-0.2008 0.0057,-0.2994 0.0031,-0.081 0.0073,-0.1601 0.0124,-0.2371l-0.731 -0.0929 -0.0708 -0.0089 0.0089 -0.0707 0.1918 -1.5213 0.009 -0.0708 0.0708 0.009 0.8116 0.1036c0.0559,-0.1938 0.1193,-0.3852 0.1896,-0.5735 0.0702,-0.188 0.1471,-0.372 0.2303,-0.552l-0.7373 -0.3894 -0.0632 -0.0334 0.0333 -0.0631 0.7148 -1.3564 0.0334 -0.0634 0.0631 0.0334 0.8176 0.4324c0.1054,-0.1401 0.2152,-0.2766 0.3289,-0.4089 0.114,-0.1324 0.2322,-0.261 0.3546,-0.3858l-0.5263 -0.6944 -0.0431 -0.0569 0.0569 -0.0431 1.2207 -0.9275 0.057 -0.0433 0.0435 0.0573 0.4846 0.6403c0.1473,-0.0975 0.2989,-0.1908 0.4543,-0.2793 0.1556,-0.0887 0.3142,-0.172 0.4757,-0.25l-0.259 -0.838 -0.0211 -0.0679 0.0683 -0.0214 1.4642 -0.4543 0.0681 -0.0211 0.0212 0.0684 0.2374 0.7696c0.2896,-0.0699 0.5849,-0.1237 0.8849,-0.1604 0.3177,-0.039 0.641,-0.0591 0.9688,-0.0591zm0.9725 0.2039c-0.3185,-0.04 -0.6431,-0.0606 -0.9725,-0.0606 -0.3222,0 -0.6397,0.0196 -0.9515,0.058 -0.3176,0.0388 -0.629,0.0969 -0.9332,0.1731l-0.0656 0.0163 -0.02 -0.0647 -0.2363 -0.7656 -1.3276 0.4119 0.2561 0.8286 0.0183 0.0591 -0.0561 0.0266c-0.1779,0.0841 -0.3521,0.1749 -0.522,0.2717 -0.1702,0.0971 -0.3374,0.201 -0.5012,0.3114l-0.0561 0.038 -0.041 -0.0542 -0.482 -0.6367 -1.1068 0.8408 0.5204 0.6865 0.0374 0.0495 -0.0439 0.0441c-0.1354,0.1358 -0.2659,0.2766 -0.391,0.4222 -0.1254,0.1458 -0.2453,0.2959 -0.3595,0.4502l-0.0365 0.0494 -0.0542 -0.0286 -0.8083 -0.4275 -0.6482 1.2298 0.7343 0.388 0.0606 0.032 -0.0292 0.0617c-0.0934,0.1973 -0.1785,0.3985 -0.2548,0.6028 -0.0758,0.2028 -0.1434,0.41 -0.2025,0.6212l-0.0166 0.0595 -0.0612 -0.0078 -0.8017 -0.1024 -0.174 1.3795 0.7279 0.0925 0.0677 0.0086 -0.0051 0.0676c-0.0077,0.1018 -0.0135,0.2016 -0.0172,0.2989 -0.0038,0.0985 -0.0058,0.1968 -0.0058,0.2944 0,0.1071 0.0024,0.2147 0.0069,0.3227 0.0044,0.104 0.0112,0.2105 0.0201,0.3191l0.006 0.0734 -0.074 0.0039 -0.8106 0.0435 0.0764 1.3874 1.0052 -0.0544 0.0566 -0.0031 0.0158 0.0551c0.055,0.191 0.1165,0.3774 0.1841,0.5588 0.0686,0.1838 0.1444,0.3656 0.2272,0.5448l0.0281 0.061 -0.0592 0.0319 -0.6911 0.3726 0.6613 1.2224 0.7382 -0.3985 0.055 -0.0296 0.0368 0.0507c0.1189,0.1639 0.2449,0.324 0.3775,0.4796 0.133,0.1562 0.2705,0.3058 0.4123,0.4481l0.0504 0.0507 -0.0506 0.0503 -0.615 0.6115 0.9812 0.9849 0.7205 -0.7171 0.0417 -0.0415 0.0487 0.0329c0.1612,0.1086 0.3258,0.2108 0.4932,0.3063 0.1683,0.096 0.3406,0.186 0.5165,0.2696l0.0581 0.0276 -0.0211 0.0605 -0.2998 0.8583 1.3132 0.4574 0.2941 -0.8437 0.0216 -0.0618 0.0632 0.0161c0.3064,0.0772 0.6203,0.1363 0.9403,0.176 0.3138,0.0389 0.6334,0.0589 0.9576,0.0589 0.3473,0 0.6881,-0.0229 1.0212,-0.0668 0.3403,-0.0451 0.6747,-0.1125 1.0015,-0.2007l0.0674 -0.0182 0.0197 0.0673 0.2417 0.828 1.3348 -0.3906 -0.2758 -0.9428 -0.0167 -0.0571 0.0537 -0.0267c0.1705,-0.0846 0.3379,-0.1758 0.502,-0.273 0.1646,-0.0974 0.3258,-0.201 0.4832,-0.3104l0.0544 -0.0379 0.0419 0.0516 0.6044 0.7434 1.0783 -0.8784 -0.6252 -0.7683 -0.04 -0.0492 0.0442 -0.0457c0.125,-0.1291 0.2473,-0.2648 0.3664,-0.4064 0.1177,-0.1399 0.2305,-0.2839 0.3382,-0.4318l0.0357 -0.049 0.0544 0.0274 0.9435 0.4756 0.6248 -1.2426 -0.8529 -0.4294 -0.0618 -0.0311 0.0291 -0.0627c0.0895,-0.1929 0.1715,-0.3906 0.2454,-0.5921 0.073,-0.1993 0.1383,-0.4027 0.1954,-0.6101l0.019 -0.069 0.0686 0.0186 0.9446 0.2561 0.3629 -1.3425 -1.0847 -0.2939 -0.0574 -0.0154 0.0042 -0.0586c0.0066,-0.0943 0.0117,-0.1863 0.015,-0.2758 0.0034,-0.0931 0.0052,-0.1858 0.0052,-0.2781 0,-0.0968 -0.0019,-0.1942 -0.0056,-0.292 -0.0037,-0.0958 -0.0094,-0.1943 -0.0169,-0.2947l-0.0052 -0.0694 0.0696 -0.007 1.0409 -0.1069 -0.1432 -1.3836 -1.1485 0.1184 -0.0599 0.0061 -0.0162 -0.0582c-0.0507,-0.1818 -0.1086,-0.3626 -0.1734,-0.5421 -0.0653,-0.1812 -0.1365,-0.3578 -0.2131,-0.5294l-0.028 -0.0628 0.0616 -0.0304 0.8289 -0.4099 -0.617 -1.2463 -0.9088 0.4498 -0.0547 0.0271 -0.0354 -0.0501c-0.1109,-0.157 -0.2267,-0.3088 -0.3469,-0.4551 -0.1205,-0.1466 -0.2469,-0.2894 -0.3788,-0.4279l-0.0459 -0.0482 0.0448 -0.0492 0.6361 -0.7002 -1.029 -0.9341 -0.6611 0.7275 -0.0427 0.047 -0.0516 -0.0365c-0.1784,-0.1263 -0.3612,-0.2448 -0.548,-0.355 -0.1867,-0.1101 -0.3781,-0.2127 -0.5736,-0.3069l-0.0665 -0.032 0.034 -0.0654 0.4217 -0.8097 -1.2337 -0.6404 -0.513 0.9864 -0.0262 0.0505 -0.0549 -0.014c-0.311,-0.0797 -0.6293,-0.1406 -0.9536,-0.1812zm3.8572 2.8961c-0.6313,-0.6313 -1.3847,-1.1401 -2.2207,-1.4875 -0.8044,-0.3341 -1.6858,-0.5187 -2.609,-0.5187 -0.9232,0 -1.8046,0.1846 -2.6091,0.5187 -0.836,0.3473 -1.5893,0.8562 -2.2205,1.4875 -0.6313,0.6314 -1.1403,1.3847 -1.4876,2.2207 -0.3342,0.8044 -0.5188,1.6857 -0.5188,2.609 0,0.9232 0.1847,1.8046 0.5188,2.609 0.3473,0.8361 0.8563,1.5894 1.4876,2.2206 0.6312,0.6314 1.3846,1.1402 2.2206,1.4876 0.8044,0.334 1.6858,0.5186 2.609,0.5186 0.9232,0 1.8046,-0.1846 2.609,-0.5187 0.8361,-0.3474 1.5895,-0.8563 2.2207,-1.4875 0.6312,-0.6313 1.1402,-1.3847 1.4874,-2.2207 0.3342,-0.8043 0.5188,-1.6856 0.5188,-2.6089 0,-0.9233 -0.1846,-1.8047 -0.5188,-2.609 -0.3472,-0.836 -0.8562,-1.5894 -1.4874,-2.2207zm-2.1658 -1.6195c0.8538,0.3546 1.623,0.8741 2.2671,1.5183 0.6441,0.6441 1.1635,1.4131 1.5182,2.267 0.3413,0.8217 0.5299,1.7217 0.5299,2.6639 0,0.9422 -0.1886,1.8421 -0.5299,2.6639 -0.3546,0.8538 -0.8741,1.6228 -1.5182,2.2669 -0.6441,0.6442 -1.4133,1.1637 -2.2671,1.5183 -0.8218,0.3415 -1.7217,0.53 -2.6639,0.53 -0.9421,0 -1.8421,-0.1885 -2.6639,-0.53 -0.8538,-0.3545 -1.6229,-0.874 -2.267,-1.5181 -0.6441,-0.6441 -1.1637,-1.4133 -1.5184,-2.2671 -0.3413,-0.8218 -0.5299,-1.7217 -0.5299,-2.6639 0,-0.9422 0.1886,-1.8422 0.5299,-2.6639 0.3547,-0.8539 0.8743,-1.6229 1.5184,-2.267 0.6441,-0.6442 1.4132,-1.1637 2.267,-1.5183 0.8218,-0.3415 1.7217,-0.53 2.6639,-0.53 0.9421,0 1.8421,0.1885 2.6639,0.53z"/>
   <path id="_153200424" class="fil1" d="M13.8658 20.479l2.2795 0 0.1949 0 -0.0048 0.1944 -0.4301 17.4522 -0.0011 0.0436 -0.0212 0.0404c-0.0892,0.1694 -0.1647,0.3182 -0.2312,0.4493 -0.2632,0.5183 -0.405,0.7977 -0.6442,0.8 -0.2693,0.0025 -0.431,-0.3632 -0.7818,-1.156 -0.0134,-0.0302 -0.0271,-0.0612 -0.0411,-0.0927l-0.0153 -0.0346 -0.001 -0.0367 -0.4927 -17.4646 -0.0055 -0.1953 0.1956 0z"/>
   <path id="_153200352" class="fil2" d="M15.9505 20.859l-1.8892 0 0.4862 17.2328c0.0087,0.0198 0.0173,0.0391 0.0257,0.0583 0.2813,0.6357 0.411,0.9289 0.4315,0.9286 0.0087,-0.0001 0.1137,-0.2069 0.3085,-0.5905 0.063,-0.124 0.1338,-0.2636 0.2131,-0.4151l0.4242 -17.2141z"/>
   <path id="_153200280" class="fil1" d="M10.8421 23.1193l8.3808 0 0.179 0 0 0.1791 0 7.826c0,0.3376 -0.1379,0.6443 -0.3602,0.8665 -0.2222,0.2223 -0.529,0.3603 -0.8665,0.3603l-2.1693 0c-0.0126,0 -0.0243,-0.0001 -0.0366,-0.0002 -0.1946,-0.0017 -0.5524,-0.005 -0.813,0.5843l-0.2088 0.4719 -0.1284 -0.5c-0.1444,-0.562 -0.6072,-0.5578 -0.7768,-0.5562 -0.0097,0.0001 -0.0186,0.0002 -0.0283,0.0002l-2.0931 0c-0.3461,0 -0.6606,-0.1415 -0.8885,-0.3695 -0.2279,-0.2278 -0.3694,-0.5424 -0.3694,-0.8884l0 -7.7949 0 -0.1791 0.1791 0z"/>
   <polygon id="_153200208" class="fil1" points="17.6453,20.859 12.321,20.859 12.131,20.859 12.131,20.6691 12.131,18.6971 12.131,18.507 12.321,18.507 17.6453,18.507 17.8354,18.507 17.8354,18.6971 17.8354,20.6691 17.8354,20.859 "/>
   <polygon id="_153200136" class="fil2" points="12.5111,20.479 17.4553,20.479 17.4553,18.8872 12.5111,18.8872 "/>
   <path id="_153200064" class="fil3" d="M6.566 27.3333l0 -2.4831c0,-0.3562 0.0887,-0.4848 0.4117,-0.4848 0.6621,0 0.9123,0.465 0.9123,1.5036 0,1.0684 -0.3067,1.4643 -1.0899,1.4643l-0.2341 0zm0.3795 -3.3241l-2.3737 0 0 0.2473c0.5328,0.0395 0.7023,0.2473 0.7023,0.8805l0 4.3924c0,0.6727 -0.1452,0.9102 -0.7104,0.93l0 0.2572 2.7208 0 0 -0.2572c-0.6136,-0.0297 -0.7185,-0.2672 -0.7185,-0.93l0 -1.8402 0.7185 0c1.316,0 2.0103,-0.742 2.0103,-1.8597 0,-0.7124 -0.3067,-1.2862 -0.8638,-1.5828 -0.4199,-0.2278 -0.9043,-0.2375 -1.4855,-0.2375z"/>
   <path id="_153199992" class="fil3" d="M21.0763 30.6966l4.4536 0 0.2943 -2.2658 -0.2091 0c-0.4105,1.4482 -0.9527,1.8618 -2.0216,1.8618 -0.5577,0 -0.6042,-0.1477 -0.6042,-0.8078l0 -2.3544 1.2858 -1.1426 0 -0.5419 -1.2858 1.1426 0 -1.448c0,-0.6895 0.1162,-0.867 0.7901,-0.8767l0 -0.2462 -2.6954 0 0 0.2462c0.5112,0.0295 0.6739,0.2461 0.6739,0.8767l0 2.2559 -0.8598 0.7585 0 0.532 0.8598 -0.7584 0 1.5858c0,0.67 -0.1395,0.9064 -0.6816,0.926l0 0.2563z"/>
   <path id="_153199920" class="fil3" d="M16.9629 18.178c0.7251,-2.1241 2.3715,-0.9725 3.5574,-1.6123l0.2224 -0.4818c-0.4035,0.0603 -0.8633,0.0554 -1.3327,0.0507 -0.4156,-0.0041 -0.8391,-0.0084 -1.2244,0.0322 -0.9798,0.1031 -1.7601,0.5083 -1.6883,2.0112l0.4656 0zm3.901 -2.3567l0.1813 -0.3929c-0.5349,0.0764 -1.1779,0.064 -1.8373,0.0517 -0.9485,-0.018 -1.9317,-0.0364 -2.6322,0.2082 -0.8188,0.2864 -1.2589,0.9589 -0.7992,2.4897l0.4832 0c-0.0814,-1.6781 0.7978,-2.1307 1.9016,-2.2468 0.404,-0.0427 0.8312,-0.0384 1.2506,-0.0342 0.5239,0.0052 1.0358,0.0104 1.452,-0.0757zm0.3014 -0.6532l0.2046 -0.4433c-0.952,0.1161 -2.0395,0.0789 -3.0892,0.0432 -1.5524,-0.0528 -3.0214,-0.1029 -3.7857,0.3483 -0.6992,0.4128 -0.8029,1.2875 0.1875,3.0617l0.8471 0c-0.4772,-1.649 0.0357,-2.3872 0.9682,-2.7133 0.7429,-0.2595 1.746,-0.2407 2.7139,-0.2222 0.7168,0.0133 1.414,0.0267 1.9536,-0.0744zm0.322 -0.6977l0.415 -0.899c-1.3094,0.7666 -3.5628,0.3099 -5.9422,0.0284 -2.7638,-0.327 -5.4669,0.7844 -2.8872,4.5782l1.3386 0c-1.0035,-1.8488 -0.8405,-2.7915 -0.0371,-3.2658 0.8247,-0.4868 2.3266,-0.4359 3.9138,-0.3817 1.0969,0.0371 2.2353,0.0762 3.1991,-0.0601z"/>
   <path id="_153199848" class="fil2" d="M19.0438 23.4774l-8.0226 0 0 7.6159c0,0.2473 0.1012,0.4722 0.2644,0.6352 0.1631,0.1632 0.388,0.2646 0.6353,0.2646l2.0931 0c0.0066,0 0.0158,-0.0001 0.0256,-0.0003 0.2018,-0.0018 0.6916,-0.0062 0.9772,0.4613 0.3307,-0.4667 0.7239,-0.4633 0.9553,-0.4614 0.0123,0.0001 0.0241,0.0004 0.0338,0.0004l2.1693 0c0.2387,0 0.4558,-0.0979 0.6133,-0.2553 0.1575,-0.1576 0.2553,-0.3747 0.2553,-0.6134l0 -7.647z"/>
   <path id="_153199776" class="fil3" d="M11.7024 26.6367l0.4985 0 0.2063 0.3037 0.5501 0 0.5673 0.8824 2.888 0 0.5501 -0.8824 0.6017 0 0.2406 -0.5908 0.3782 0c-0.2414,1.5338 -0.6697,2.4933 -1.3237,2.9271l-3.438 0c-0.8052,-0.3637 -1.3266,-1.3135 -1.7191,-2.64z"/>
   <path id="_153197640" class="fil3" d="M13.5849 29.5556l0.0913 -0.1893 0.6598 -1.3674 1.3211 -2.7379 -0.1235 -0.0575 0.1026 -0.1888 0.4569 0.2171 -0.0851 0.1763 -0.1079 -0.0466 -1.283 2.6374 -0.6653 1.3674 -0.1328 0.2731c0.0912,0.1217 0.1315,0.2561 0.0725,0.3922l-0.5689 1.2051 -0.667 -0.32 0.5493 -1.1827c0.062,-0.1328 0.2415,-0.1643 0.38,-0.1784z"/>
   <path id="_153199440" class="fil4" d="M36.2496 28.7587l0 -0.4432c-0.0288,0.0099 -0.0551,0.0175 -0.0764,0.0225 -0.0212,0.0062 -0.0463,0.0099 -0.0726,0.0125 -0.0275,0.0013 -0.0626,0.0025 -0.1064,0.0025l-1.4198 0 0 -4.3646c0,-0.0439 0.0025,-0.0839 0.0062,-0.1202 0.005,-0.0363 0.0126,-0.0764 0.0238,-0.1203l-0.8939 0c0.0112,0.0514 0.0187,0.0939 0.0237,0.129 0.0038,0.0338 0.0063,0.0713 0.0063,0.1115l0 4.5373c0,0.0363 -0.0025,0.0726 -0.0063,0.1077 -0.005,0.0364 -0.0125,0.0777 -0.0237,0.1253l2.5391 0zm2.1635 -4.0041c-0.2729,0.0013 -0.5208,0.0475 -0.7412,0.1403 -0.2203,0.0939 -0.4107,0.2265 -0.5684,0.3994 -0.159,0.174 -0.2805,0.3805 -0.3644,0.6235 -0.0851,0.2415 -0.1277,0.5133 -0.1289,0.8126 0.0012,0.4344 0.0751,0.8087 0.2203,1.1206 0.1453,0.3129 0.3531,0.5534 0.6236,0.7211 0.2692,0.1677 0.5922,0.2516 0.9665,0.2541 0.3681,-0.0025 0.6849,-0.085 0.9529,-0.2504 0.2679,-0.1652 0.4745,-0.3981 0.621,-0.701 0.1465,-0.303 0.2203,-0.6611 0.2216,-1.0769 -0.0013,-0.4231 -0.0751,-0.7863 -0.2204,-1.0905 -0.1452,-0.3043 -0.3518,-0.5396 -0.621,-0.7036 -0.2692,-0.1641 -0.5897,-0.2479 -0.9616,-0.2492zm0 0.3231c0.2066,0.0012 0.3844,0.0713 0.5334,0.2103 0.149,0.1389 0.2629,0.3355 0.3443,0.591 0.0801,0.2553 0.1202,0.5596 0.1215,0.9115 -0.0013,0.3518 -0.0426,0.6561 -0.124,0.9114 -0.0814,0.2555 -0.1966,0.4521 -0.3456,0.5909 -0.1489,0.139 -0.3255,0.2091 -0.5296,0.2104 -0.2066,-0.0013 -0.3843,-0.0714 -0.5333,-0.2104 -0.149,-0.1388 -0.263,-0.338 -0.3431,-0.5958 -0.0814,-0.2568 -0.1215,-0.5648 -0.1227,-0.9216 0.0012,-0.3468 0.0426,-0.6473 0.1239,-0.9014 0.0814,-0.253 0.1966,-0.4484 0.3456,-0.5872 0.149,-0.1378 0.3255,-0.2079 0.5296,-0.2091zm4.9582 3.681l0.7888 0c-0.0113,-0.0476 -0.0188,-0.0876 -0.0238,-0.1227 -0.0038,-0.0351 -0.0063,-0.074 -0.0063,-0.1177l0 -4.9205c0,-0.044 0.0025,-0.0839 0.0063,-0.1202 0.005,-0.0364 0.0125,-0.0764 0.0238,-0.1203l-0.8264 0c0.0113,0.0439 0.0188,0.0827 0.0238,0.1177 0.005,0.0351 0.0063,0.0751 0.0063,0.1228l0 1.6602c-0.0864,-0.1178 -0.1803,-0.2129 -0.2805,-0.288 -0.0989,-0.0739 -0.2103,-0.1291 -0.333,-0.1628 -0.1227,-0.035 -0.2617,-0.0526 -0.4157,-0.0526 -0.3193,0.0013 -0.5922,0.0838 -0.8189,0.2453 -0.2278,0.1629 -0.4019,0.3958 -0.5233,0.7 -0.1202,0.3055 -0.1816,0.671 -0.1828,1.098 0.0012,0.4219 0.0588,0.785 0.1728,1.0868 0.1139,0.3017 0.2779,0.5346 0.4908,0.6962 0.2128,0.1615 0.467,0.2441 0.7637,0.2453 0.169,0.0013 0.3168,-0.0188 0.4457,-0.06 0.129,-0.0413 0.248,-0.1089 0.3581,-0.2028 0.109,-0.094 0.2191,-0.2192 0.3306,-0.3757l0 0.571zm-0.8414 -3.5909c0.283,0.0013 0.4983,0.1339 0.6473,0.3981 0.1477,0.2642 0.2229,0.6524 0.2241,1.1645 0,0.184 -0.0075,0.3492 -0.0238,0.4957 -0.015,0.1453 -0.04,0.2755 -0.0726,0.3906 -0.0338,0.1166 -0.0764,0.2217 -0.1289,0.3155 -0.0739,0.1253 -0.1703,0.2243 -0.2918,0.2956 -0.1214,0.0726 -0.2541,0.109 -0.3994,0.1102 -0.2892,0 -0.5071,-0.1289 -0.6523,-0.3882 -0.1465,-0.2578 -0.2191,-0.6447 -0.2191,-1.1593 0,-0.3494 0.0351,-0.6436 0.1052,-0.8853 0.0701,-0.2403 0.174,-0.4245 0.3105,-0.5484 0.1352,-0.1252 0.303,-0.189 0.5008,-0.189zm2.2386 3.5909l3.2378 0 0 -0.4207c-0.0388,0.0074 -0.0738,0.0138 -0.1039,0.0175 -0.03,0.0049 -0.0588,0.0075 -0.0876,0.01 -0.0276,0.0012 -0.0601,0.0026 -0.0939,0.0026l-2.0434 0 2.3288 -3.1252 0 -0.3981 -3.2152 0 0 0.4132c0.0413,-0.0075 0.0788,-0.0139 0.1102,-0.0176 0.0313,-0.005 0.0613,-0.0076 0.0901,-0.0101 0.03,-0.0012 0.0639,-0.0025 0.1002,-0.0025l2.0133 0 -2.3364 3.1326 0 0.3983zm9.5031 -5.0108c0.0112,0.0401 0.0187,0.0764 0.0237,0.1114 0.0051,0.0351 0.0063,0.0778 0.0063,0.1291l0 3.05c0,0.298 -0.0563,0.5509 -0.1653,0.7574 -0.1101,0.2066 -0.2704,0.3632 -0.4795,0.4708 -0.2103,0.1077 -0.4658,0.1615 -0.7675,0.1615 -0.2817,-0.0012 -0.5221,-0.0514 -0.7212,-0.1528 -0.1991,-0.1001 -0.3506,-0.2453 -0.4557,-0.4356 -0.1065,-0.1904 -0.159,-0.4195 -0.1603,-0.6887l0 -3.1626c0,-0.0439 0.0025,-0.0827 0.0063,-0.1177 0.005,-0.0351 0.0125,-0.0751 0.0238,-0.1228l-0.894 0c0.0113,0.0477 0.0188,0.0889 0.0238,0.1252 0.0037,0.0363 0.0062,0.0751 0.0062,0.1153l0 3.1475c0,0.2042 0.0301,0.397 0.0889,0.5786 0.0601,0.1815 0.1478,0.3442 0.2642,0.4882 0.1665,0.2166 0.3794,0.377 0.6373,0.4783 0.2579,0.1027 0.5747,0.1541 0.9478,0.1528 0.4345,-0.0012 0.8013,-0.0676 1.1018,-0.2017 0.3005,-0.1326 0.5284,-0.3279 0.6836,-0.5858 0.1565,-0.258 0.2342,-0.5736 0.2354,-0.9479l0 -3.11c0,-0.0351 0.0013,-0.0639 0.0025,-0.0889 0.0025,-0.0251 0.005,-0.0488 0.01,-0.0726 0.0038,-0.0239 0.0101,-0.0501 0.0176,-0.079l-0.4357 0zm1.3898 1.0969c0.0112,0.0437 0.0188,0.0838 0.0238,0.1201 0.0037,0.0363 0.0062,0.0765 0.0062,0.1202l0 3.4332c0,0.035 -0.0012,0.0639 -0.0025,0.0889 -0.0025,0.0249 -0.005,0.0488 -0.01,0.0725 -0.0038,0.0226 -0.01,0.049 -0.0175,0.079l0.8263 0c-0.0112,-0.0476 -0.0188,-0.0876 -0.0238,-0.1227 -0.0037,-0.0351 -0.0062,-0.074 -0.0062,-0.1177l0 -2.2913c0,-0.1941 0.0363,-0.3594 0.1089,-0.4971 0.0726,-0.1376 0.1765,-0.2428 0.313,-0.3154 0.1365,-0.0739 0.3018,-0.1116 0.4946,-0.1116 0.2379,0.0013 0.4207,0.0627 0.5496,0.1829 0.1277,0.1215 0.1928,0.2929 0.1941,0.5159l0 2.5166c0,0.0375 -0.0013,0.0689 -0.0025,0.0938 -0.0025,0.0264 -0.005,0.0501 -0.01,0.0726 -0.0038,0.0227 -0.01,0.0464 -0.0176,0.074l0.8264 0c-0.0113,-0.0476 -0.0188,-0.0889 -0.0238,-0.1253 -0.0037,-0.0363 -0.0062,-0.0751 -0.0062,-0.1151l0 -2.6294c0,-0.1603 -0.0176,-0.2991 -0.0526,-0.4181 -0.0351,-0.1178 -0.0902,-0.2217 -0.1653,-0.3106 -0.1139,-0.1314 -0.2579,-0.2329 -0.4307,-0.3016 -0.174,-0.0689 -0.3681,-0.104 -0.5835,-0.104 -0.189,0 -0.3568,0.0213 -0.502,0.0651 -0.1453,0.0439 -0.2755,0.114 -0.3907,0.2079 -0.1139,0.0938 -0.2203,0.2153 -0.3167,0.3656l0 -0.5484 -0.7813 0zm4.6276 -1.0593c-0.0952,0 -0.1791,0.015 -0.2517,0.0451 -0.0713,0.0287 -0.1277,0.0701 -0.1677,0.1227 -0.0401,0.0526 -0.0601,0.1151 -0.0614,0.1853 0.0013,0.1139 0.0438,0.2015 0.129,0.2642 0.0838,0.0638 0.204,0.0951 0.3593,0.0963 0.1477,-0.0012 0.2629,-0.035 0.3468,-0.0988 0.0827,-0.0639 0.1252,-0.1516 0.1265,-0.2617 -0.0013,-0.1101 -0.0438,-0.1966 -0.1277,-0.2579 -0.0839,-0.0627 -0.2016,-0.094 -0.3531,-0.0952zm-0.4282 1.0593c0.0113,0.0437 0.0188,0.0825 0.0238,0.1176 0.0037,0.035 0.0062,0.0752 0.0062,0.1227l0 3.4332c0,0.0476 -0.0025,0.0876 -0.0062,0.1227 -0.005,0.0351 -0.0125,0.0738 -0.0238,0.1177l0.8263 0c-0.0112,-0.0476 -0.0187,-0.0876 -0.0237,-0.1227 -0.0038,-0.0351 -0.0063,-0.074 -0.0063,-0.1177l0 -3.4332c0,-0.0437 0.0025,-0.0825 0.0063,-0.1176 0.005,-0.0351 0.0125,-0.0752 0.0237,-0.1227l-0.8263 0zm3.2153 3.0499l-1.0142 -2.8321c-0.015,-0.0439 -0.0251,-0.0827 -0.0301,-0.1151 -0.005,-0.0326 -0.0075,-0.0664 -0.0075,-0.1027l-0.8939 0c0.0225,0.0487 0.0413,0.0901 0.0576,0.1252 0.015,0.0363 0.0288,0.0664 0.04,0.0926l1.2696 3.4781c0.0188,0.044 0.0313,0.0828 0.0376,0.1153 0.0075,0.0312 0.0125,0.0663 0.015,0.1027l0.616 0 0 -0.0226c0,-0.0188 0.0038,-0.045 0.0125,-0.0776 0.0075,-0.0338 0.0213,-0.0726 0.0401,-0.1178l1.2996 -3.4781c0.015,-0.0439 0.0301,-0.0827 0.0476,-0.1151 0.0175,-0.0326 0.0388,-0.0664 0.0651,-0.1027l-0.4432 0c0,0.0324 -0.0038,0.065 -0.0113,0.0976 -0.0075,0.0326 -0.0188,0.0726 -0.0338,0.1202l-1.0667 2.8321zm4.898 0.1053c-0.1239,0.1051 -0.2466,0.1903 -0.3656,0.2565 -0.1189,0.0664 -0.2416,0.1166 -0.3656,0.1479 -0.1239,0.0312 -0.2566,0.0462 -0.3956,0.0462 -0.2855,0 -0.5234,-0.0638 -0.7149,-0.1916 -0.1903,-0.1277 -0.3331,-0.3191 -0.427,-0.5747 -0.0263,-0.0738 -0.0476,-0.1464 -0.0651,-0.2153 -0.0175,-0.0701 -0.0325,-0.1427 -0.0426,-0.219 -0.0112,-0.0765 -0.0187,-0.1628 -0.0237,-0.258 -0.0063,-0.0951 -0.0101,-0.204 -0.0113,-0.3292l2.7119 0c-0.0163,-0.4095 -0.0914,-0.7551 -0.2253,-1.0393 -0.1353,-0.2829 -0.3256,-0.4982 -0.571,-0.6461 -0.2441,-0.1476 -0.5396,-0.2215 -0.8864,-0.2228 -0.3794,0.0013 -0.7049,0.0851 -0.9779,0.2517 -0.2717,0.1664 -0.4808,0.4031 -0.626,0.7112 -0.1465,0.3079 -0.2204,0.6748 -0.2216,1.103 0.0012,0.4295 0.0776,0.7925 0.2304,1.0906 0.1527,0.298 0.3768,0.5257 0.6711,0.681 0.2942,0.1553 0.6548,0.2329 1.0817,0.2341 0.1265,0 0.2454,-0.005 0.3544,-0.0163 0.1101,-0.0124 0.2166,-0.0299 0.3205,-0.0563 0.1039,-0.0249 0.2103,-0.0588 0.3193,-0.1013 0.1089,-0.0427 0.2253,-0.0953 0.3505,-0.1565l-0.1202 -0.4958zm-2.3889 -1.6829c0.0276,-0.2542 0.0852,-0.4695 0.169,-0.6485 0.0852,-0.179 0.1941,-0.3156 0.3281,-0.4106 0.134,-0.0939 0.2892,-0.1428 0.4645,-0.1428 0.1265,0 0.2429,0.0262 0.3506,0.0788 0.1076,0.0526 0.2028,0.1291 0.2829,0.2267 0.0802,0.0989 0.1415,0.2178 0.1853,0.3556 0.0176,0.0538 0.0313,0.1052 0.0414,0.1553 0.0112,0.0501 0.02,0.1051 0.0275,0.1652 0.0063,0.06 0.0138,0.134 0.0213,0.2203l-1.8706 0zm3.4106 -1.4723c0.0112,0.0437 0.0187,0.0825 0.0238,0.1176 0.0037,0.035 0.0062,0.0752 0.0062,0.1227l0 3.4332c0,0.0437 -0.0025,0.0826 -0.0062,0.1177 -0.0051,0.0351 -0.0126,0.0751 -0.0238,0.1227l0.8263 0c-0.0113,-0.0439 -0.0188,-0.0826 -0.0238,-0.1177 -0.0037,-0.0351 -0.0062,-0.0751 -0.0062,-0.1227l0 -2.2462c0,-0.1102 0.0062,-0.2054 0.0187,-0.2867 0.0138,-0.0827 0.0351,-0.1553 0.0652,-0.2178 0.0288,-0.0627 0.0688,-0.1202 0.1189,-0.1716 0.0751,-0.0827 0.1665,-0.1452 0.2742,-0.1866 0.1077,-0.0413 0.2291,-0.0613 0.3643,-0.0613l0.1278 0.0074 0 -0.6009c-0.1891,0.0075 -0.3494,0.0312 -0.4783,0.0739 -0.1302,0.0412 -0.2367,0.1039 -0.3181,0.1877 -0.0813,0.0839 -0.1439,0.1916 -0.1878,0.3244l0 -0.4958 -0.7812 0zm2.1184 3.651c0.149,0.08 0.2905,0.144 0.4244,0.1928 0.134,0.0487 0.268,0.0838 0.4032,0.1052 0.1365,0.0225 0.2805,0.0324 0.4345,0.0324 0.3067,-0.0012 0.5721,-0.0526 0.7963,-0.1551 0.2253,-0.1015 0.3981,-0.2454 0.5208,-0.4308 0.1215,-0.1865 0.1841,-0.407 0.1853,-0.6611 0.0013,-0.189 -0.0313,-0.3519 -0.1001,-0.4895 -0.0689,-0.1378 -0.1828,-0.2618 -0.3431,-0.3706 -0.159,-0.1102 -0.3744,-0.2166 -0.6461,-0.3193 -0.1702,-0.0652 -0.3092,-0.1228 -0.4169,-0.1741 -0.1089,-0.0513 -0.1928,-0.1013 -0.2529,-0.1501 -0.0589,-0.049 -0.1002,-0.1003 -0.124,-0.1566 -0.0225,-0.0563 -0.0338,-0.1215 -0.0325,-0.1953 0.0012,-0.119 0.0325,-0.2228 0.0939,-0.3131 0.0613,-0.0901 0.1465,-0.1601 0.2554,-0.2102 0.1089,-0.0514 0.2354,-0.0765 0.3794,-0.0778 0.1014,0 0.2028,0.0114 0.303,0.0376 0.1001,0.0251 0.2028,0.0651 0.3105,0.1202 0.1077,0.0551 0.2241,0.1277 0.3481,0.2179l0.1277 -0.4883c-0.2091,-0.0864 -0.4095,-0.1502 -0.5998,-0.1929 -0.1915,-0.0412 -0.3818,-0.0625 -0.5722,-0.0625 -0.2754,0.0013 -0.5158,0.0514 -0.7236,0.1478 -0.2079,0.0975 -0.3706,0.2328 -0.4883,0.4057 -0.1165,0.1726 -0.1753,0.3743 -0.1778,0.6034 0,0.169 0.0325,0.3206 0.0989,0.4544 0.0663,0.1341 0.1715,0.2542 0.313,0.3606 0.1415,0.1052 0.3255,0.203 0.5496,0.2893 0.1979,0.0776 0.3594,0.1465 0.4846,0.2078 0.1264,0.0602 0.2228,0.1178 0.2917,0.1728 0.0676,0.0563 0.1152,0.1153 0.1402,0.1778 0.0263,0.0613 0.0389,0.1339 0.0376,0.2153 -0.0012,0.129 -0.0338,0.2418 -0.0977,0.3393 -0.0651,0.0978 -0.154,0.1754 -0.2666,0.2304 -0.114,0.0551 -0.2454,0.0827 -0.3944,0.084 -0.1315,0.0012 -0.2555,-0.0151 -0.3719,-0.0464 -0.1177,-0.0313 -0.2366,-0.0826 -0.3581,-0.1527 -0.1202,-0.0701 -0.2529,-0.1641 -0.3969,-0.2817l-0.1352 0.5334zm3.8538 -4.7103c-0.0952,0 -0.1791,0.015 -0.2517,0.0451 -0.0713,0.0287 -0.1277,0.0701 -0.1677,0.1227 -0.0401,0.0526 -0.0601,0.1151 -0.0614,0.1853 0.0013,0.1139 0.0438,0.2015 0.129,0.2642 0.0838,0.0638 0.204,0.0951 0.3593,0.0963 0.1477,-0.0012 0.2629,-0.035 0.3468,-0.0988 0.0827,-0.0639 0.1252,-0.1516 0.1265,-0.2617 -0.0013,-0.1101 -0.0438,-0.1966 -0.1277,-0.2579 -0.0839,-0.0627 -0.2016,-0.094 -0.3531,-0.0952zm-0.4282 1.0593c0.0113,0.0437 0.0188,0.0825 0.0238,0.1176 0.0037,0.035 0.0062,0.0752 0.0062,0.1227l0 3.4332c0,0.0476 -0.0025,0.0876 -0.0062,0.1227 -0.005,0.0351 -0.0125,0.0738 -0.0238,0.1177l0.8263 0c-0.0112,-0.0476 -0.0187,-0.0876 -0.0237,-0.1227 -0.0038,-0.0351 -0.0063,-0.074 -0.0063,-0.1177l0 -3.4332c0,-0.0437 0.0025,-0.0825 0.0063,-0.1176 0.005,-0.0351 0.0125,-0.0752 0.0237,-0.1227l-0.8263 0zm1.9607 0.3606l0 2.8546c-0.0013,0.2617 0.0588,0.4558 0.1815,0.5798 0.1215,0.1252 0.3118,0.1877 0.5697,0.1864 0.114,0 0.2241,-0.0112 0.3281,-0.0363 0.1039,-0.0237 0.2153,-0.0612 0.333,-0.1138l0 -0.4058c-0.0664,0.0327 -0.1189,0.0563 -0.1577,0.0726 -0.0401,0.0163 -0.0739,0.0277 -0.1027,0.0326 -0.0276,0.005 -0.0589,0.0075 -0.0927,0.0075 -0.0976,0 -0.1715,-0.0287 -0.2203,-0.0851 -0.0489,-0.0576 -0.0726,-0.1439 -0.0726,-0.2604l0 -2.8321 0.631 0 0 -0.3606 -0.631 0 0 -0.556c0,-0.0162 0,-0.0325 0,-0.05 0.0012,-0.0188 0.0025,-0.0452 0.005,-0.0802 0.0012,-0.0351 0.005,-0.0864 0.01,-0.1553l-0.7813 0.0903 0 0.7512 -0.5785 0 0 0.3606 0.5785 0zm2.9523 3.5533l-0.4207 0.954c-0.0113,0.0301 -0.0263,0.0627 -0.0451,0.0977 -0.0188,0.0351 -0.0413,0.0751 -0.0676,0.1201l0.4733 0c0.0075,-0.04 0.0175,-0.0763 0.0288,-0.1089 0.0113,-0.0326 0.0238,-0.0689 0.0388,-0.1089l1.9232 -4.6501c0.015,-0.0375 0.03,-0.0726 0.0475,-0.1064 0.0163,-0.0339 0.0351,-0.0714 0.0576,-0.1114l-0.4582 0c-0.0075,0.04 -0.0151,0.0751 -0.0251,0.1064 -0.01,0.03 -0.0238,0.0675 -0.0425,0.1114l-1.0818 2.6368 -0.9165 -2.6368c-0.0113,-0.0301 -0.0213,-0.0627 -0.0288,-0.0977 -0.0088,-0.0351 -0.0163,-0.0751 -0.0238,-0.1201l-0.894 0c0.0226,0.0487 0.0414,0.0901 0.0576,0.1252 0.0151,0.0363 0.0288,0.0664 0.0401,0.0926l1.3372 3.6961zm6.0774 -4.0041c-0.2729,0.0013 -0.5208,0.0475 -0.7412,0.1403 -0.2203,0.0939 -0.4107,0.2265 -0.5684,0.3994 -0.159,0.174 -0.2805,0.3805 -0.3644,0.6235 -0.0851,0.2415 -0.1277,0.5133 -0.1289,0.8126 0.0012,0.4344 0.0751,0.8087 0.2203,1.1206 0.1453,0.3129 0.3531,0.5534 0.6236,0.7211 0.2692,0.1677 0.5922,0.2516 0.9665,0.2541 0.3681,-0.0025 0.6849,-0.085 0.9529,-0.2504 0.2679,-0.1652 0.4745,-0.3981 0.621,-0.701 0.1465,-0.303 0.2203,-0.6611 0.2216,-1.0769 -0.0013,-0.4231 -0.0751,-0.7863 -0.2204,-1.0905 -0.1452,-0.3043 -0.3518,-0.5396 -0.621,-0.7036 -0.2692,-0.1641 -0.5897,-0.2479 -0.9616,-0.2492zm0 0.3231c0.2066,0.0012 0.3844,0.0713 0.5334,0.2103 0.149,0.1389 0.2629,0.3355 0.3443,0.591 0.0801,0.2553 0.1202,0.5596 0.1215,0.9115 -0.0013,0.3518 -0.0426,0.6561 -0.124,0.9114 -0.0814,0.2555 -0.1966,0.4521 -0.3456,0.5909 -0.1489,0.139 -0.3255,0.2091 -0.5296,0.2104 -0.2066,-0.0013 -0.3843,-0.0714 -0.5333,-0.2104 -0.149,-0.1388 -0.263,-0.338 -0.3431,-0.5958 -0.0814,-0.2568 -0.1215,-0.5648 -0.1227,-0.9216 0.0012,-0.3468 0.0426,-0.6473 0.1239,-0.9014 0.0814,-0.253 0.1966,-0.4484 0.3456,-0.5872 0.149,-0.1378 0.3255,-0.2079 0.5296,-0.2091zm2.6744 0.1277l0 3.3129c0,0.0476 -0.0025,0.0876 -0.0062,0.1227 -0.005,0.0351 -0.0125,0.0738 -0.0238,0.1177l0.8263 0c-0.0112,-0.0476 -0.0187,-0.0876 -0.0238,-0.1227 -0.0037,-0.0351 -0.0062,-0.074 -0.0062,-0.1177l0 -3.3129 1.1193 0 0 -0.3606 -1.1193 0 0 -0.6611c-0.0013,-0.179 0.0401,-0.3106 0.1214,-0.3945 0.0827,-0.0838 0.2091,-0.1252 0.3819,-0.1238 0.0989,-0.0014 0.2003,0.0136 0.3043,0.0425 0.1026,0.0301 0.2191,0.0776 0.3493,0.1452l0.1502 -0.4356c-0.1314,-0.0351 -0.2504,-0.0627 -0.3568,-0.0839 -0.1064,-0.0213 -0.2053,-0.0363 -0.298,-0.0452 -0.0926,-0.0099 -0.1853,-0.0138 -0.2767,-0.0138 -0.3694,0.0014 -0.6523,0.079 -0.8464,0.2343 -0.1953,0.1539 -0.2942,0.3768 -0.2955,0.6672l0 0.6687 -0.4207 0 0 0.3606 0.4207 0zm3.6585 -1.4575l0 0.4583c0.0663,-0.015 0.1227,-0.0251 0.169,-0.0301 0.0476,-0.0049 0.0964,-0.0074 0.1465,-0.0074l1.0893 0 0 4.3496c0,0.0476 -0.0025,0.0876 -0.0063,0.1227 -0.005,0.0351 -0.0125,0.0738 -0.0238,0.1177l0.894 0c-0.0113,-0.0439 -0.0188,-0.0826 -0.0238,-0.1177 -0.0038,-0.0351 -0.0063,-0.0751 -0.0063,-0.1227l0 -4.3496 1.0893 0c0.0438,0 0.0877,0.0025 0.134,0.0074 0.0463,0.005 0.1039,0.0151 0.174,0.0301l0 -0.4583 -3.6359 0zm6.6258 4.2521c-0.1239,0.1051 -0.2466,0.1903 -0.3656,0.2565 -0.1189,0.0664 -0.2416,0.1166 -0.3656,0.1479 -0.1239,0.0312 -0.2566,0.0462 -0.3956,0.0462 -0.2855,0 -0.5234,-0.0638 -0.7149,-0.1916 -0.1903,-0.1277 -0.3331,-0.3191 -0.427,-0.5747 -0.0263,-0.0738 -0.0476,-0.1464 -0.0651,-0.2153 -0.0175,-0.0701 -0.0325,-0.1427 -0.0426,-0.219 -0.0112,-0.0765 -0.0187,-0.1628 -0.0237,-0.258 -0.0063,-0.0951 -0.0101,-0.204 -0.0113,-0.3292l2.7119 0c-0.0163,-0.4095 -0.0914,-0.7551 -0.2253,-1.0393 -0.1353,-0.2829 -0.3256,-0.4982 -0.571,-0.6461 -0.2441,-0.1476 -0.5396,-0.2215 -0.8864,-0.2228 -0.3794,0.0013 -0.7049,0.0851 -0.9779,0.2517 -0.2717,0.1664 -0.4808,0.4031 -0.626,0.7112 -0.1465,0.3079 -0.2204,0.6748 -0.2216,1.103 0.0012,0.4295 0.0776,0.7925 0.2304,1.0906 0.1527,0.298 0.3768,0.5257 0.6711,0.681 0.2942,0.1553 0.6548,0.2329 1.0817,0.2341 0.1265,0 0.2454,-0.005 0.3544,-0.0163 0.1101,-0.0124 0.2166,-0.0299 0.3205,-0.0563 0.1039,-0.0249 0.2103,-0.0588 0.3193,-0.1013 0.1089,-0.0427 0.2253,-0.0953 0.3505,-0.1565l-0.1202 -0.4958zm-2.3889 -1.6829c0.0276,-0.2542 0.0852,-0.4695 0.169,-0.6485 0.0852,-0.179 0.1941,-0.3156 0.3281,-0.4106 0.134,-0.0939 0.2892,-0.1428 0.4645,-0.1428 0.1265,0 0.2429,0.0262 0.3506,0.0788 0.1076,0.0526 0.2028,0.1291 0.2829,0.2267 0.0802,0.0989 0.1415,0.2178 0.1853,0.3556 0.0176,0.0538 0.0313,0.1052 0.0414,0.1553 0.0112,0.0501 0.02,0.1051 0.0275,0.1652 0.0063,0.06 0.0138,0.134 0.0213,0.2203l-1.8706 0zm6.115 1.6903c-0.1165,0.1026 -0.2254,0.1841 -0.3255,0.2454 -0.1002,0.0627 -0.1991,0.1076 -0.298,0.1353 -0.0989,0.0274 -0.2041,0.04 -0.3155,0.04 -0.2342,-0.0012 -0.4333,-0.0664 -0.5985,-0.1953 -0.1653,-0.1302 -0.293,-0.3168 -0.3807,-0.561 -0.0876,-0.2428 -0.1314,-0.5371 -0.1327,-0.8813 0.0013,-0.3443 0.0476,-0.6411 0.1415,-0.8903 0.0927,-0.2479 0.2254,-0.4395 0.3982,-0.5734 0.1727,-0.1353 0.3781,-0.2029 0.6172,-0.2042 0.1039,-0.0012 0.1991,0.0102 0.288,0.0326 0.0889,0.0213 0.1815,0.0602 0.278,0.1153 0.0951,0.0551 0.204,0.1302 0.328,0.2278l0 -0.5784c-0.119,-0.0401 -0.2304,-0.0726 -0.3343,-0.0965 -0.1027,-0.0238 -0.2041,-0.0413 -0.303,-0.0525 -0.1002,-0.0112 -0.2028,-0.0163 -0.3093,-0.0163 -0.3994,0.0013 -0.7437,0.0863 -1.0316,0.2542 -0.288,0.1677 -0.5084,0.4069 -0.6636,0.7186 -0.1553,0.3106 -0.2342,0.6825 -0.2354,1.1157 0.0012,0.4143 0.0726,0.7699 0.2128,1.0655 0.1403,0.2953 0.3418,0.5208 0.606,0.6786 0.2642,0.1577 0.5822,0.2378 0.9541,0.239 0.0976,0 0.184,-0.0025 0.2592,-0.0087 0.0751,-0.0063 0.1502,-0.0187 0.2253,-0.0375 0.0751,-0.0188 0.1615,-0.0464 0.2592,-0.0839 0.0977,-0.0363 0.2179,-0.0865 0.3606,-0.1477l0 -0.541zm1.4498 0.7513c-0.0113,-0.0476 -0.0188,-0.0876 -0.0238,-0.1227 -0.0037,-0.0351 -0.0062,-0.074 -0.0062,-0.1177l0 -2.3064c0.0012,-0.1889 0.0375,-0.3504 0.1101,-0.4858 0.0727,-0.1363 0.1766,-0.2403 0.3106,-0.3129 0.1339,-0.0726 0.2942,-0.1103 0.4807,-0.1103 0.258,-0.0012 0.4483,0.0652 0.5697,0.2005 0.1227,0.1338 0.1828,0.3454 0.1816,0.6334l0 2.3815c0,0.0476 -0.0013,0.0876 -0.0063,0.1227 -0.005,0.0351 -0.0125,0.0738 -0.0238,0.1177l0.8264 0c-0.0113,-0.0476 -0.0188,-0.0876 -0.0238,-0.1227 -0.0038,-0.0351 -0.0063,-0.074 -0.0063,-0.1177l0 -2.6294c-0.0012,-0.2415 -0.0488,-0.4457 -0.1465,-0.6147 -0.0964,-0.1691 -0.2366,-0.2968 -0.4207,-0.3857 -0.184,-0.0889 -0.4081,-0.1339 -0.6723,-0.1339 -0.1715,0 -0.3268,0.0201 -0.4645,0.0601 -0.1377,0.0413 -0.2642,0.1064 -0.3806,0.1941 -0.1165,0.0889 -0.2279,0.204 -0.3343,0.3467l0 -1.7577c0,-0.0477 0.0025,-0.0877 0.0062,-0.1228 0.005,-0.035 0.0125,-0.0738 0.0238,-0.1177l-0.8263 0c0.0075,0.0289 0.0137,0.055 0.0175,0.0789 0.005,0.0238 0.0075,0.0475 0.01,0.0727 0.0013,0.0249 0.0025,0.0538 0.0025,0.0889l0 4.9205c0,0.0437 -0.0025,0.0839 -0.0062,0.1202 -0.0051,0.0363 -0.0126,0.0763 -0.0238,0.1202l0.8263 0zm3.358 -3.9139c0.0112,0.0437 0.0188,0.0838 0.0238,0.1201 0.0037,0.0363 0.0062,0.0765 0.0062,0.1202l0 3.4332c0,0.035 -0.0012,0.0639 -0.0025,0.0889 -0.0025,0.0249 -0.005,0.0488 -0.01,0.0725 -0.0038,0.0226 -0.01,0.049 -0.0175,0.079l0.8263 0c-0.0112,-0.0476 -0.0188,-0.0876 -0.0238,-0.1227 -0.0037,-0.0351 -0.0062,-0.074 -0.0062,-0.1177l0 -2.2913c0,-0.1941 0.0363,-0.3594 0.1089,-0.4971 0.0726,-0.1376 0.1765,-0.2428 0.313,-0.3154 0.1365,-0.0739 0.3018,-0.1116 0.4946,-0.1116 0.2379,0.0013 0.4207,0.0627 0.5496,0.1829 0.1277,0.1215 0.1928,0.2929 0.1941,0.5159l0 2.5166c0,0.0375 -0.0013,0.0689 -0.0025,0.0938 -0.0025,0.0264 -0.005,0.0501 -0.01,0.0726 -0.0038,0.0227 -0.01,0.0464 -0.0176,0.074l0.8264 0c-0.0113,-0.0476 -0.0188,-0.0889 -0.0238,-0.1253 -0.0037,-0.0363 -0.0062,-0.0751 -0.0062,-0.1151l0 -2.6294c0,-0.1603 -0.0176,-0.2991 -0.0526,-0.4181 -0.0351,-0.1178 -0.0902,-0.2217 -0.1653,-0.3106 -0.1139,-0.1314 -0.2579,-0.2329 -0.4307,-0.3016 -0.174,-0.0689 -0.3681,-0.104 -0.5835,-0.104 -0.189,0 -0.3568,0.0213 -0.502,0.0651 -0.1453,0.0439 -0.2755,0.114 -0.3907,0.2079 -0.1139,0.0938 -0.2203,0.2153 -0.3167,0.3656l0 -0.5484 -0.7813 0zm5.8145 -0.0902c-0.2729,0.0013 -0.5208,0.0475 -0.7412,0.1403 -0.2203,0.0939 -0.4107,0.2265 -0.5684,0.3994 -0.159,0.174 -0.2805,0.3805 -0.3644,0.6235 -0.0851,0.2415 -0.1277,0.5133 -0.1289,0.8126 0.0012,0.4344 0.0751,0.8087 0.2203,1.1206 0.1453,0.3129 0.3531,0.5534 0.6236,0.7211 0.2692,0.1677 0.5922,0.2516 0.9665,0.2541 0.3681,-0.0025 0.6849,-0.085 0.9529,-0.2504 0.2679,-0.1652 0.4745,-0.3981 0.621,-0.701 0.1465,-0.303 0.2203,-0.6611 0.2216,-1.0769 -0.0013,-0.4231 -0.0751,-0.7863 -0.2204,-1.0905 -0.1452,-0.3043 -0.3518,-0.5396 -0.621,-0.7036 -0.2692,-0.1641 -0.5897,-0.2479 -0.9616,-0.2492zm0 0.3231c0.2066,0.0012 0.3844,0.0713 0.5334,0.2103 0.149,0.1389 0.2629,0.3355 0.3443,0.591 0.0801,0.2553 0.1202,0.5596 0.1215,0.9115 -0.0013,0.3518 -0.0426,0.6561 -0.124,0.9114 -0.0814,0.2555 -0.1966,0.4521 -0.3456,0.5909 -0.1489,0.139 -0.3255,0.2091 -0.5296,0.2104 -0.2066,-0.0013 -0.3843,-0.0714 -0.5333,-0.2104 -0.149,-0.1388 -0.263,-0.338 -0.3431,-0.5958 -0.0814,-0.2568 -0.1215,-0.5648 -0.1227,-0.9216 0.0012,-0.3468 0.0426,-0.6473 0.1239,-0.9014 0.0814,-0.253 0.1966,-0.4484 0.3456,-0.5872 0.149,-0.1378 0.3255,-0.2079 0.5296,-0.2091zm2.5693 -1.7204c0.0112,0.0439 0.0187,0.0827 0.0238,0.1177 0.0037,0.0351 0.0062,0.0751 0.0062,0.1228l0 4.9205c0,0.0437 -0.0025,0.0839 -0.0062,0.1202 -0.0051,0.0363 -0.0126,0.0763 -0.0238,0.1202l0.8263 0c-0.0113,-0.0476 -0.0188,-0.0876 -0.0238,-0.1227 -0.0037,-0.0351 -0.0062,-0.074 -0.0062,-0.1177l0 -4.9205c0,-0.0477 0.0025,-0.0877 0.0062,-0.1228 0.005,-0.035 0.0125,-0.0738 0.0238,-0.1177l-0.8263 0zm3.3805 1.3973c-0.2729,0.0013 -0.5208,0.0475 -0.7412,0.1403 -0.2203,0.0939 -0.4107,0.2265 -0.5684,0.3994 -0.159,0.174 -0.2805,0.3805 -0.3644,0.6235 -0.0851,0.2415 -0.1277,0.5133 -0.1289,0.8126 0.0012,0.4344 0.0751,0.8087 0.2203,1.1206 0.1453,0.3129 0.3531,0.5534 0.6236,0.7211 0.2692,0.1677 0.5922,0.2516 0.9665,0.2541 0.3681,-0.0025 0.6849,-0.085 0.9529,-0.2504 0.2679,-0.1652 0.4745,-0.3981 0.621,-0.701 0.1465,-0.303 0.2203,-0.6611 0.2216,-1.0769 -0.0013,-0.4231 -0.0751,-0.7863 -0.2204,-1.0905 -0.1452,-0.3043 -0.3518,-0.5396 -0.621,-0.7036 -0.2692,-0.1641 -0.5897,-0.2479 -0.9616,-0.2492zm0 0.3231c0.2066,0.0012 0.3844,0.0713 0.5334,0.2103 0.149,0.1389 0.2629,0.3355 0.3443,0.591 0.0801,0.2553 0.1202,0.5596 0.1215,0.9115 -0.0013,0.3518 -0.0426,0.6561 -0.124,0.9114 -0.0814,0.2555 -0.1966,0.4521 -0.3456,0.5909 -0.1489,0.139 -0.3255,0.2091 -0.5296,0.2104 -0.2066,-0.0013 -0.3843,-0.0714 -0.5333,-0.2104 -0.149,-0.1388 -0.263,-0.338 -0.3431,-0.5958 -0.0814,-0.2568 -0.1215,-0.5648 -0.1227,-0.9216 0.0012,-0.3468 0.0426,-0.6473 0.1239,-0.9014 0.0814,-0.253 0.1966,-0.4484 0.3456,-0.5872 0.149,-0.1378 0.3255,-0.2079 0.5296,-0.2091z"/>
   <path id="_153199464" class="fil4" d="M121.401 29.1267c0.2555,-0.0788 0.4996,-0.1377 0.7312,-0.1753 0.2304,-0.0388 0.4483,-0.0576 0.6511,-0.0576 0.2291,0 0.4269,0.0188 0.5947,0.0551 0.1665,0.0363 0.2955,0.0877 0.3869,0.1554 0.0902,0.0676 0.1365,0.1476 0.1377,0.2403 -0.0012,0.0977 -0.0425,0.1829 -0.1264,0.2555 -0.0839,0.0713 -0.2016,0.1264 -0.3556,0.1664 -0.1528,0.0388 -0.3356,0.0588 -0.5472,0.0588 -0.1214,0 -0.2378,-0.0037 -0.3505,-0.0111 -0.1115,-0.0076 -0.2266,-0.0188 -0.3431,-0.0363 -0.1164,-0.0176 -0.2429,-0.0402 -0.3769,-0.0701 -0.1339,-0.0289 -0.2829,-0.0653 -0.4469,-0.1077l0 0.1427c0.2053,0.0613 0.3944,0.1138 0.5659,0.1578 0.1715,0.0425 0.3318,0.0776 0.482,0.1038 0.1503,0.0264 0.2955,0.0463 0.437,0.0589 0.1415,0.0112 0.2855,0.0176 0.4307,0.0176 0.3368,0 0.6248,-0.0326 0.8627,-0.0965 0.2379,-0.0638 0.4207,-0.1564 0.5459,-0.2779 0.1264,-0.1202 0.1903,-0.2667 0.1915,-0.4371 -0.0012,-0.1664 -0.0638,-0.3091 -0.1878,-0.4306 -0.1239,-0.1215 -0.3005,-0.2141 -0.5271,-0.2805 -0.2279,-0.0663 -0.4983,-0.0988 -0.8101,-0.1001 -0.0964,0 -0.1953,0.0038 -0.298,0.0124 -0.1014,0.0076 -0.2116,0.0214 -0.3305,0.0402 -0.1177,0.0188 -0.2517,0.0437 -0.3994,0.0739 -0.1478,0.0313 -0.3155,0.0688 -0.5046,0.1138l0.7062 -0.4432c0.0463,-0.0275 0.0876,-0.0489 0.1252,-0.065 0.0363,-0.0151 0.0763,-0.0276 0.1177,-0.0351 0.0425,-0.0089 0.0939,-0.015 0.1552,-0.02 0.1365,-0.0125 0.2504,-0.0252 0.3431,-0.0364 0.0939,-0.0125 0.174,-0.025 0.2404,-0.0388 0.0663,-0.0137 0.1277,-0.03 0.1853,-0.0501 0.0563,-0.0188 0.1152,-0.0426 0.1778,-0.07 0.1815,-0.0814 0.3355,-0.1941 0.4645,-0.3368 0.1289,-0.144 0.2266,-0.3131 0.2955,-0.5085 0.0688,-0.194 0.1039,-0.4081 0.1039,-0.6422 0,-0.3731 -0.0764,-0.69 -0.2279,-0.9529 -0.1515,-0.2628 -0.3769,-0.4657 -0.6736,-0.6097 0.1415,-0.0838 0.2542,-0.1628 0.3368,-0.2378 0.0826,-0.0739 0.144,-0.1541 0.1841,-0.2379 0.04,-0.0852 0.0663,-0.1842 0.0801,-0.298l-0.7287 0c-0.005,0.1064 -0.025,0.204 -0.0588,0.2941 -0.0339,0.0902 -0.0789,0.1679 -0.1353,0.2304 -0.0551,0.0627 -0.1177,0.1052 -0.189,0.1291 -0.0789,-0.0051 -0.1403,-0.0088 -0.1866,-0.01 -0.0463,-0.0026 -0.0839,-0.0038 -0.1152,-0.0051 -0.03,0 -0.0626,0 -0.0964,0 -0.3593,0.0013 -0.6661,0.0714 -0.9215,0.209 -0.2554,0.139 -0.4507,0.3381 -0.5859,0.5974 -0.1353,0.2604 -0.2041,0.5721 -0.2054,0.9365 -0.0012,0.2366 0.0263,0.4419 0.0814,0.6159 0.0551,0.1754 0.144,0.3294 0.2679,0.4633 0.124,0.134 0.288,0.2566 0.4921,0.3707l-0.8414 0.616 0.1953 0.5633zm1.5701 -3.9739c0.1966,0.0012 0.3631,0.0513 0.5021,0.1514 0.139,0.1014 0.2441,0.2454 0.318,0.4346 0.0739,0.1889 0.1114,0.4168 0.1114,0.6835 0,0.2793 -0.0375,0.5158 -0.1114,0.7111 -0.0739,0.1954 -0.1803,0.3457 -0.3205,0.4483 -0.139,0.1026 -0.308,0.154 -0.5071,0.1552 -0.2003,-0.0012 -0.3706,-0.0513 -0.5083,-0.154 -0.139,-0.1013 -0.2442,-0.2504 -0.3156,-0.4457 -0.0713,-0.1952 -0.1076,-0.4344 -0.1076,-0.7149 0,-0.2717 0.0375,-0.5008 0.1101,-0.6898 0.0727,-0.1891 0.1791,-0.3331 0.3181,-0.4308 0.1402,-0.0988 0.3105,-0.1489 0.5108,-0.1489zm3.373 3.6059l-0.4207 0.954c-0.0113,0.0301 -0.0263,0.0627 -0.0451,0.0977 -0.0188,0.0351 -0.0413,0.0751 -0.0676,0.1201l0.4733 0c0.0075,-0.04 0.0175,-0.0763 0.0288,-0.1089 0.0113,-0.0326 0.0238,-0.0689 0.0388,-0.1089l1.9232 -4.6501c0.015,-0.0375 0.03,-0.0726 0.0475,-0.1064 0.0163,-0.0339 0.0351,-0.0714 0.0576,-0.1114l-0.4582 0c-0.0075,0.04 -0.0151,0.0751 -0.0251,0.1064 -0.01,0.03 -0.0238,0.0675 -0.0425,0.1114l-1.0818 2.6368 -0.9165 -2.6368c-0.0113,-0.0301 -0.0213,-0.0627 -0.0288,-0.0977 -0.0088,-0.0351 -0.0163,-0.0751 -0.0238,-0.1201l-0.894 0c0.0226,0.0487 0.0414,0.0901 0.0576,0.1252 0.0151,0.0363 0.0288,0.0664 0.0401,0.0926l1.3372 3.6961z"/>
  </g>
 </g>
</svg>
