<?xml version="1.0" encoding="UTF-8"?>
<!DOCTYPE svg PUBLIC "-//W3C//DTD SVG 1.1//EN" "http://www.w3.org/Graphics/SVG/1.1/DTD/svg11.dtd">
<!-- Creator: CorelDRAW -->
<svg xmlns="http://www.w3.org/2000/svg" xml:space="preserve" width="30mm" height="13mm" style="shape-rendering:geometricPrecision; text-rendering:geometricPrecision; image-rendering:optimizeQuality; fill-rule:evenodd; clip-rule:evenodd"
viewBox="0 0 30 13"
 xmlns:xlink="http://www.w3.org/1999/xlink">
 <defs>
  <style type="text/css">
   <![CDATA[
    .fil0 {fill:#1F1A17}
    .fil1 {fill:#781E19}
    .fil4 {fill:#969594}
    .fil3 {fill:#781E19;fill-rule:nonzero}
    .fil2 {fill:#969594;fill-rule:nonzero}
   ]]>
  </style>
 </defs>
 <g id="Layer_x0020_1">
  <metadata id="CorelCorpID_0Corel-Layer"/>
  <g id="_153189336">
   <path id="_153193728" class="fil0" d="M10.4366 8.328l0 0.6027c0,0.0222 0.0039,0.0479 0.0115,0.0763l-0.2856 0c0.0067,-0.0241 0.0102,-0.0494 0.0102,-0.0763l0 -1.426c0,-0.0284 -0.0035,-0.0541 -0.0102,-0.0774l0.5056 0c0.1232,0 0.2279,0.0249 0.3136,0.0743 0.1312,0.077 0.1967,0.1979 0.1967,0.3622 0,0.1821 -0.0797,0.3132 -0.2393,0.3935 -0.0937,0.0469 -0.2051,0.0707 -0.3346,0.0707l-0.1679 0zm0 -0.1217l0.141 0c0.0775,0 0.1395,-0.0138 0.1865,-0.0415 0.0446,-0.0272 0.0802,-0.0671 0.1063,-0.1204 0.0264,-0.0534 0.0394,-0.1123 0.0394,-0.1775 0,-0.0999 -0.0276,-0.1789 -0.0825,-0.2366 -0.0553,-0.0572 -0.1312,-0.086 -0.2275,-0.086l-0.1632 0 0 0.662zm1.4237 -0.4618c0.1829,0 0.325,0.0616 0.427,0.1853 0.0956,0.1157 0.1434,0.2682 0.1434,0.4582 0,0.2022 -0.055,0.3614 -0.1644,0.478 -0.1019,0.1086 -0.2366,0.1631 -0.4041,0.1631 -0.1797,0 -0.3187,-0.0592 -0.4175,-0.1782 -0.1019,-0.122 -0.1529,-0.2824 -0.1529,-0.4815 0,-0.1821 0.0502,-0.3314 0.1505,-0.448 0.0996,-0.1157 0.239,-0.1745 0.418,-0.1769zm0.0011 0.1031c-0.0434,0 -0.0849,0.0115 -0.1252,0.0348 -0.0399,0.0229 -0.0719,0.0545 -0.096,0.0936 -0.0624,0.1011 -0.0936,0.2366 -0.0936,0.4061 0,0.1754 0.0316,0.314 0.0948,0.4167 0.0241,0.0383 0.0557,0.0695 0.0956,0.0924 0.0395,0.0234 0.081,0.0348 0.1244,0.0348 0.0431,0 0.0846,-0.0114 0.1241,-0.0348 0.0399,-0.0229 0.0715,-0.0541 0.0956,-0.0924 0.0632,-0.1027 0.0948,-0.2401 0.0948,-0.412 0,-0.1742 -0.0316,-0.3121 -0.0948,-0.4132 -0.0518,-0.0825 -0.1249,-0.1244 -0.2197,-0.126zm1.0678 -0.5443c-0.006,0.0225 -0.0091,0.0478 -0.0091,0.0762l0 1.5512c0,0.0261 0.0031,0.0514 0.0091,0.0763l-0.2599 0c0.0059,-0.0241 0.0091,-0.0494 0.0091,-0.0763l0 -1.5512c0,-0.0277 -0.0032,-0.0529 -0.0091,-0.0762l0.2599 0zm0.4329 0.1367c0.047,0 0.0837,0.0098 0.1106,0.0296 0.0265,0.0193 0.0399,0.0462 0.0399,0.0801 0,0.0356 -0.0134,0.0637 -0.0399,0.0838 -0.0269,0.0206 -0.0628,0.0308 -0.1082,0.0308 -0.1027,0 -0.1541,-0.0375 -0.1541,-0.1122 0,-0.0339 0.0138,-0.0612 0.0411,-0.0814 0.0273,-0.0205 0.0644,-0.0307 0.1106,-0.0307zm-0.1343 0.3333l0.2599 0c-0.0059,0.0242 -0.009,0.0494 -0.009,0.0763l0 1.0811c0,0.0261 0.0031,0.0514 0.009,0.0763l-0.2599 0c0.0059,-0.0233 0.0091,-0.0486 0.0091,-0.0763l0 -1.0811c0,-0.0285 -0.0032,-0.0538 -0.0091,-0.0763zm0.6214 0.1146l-0.1829 0 0 -0.1146 0.1829 0 0 -0.2385 0.2465 -0.0265c-0.0032,0.0454 -0.0048,0.0755 -0.0048,0.0904l0 0.1746 0.1991 0 0 0.1146 -0.1991 0 0 0.8923c0,0.0731 0.0304,0.1099 0.0916,0.1099 0.0293,0 0.0664,-0.0123 0.1111,-0.0371l0 0.1275c-0.0672,0.0324 -0.1367,0.0486 -0.2082,0.0486 -0.081,0 -0.1406,-0.0198 -0.179,-0.0589 -0.0383,-0.0395 -0.0572,-0.1007 -0.0572,-0.1833l0 -0.899zm1.6089 1.0369c-0.0798,0.0395 -0.1497,0.0668 -0.211,0.0818 -0.0608,0.015 -0.1319,0.0225 -0.2129,0.0225 -0.2105,0 -0.3701,-0.0616 -0.4791,-0.1853 -0.0972,-0.1086 -0.1458,-0.2579 -0.1458,-0.4479 0,-0.2097 0.0557,-0.3729 0.1667,-0.4894 0.1027,-0.1079 0.2386,-0.162 0.4085,-0.162 0.1643,0 0.2927,0.0518 0.3843,0.1557 0.0916,0.1039 0.141,0.2524 0.1481,0.4459l-0.8552 0c0,0.1351 0.015,0.2429 0.0451,0.3243 0.0588,0.1612 0.1785,0.2417 0.3598,0.2417 0.1245,0 0.2429,-0.0477 0.3555,-0.1437l0.036 0.1564zm-0.7893 -0.6873l0.5902 0c-0.0063,-0.0703 -0.0162,-0.1272 -0.03,-0.1714 -0.021,-0.0656 -0.0565,-0.1182 -0.1067,-0.1584 -0.0414,-0.0332 -0.0916,-0.0498 -0.1505,-0.0498 -0.0833,0 -0.1517,0.0332 -0.2046,0.0995 -0.0533,0.0664 -0.0861,0.1596 -0.0984,0.2801zm1.9265 0.7035c-0.0908,0.0387 -0.1564,0.0628 -0.1955,0.0731 -0.0395,0.0099 -0.0909,0.015 -0.1541,0.015 -0.1742,0 -0.3093,-0.0541 -0.4049,-0.162 -0.1019,-0.1149 -0.1528,-0.2697 -0.1528,-0.4641 0,-0.222 0.0644,-0.393 0.1931,-0.5127 0.1059,-0.0972 0.2441,-0.1458 0.4156,-0.1458 0.094,0 0.1935,0.0178 0.2986,0.053l0 0.1805c-0.0585,-0.0463 -0.1078,-0.0775 -0.1477,-0.094 -0.0395,-0.0166 -0.0849,-0.0249 -0.1359,-0.0249 -0.1126,0 -0.2003,0.0462 -0.2627,0.139 -0.0672,0.0979 -0.1007,0.2275 -0.1007,0.3887 0,0.1406 0.0253,0.2584 0.0762,0.3532 0.0589,0.1086 0.1497,0.1631 0.2734,0.1631 0.0533,0 0.1023,-0.0099 0.1469,-0.0297 0.0446,-0.0197 0.0948,-0.0537 0.1505,-0.1027l0 0.1703zm0.1924 0.066c0.0059,-0.0241 0.0091,-0.0494 0.0091,-0.0763l0 -1.5512c0,-0.0284 -0.0032,-0.0537 -0.0091,-0.0762l0.2599 0c-0.0059,0.0225 -0.0091,0.0478 -0.0091,0.0762l0 0.5535c0.0518,-0.0673 0.1063,-0.1154 0.1636,-0.1447 0.0576,-0.0292 0.1268,-0.0438 0.2077,-0.0438 0.1249,0 0.2216,0.0312 0.29,0.0932 0.0683,0.062 0.1023,0.1497 0.1023,0.2631l0 0.8299c0,0.0261 0.0032,0.0514 0.0091,0.0763l-0.2599 0c0.0059,-0.0217 0.009,-0.047 0.009,-0.0763l0 -0.7501c0,-0.0909 -0.0189,-0.1576 -0.0572,-0.1999 -0.0383,-0.0423 -0.0976,-0.0635 -0.179,-0.0635 -0.0948,0 -0.1655,0.026 -0.2125,0.0785 -0.0486,0.0553 -0.0731,0.1245 -0.0731,0.207l0 0.728c0,0.0269 0.0032,0.0522 0.0091,0.0763l-0.2599 0zm1.3201 -1.2337l0.2465 0 0 0.1723c0.0372,-0.0577 0.0743,-0.1 0.1122,-0.1272 0.0711,-0.0494 0.1608,-0.0739 0.2698,-0.0739 0.1403,0 0.2469,0.0427 0.3192,0.1284 0.0462,0.0549 0.0695,0.1312 0.0695,0.2291l0 0.8287c0,0.0253 0.0032,0.051 0.0091,0.0763l-0.2599 0c0.0059,-0.0194 0.0091,-0.0446 0.0091,-0.0763l0 -0.7928c0,-0.0703 -0.0206,-0.1244 -0.0613,-0.1631 -0.041,-0.0383 -0.0995,-0.0576 -0.175,-0.0576 -0.094,0 -0.1651,0.026 -0.2129,0.0785 -0.0501,0.0553 -0.0754,0.1268 -0.0754,0.2137l0 0.7213c0,0.0269 0.0031,0.0522 0.0091,0.0763l-0.26 0c0.006,-0.0225 0.0091,-0.0478 0.0091,-0.0763l0 -1.0823c0,-0.0261 -0.0031,-0.0509 -0.0091,-0.0751zm1.4608 -0.3333c0.047,0 0.0837,0.0098 0.1106,0.0296 0.0265,0.0193 0.0399,0.0462 0.0399,0.0801 0,0.0356 -0.0134,0.0637 -0.0399,0.0838 -0.0269,0.0206 -0.0628,0.0308 -0.1082,0.0308 -0.1027,0 -0.1541,-0.0375 -0.1541,-0.1122 0,-0.0339 0.0138,-0.0612 0.0411,-0.0814 0.0273,-0.0205 0.0644,-0.0307 0.1106,-0.0307zm-0.1343 0.3333l0.2599 0c-0.0059,0.0242 -0.009,0.0494 -0.009,0.0763l0 1.0811c0,0.0261 0.0031,0.0514 0.009,0.0763l-0.2599 0c0.0059,-0.0233 0.0091,-0.0486 0.0091,-0.0763l0 -1.0811c0,-0.0285 -0.0032,-0.0538 -0.0091,-0.0763zm0.8252 0.5985l0 0.5589c0,0.0261 0.0031,0.0514 0.0091,0.0763l-0.2599 0c0.0059,-0.0233 0.009,-0.0486 0.009,-0.0763l0 -1.5512c0,-0.0277 -0.0031,-0.0529 -0.009,-0.0762l0.2599 0c-0.006,0.0233 -0.0091,0.0485 -0.0091,0.0762l0 0.8971 0.4037 -0.442c0.015,-0.017 0.0292,-0.0371 0.043,-0.0613l0.1956 0c-0.0154,0.0115 -0.0387,0.0336 -0.0695,0.066l-0.3761 0.3923 0.5661 0.713c0.0197,0.0253 0.0399,0.0462 0.06,0.0624l-0.3136 0c-0.0162,-0.0249 -0.032,-0.0482 -0.0474,-0.0707l-0.4618 -0.5645zm1.573 0.4696c-0.0498,0.0589 -0.0949,0.1 -0.1356,0.1241 -0.0726,0.0423 -0.1552,0.0636 -0.2476,0.0636 -0.0952,0 -0.1715,-0.0276 -0.2291,-0.0833 -0.0711,-0.0672 -0.1067,-0.1568 -0.1067,-0.2698 0,-0.1339 0.0506,-0.2343 0.1517,-0.3007 0.0447,-0.0296 0.0869,-0.0517 0.1268,-0.0667 0.0395,-0.015 0.1296,-0.0439 0.2702,-0.0862 0.0585,-0.0177 0.1003,-0.0394 0.1248,-0.0655 0.0249,-0.0256 0.0372,-0.0609 0.0372,-0.1059 0,-0.0525 -0.021,-0.0948 -0.0624,-0.1275 -0.0419,-0.0328 -0.0961,-0.0494 -0.1632,-0.0494 -0.0581,0 -0.1094,0.009 -0.1545,0.0276 -0.0454,0.0186 -0.1007,0.0529 -0.1663,0.1032l-0.0391 -0.1577c0.0838,-0.0391 0.1565,-0.0659 0.2173,-0.0806 0.0612,-0.0146 0.1312,-0.0221 0.2105,-0.0221 0.1276,0 0.226,0.0249 0.2951,0.0747 0.0695,0.0498 0.1043,0.1201 0.1043,0.2109l0 0.7328c0,0.071 0.0241,0.1066 0.0727,0.1066 0.0194,0 0.0462,-0.0126 0.081,-0.0383l0 0.1363c-0.064,0.0411 -0.1248,0.0616 -0.1825,0.0616 -0.0605,0 -0.1055,-0.0138 -0.1359,-0.0419 -0.0304,-0.0276 -0.0534,-0.0762 -0.0687,-0.1458zm-0.0083 -0.5703c-0.0309,0.0169 -0.0534,0.0284 -0.0676,0.0348 -0.0142,0.0059 -0.0754,0.0296 -0.1837,0.0702 -0.0841,0.032 -0.1422,0.0711 -0.1746,0.1181 -0.0332,0.0483 -0.0497,0.1004 -0.0497,0.1577 0,0.0655 0.0181,0.1181 0.0548,0.158 0.0368,0.0399 0.0854,0.0596 0.1466,0.0596 0.0948,0 0.1691,-0.0391 0.2232,-0.1169 0.034,-0.0494 0.051,-0.1027 0.051,-0.16l0 -0.3215zm1.0404 0.0833l-0.1331 0.1063 -0.0727 -0.0996 0.2058 -0.1607 0 -0.6969c0,-0.0284 -0.0035,-0.0537 -0.0102,-0.0762l0.2844 0c-0.0068,0.0233 -0.0103,0.0486 -0.0103,0.0762l0 0.5235 0.2686 -0.2141 0.0739 0.0983 -0.3425 0.2683 0 0.7003 0.4491 0c0.034,-0.0008 0.0605,-0.0043 0.0798,-0.0103l0 0.1375 -0.803 0c0.0067,-0.0225 0.0102,-0.047 0.0102,-0.0739l0 -0.5787zm1.4734 -0.6099c0.1829,0 0.3251,0.0616 0.427,0.1853 0.0956,0.1157 0.1434,0.2682 0.1434,0.4582 0,0.2022 -0.0549,0.3614 -0.1643,0.478 -0.1019,0.1086 -0.2366,0.1631 -0.4041,0.1631 -0.1797,0 -0.3188,-0.0592 -0.4175,-0.1782 -0.1019,-0.122 -0.1529,-0.2824 -0.1529,-0.4815 0,-0.1821 0.0502,-0.3314 0.1505,-0.448 0.0995,-0.1157 0.239,-0.1745 0.4179,-0.1769zm0.0012 0.1031c-0.0434,0 -0.0849,0.0115 -0.1252,0.0348 -0.0399,0.0229 -0.0719,0.0545 -0.096,0.0936 -0.0624,0.1011 -0.0936,0.2366 -0.0936,0.4061 0,0.1754 0.0316,0.314 0.0948,0.4167 0.0241,0.0383 0.0557,0.0695 0.0956,0.0924 0.0395,0.0234 0.081,0.0348 0.1244,0.0348 0.0431,0 0.0845,-0.0114 0.124,-0.0348 0.04,-0.0229 0.0715,-0.0541 0.0957,-0.0924 0.0632,-0.1027 0.0947,-0.2401 0.0947,-0.412 0,-0.1742 -0.0315,-0.3121 -0.0947,-0.4132 -0.0518,-0.0825 -0.1249,-0.1244 -0.2197,-0.126zm-0.1272 -0.2165l0.1608 -0.3657 0.207 0 -0.2485 0.3657 -0.1193 0zm1.6915 1.1966c-0.0415,0.0576 -0.079,0.0995 -0.1122,0.1252 -0.0656,0.0509 -0.1481,0.0762 -0.2477,0.0762 -0.1434,0 -0.2536,-0.0581 -0.3306,-0.1746 -0.0786,-0.1197 -0.1181,-0.2753 -0.1181,-0.4665 0,-0.1975 0.0442,-0.3567 0.1331,-0.478 0.081,-0.1102 0.1967,-0.1655 0.3472,-0.1655 0.0731,0 0.1355,0.0126 0.1861,0.0376 0.051,0.0252 0.0975,0.0659 0.139,0.122l0 -0.5246c0,-0.0277 -0.0031,-0.0529 -0.009,-0.0762l0.2599 0c-0.0059,0.0241 -0.0091,0.0494 -0.0091,0.0762l0 1.5512c0,0.0261 0.0032,0.0514 0.0091,0.0763l-0.2477 0 0 -0.1793zm-0.267 -0.9524c-0.0656,0 -0.1221,0.0236 -0.1691,0.0707 -0.0786,0.0801 -0.1177,0.2271 -0.1177,0.4408 0,0.3255 0.0912,0.4882 0.2737,0.4882 0.0948,0 0.1667,-0.043 0.2157,-0.1291 0.049,-0.0858 0.0735,-0.2122 0.0735,-0.3788 0,-0.3239 -0.0921,-0.4879 -0.2761,-0.4918zm0.7043 1.1317l0 -0.1252 0.7371 -0.988 -0.634 0c-0.0308,0 -0.0624,0.0036 -0.0948,0.0103l0 -0.1308 1.0136 0 0 0.1241 -0.7348 0.9867 0.6447 0c0.0293,0 0.0593,-0.0031 0.0901,-0.0091l0 0.132 -1.0219 0zm1.4698 -0.6352l0 0.5589c0,0.0261 0.0032,0.0514 0.0091,0.0763l-0.2599 0c0.006,-0.0233 0.0091,-0.0486 0.0091,-0.0763l0 -1.5512c0,-0.0277 -0.0031,-0.0529 -0.0091,-0.0762l0.2599 0c-0.0059,0.0233 -0.0091,0.0485 -0.0091,0.0762l0 0.8971 0.4037 -0.442c0.0151,-0.017 0.0293,-0.0371 0.0431,-0.0613l0.1955 0c-0.0153,0.0115 -0.0387,0.0336 -0.0695,0.066l-0.376 0.3923 0.566 0.713c0.0198,0.0253 0.0399,0.0462 0.0601,0.0624l-0.3137 0c-0.0162,-0.0249 -0.032,-0.0482 -0.0474,-0.0707l-0.4618 -0.5645zm1.5256 0.4696c-0.0498,0.0589 -0.0948,0.1 -0.1355,0.1241 -0.0727,0.0423 -0.1552,0.0636 -0.2477,0.0636 -0.0952,0 -0.1714,-0.0276 -0.2291,-0.0833 -0.0711,-0.0672 -0.1066,-0.1568 -0.1066,-0.2698 0,-0.1339 0.0505,-0.2343 0.1516,-0.3007 0.0447,-0.0296 0.087,-0.0517 0.1269,-0.0667 0.0395,-0.015 0.1295,-0.0439 0.2702,-0.0862 0.0584,-0.0177 0.1003,-0.0394 0.1248,-0.0655 0.0249,-0.0256 0.0371,-0.0609 0.0371,-0.1059 0,-0.0525 -0.0209,-0.0948 -0.0624,-0.1275 -0.0419,-0.0328 -0.096,-0.0494 -0.1631,-0.0494 -0.0581,0 -0.1095,0.009 -0.1545,0.0276 -0.0454,0.0186 -0.1007,0.0529 -0.1663,0.1032l-0.0391 -0.1577c0.0838,-0.0391 0.1564,-0.0659 0.2172,-0.0806 0.0613,-0.0146 0.1312,-0.0221 0.2106,-0.0221 0.1276,0 0.2259,0.0249 0.2951,0.0747 0.0695,0.0498 0.1043,0.1201 0.1043,0.2109l0 0.7328c0,0.071 0.024,0.1066 0.0727,0.1066 0.0193,0 0.0462,-0.0126 0.0809,-0.0383l0 0.1363c-0.064,0.0411 -0.1248,0.0616 -0.1825,0.0616 -0.0604,0 -0.1055,-0.0138 -0.1359,-0.0419 -0.0304,-0.0276 -0.0533,-0.0762 -0.0687,-0.1458zm-0.0083 -0.5703c-0.0308,0.0169 -0.0533,0.0284 -0.0675,0.0348 -0.0143,0.0059 -0.0755,0.0296 -0.1837,0.0702 -0.0842,0.032 -0.1422,0.0711 -0.1746,0.1181 -0.0332,0.0483 -0.0498,0.1004 -0.0498,0.1577 0,0.0655 0.0182,0.1181 0.0549,0.158 0.0368,0.0399 0.0853,0.0596 0.1466,0.0596 0.0948,0 0.169,-0.0391 0.2232,-0.1169 0.0339,-0.0494 0.0509,-0.1027 0.0509,-0.16l0 -0.3215z"/>
   <polygon id="_153193848" class="fil1" points="0.2767,0 8.5524,0 8.5524,13 0.2767,13 "/>
   <path id="_153193944" class="fil2" d="M4.4708 6.0979c0.1056,0 0.2098,0.0066 0.312,0.0194 0.0982,0.0123 0.1946,0.0304 0.2889,0.0538l0.1638 -0.315 0.0104 -0.02 0.02 0.0104 0.4289 0.2226 0.0201 0.0104 -0.0104 0.02 -0.1326 0.2548c0.0556,0.0275 0.1101,0.0569 0.1633,0.0882 0.0548,0.0324 0.108,0.0665 0.1595,0.1024l0.2102 -0.2313 0.0151 -0.0166 0.0167 0.0151 0.3577 0.3248 0.0167 0.0151 -0.0152 0.0167 -0.2016 0.222c0.0368,0.0394 0.0726,0.0801 0.1071,0.1221 0.035,0.0426 0.0684,0.0861 0.1002,0.1304l0.2895 -0.1432 0.0202 -0.01 0.01 0.0202 0.2144 0.4332 0.01 0.0202 -0.0202 0.01 -0.2622 0.1296c0.0217,0.0497 0.0417,0.0998 0.0599,0.1503 0.0183,0.0507 0.0351,0.1026 0.0503,0.1557l0.3657 -0.0377 0.0223 -0.0023 0.0023 0.0225 0.0498 0.4809 0.0023 0.0223 -0.0224 0.0023 -0.3287 0.0338c0.0015,0.0236 0.0028,0.0479 0.0037,0.0728 0.0012,0.0309 0.0018,0.0621 0.0018,0.0937 0,0.0302 -0.0005,0.0599 -0.0016,0.0892 -0.0009,0.0239 -0.0021,0.0473 -0.0035,0.07l0.3457 0.0937 0.0219 0.0059 -0.0059 0.0217 -0.1261 0.4667 -0.006 0.0219 -0.0217 -0.0059 -0.2979 -0.0808c-0.0168,0.0588 -0.0357,0.117 -0.0567,0.1743 -0.0212,0.0577 -0.0445,0.1145 -0.0697,0.1702l0.2695 0.1358 0.0201 0.0101 -0.0101 0.0201 -0.2172 0.4319 -0.0101 0.0202 -0.0201 -0.0102 -0.3005 -0.1514c-0.0312,0.0421 -0.0636,0.0831 -0.0973,0.1231 -0.033,0.0393 -0.0676,0.078 -0.1038,0.116l0.1987 0.2442 0.0142 0.0175 -0.0175 0.0142 -0.3748 0.3053 -0.0175 0.0142 -0.0142 -0.0175 -0.1916 -0.2356c-0.0449,0.0306 -0.0909,0.0599 -0.1379,0.0878 -0.047,0.0278 -0.0952,0.0542 -0.1444,0.0791l0.088 0.3007 0.0063 0.0216 -0.0217 0.0063 -0.4639 0.1357 -0.0215 0.0063 -0.0064 -0.0216 -0.0763 -0.2615c-0.0977,0.0255 -0.198,0.0452 -0.3003,0.0587 -0.1076,0.0142 -0.217,0.0216 -0.3277,0.0216 -0.104,0 -0.2066,-0.0064 -0.3073,-0.0189 -0.0957,-0.0118 -0.1898,-0.0292 -0.282,-0.0516l-0.0933 0.2678 -0.0074 0.0212 -0.0212 -0.0074 -0.4565 -0.159 -0.0213 -0.0074 0.0074 -0.0213 0.0953 -0.2728c-0.0501,-0.0243 -0.0993,-0.0503 -0.1476,-0.0778 -0.0489,-0.0279 -0.0967,-0.0572 -0.143,-0.088l-0.23 0.2289 -0.016 0.0158 -0.0158 -0.0159 -0.3411 -0.3424 -0.0159 -0.0159 0.0159 -0.0159 0.194 -0.1928c-0.0407,-0.0416 -0.0796,-0.0841 -0.1166,-0.1277 -0.0379,-0.0445 -0.0744,-0.0906 -0.1095,-0.1381l-0.2352 0.127 -0.0198 0.0107 -0.0107 -0.0199 -0.2299 -0.425 -0.0107 -0.0198 0.0198 -0.0108 0.2192 -0.1181c-0.0229,-0.0507 -0.0443,-0.1026 -0.064,-0.1556 -0.02,-0.0536 -0.0381,-0.1077 -0.0542,-0.1621l-0.3216 0.0174 -0.0225 0.0012 -0.0012 -0.0226 -0.0266 -0.4825 -0.0012 -0.0226 0.0227 -0.0012 0.2549 -0.0137c-0.0019,-0.0258 -0.0034,-0.0522 -0.0045,-0.0793 -0.0015,-0.034 -0.0022,-0.0685 -0.0022,-0.1034 0,-0.0319 0.0007,-0.0634 0.0018,-0.0944 0.001,-0.0256 0.0023,-0.0504 0.0039,-0.0747l-0.2304 -0.0293 -0.0223 -0.0028 0.0028 -0.0224 0.0604 -0.4794 0.0029 -0.0224 0.0223 0.0029 0.2558 0.0326c0.0177,-0.0611 0.0376,-0.1214 0.0598,-0.1808 0.0221,-0.0592 0.0464,-0.1173 0.0726,-0.1739l-0.2324 -0.1228 -0.0199 -0.0105 0.0105 -0.02 0.2253 -0.4275 0.0105 -0.02 0.0199 0.0106 0.2577 0.1363c0.0332,-0.0442 0.0679,-0.0872 0.1037,-0.1289 0.0359,-0.0417 0.0732,-0.0823 0.1118,-0.1216l-0.1659 -0.2189 -0.0136 -0.018 0.0179 -0.0136 0.3848 -0.2923 0.018 -0.0136 0.0137 0.018 0.1527 0.2018c0.0465,-0.0307 0.0943,-0.0601 0.1432,-0.0881 0.0491,-0.0279 0.0991,-0.0541 0.15,-0.0787l-0.0816 -0.2642 -0.0067 -0.0214 0.0215 -0.0067 0.4616 -0.1432 0.0214 -0.0067 0.0067 0.0216 0.0749 0.2425c0.0912,-0.0219 0.1843,-0.0389 0.2789,-0.0505 0.1001,-0.0123 0.2021,-0.0186 0.3054,-0.0186zm0.3065 0.0643c-0.1004,-0.0127 -0.2027,-0.0192 -0.3065,-0.0192 -0.1016,0 -0.2017,0.0063 -0.3,0.0183 -0.1001,0.0123 -0.1982,0.0306 -0.2941,0.0546l-0.0207 0.0051 -0.0063 -0.0204 -0.0745 -0.2413 -0.4185 0.1299 0.0808 0.2612 0.0057 0.0186 -0.0177 0.0083c-0.056,0.0266 -0.1109,0.0552 -0.1645,0.0857 -0.0536,0.0306 -0.1064,0.0634 -0.158,0.0982l-0.0177 0.0119 -0.0129 -0.017 -0.1519 -0.2008 -0.3489 0.2651 0.164 0.2164 0.0118 0.0156 -0.0138 0.0139c-0.0427,0.0428 -0.0838,0.0872 -0.1233,0.133 -0.0395,0.046 -0.0773,0.0934 -0.1133,0.142l-0.0115 0.0155 -0.0171 -0.009 -0.2548 -0.1347 -0.2043 0.3877 0.2315 0.1222 0.0191 0.0101 -0.0092 0.0194c-0.0295,0.0623 -0.0563,0.1257 -0.0804,0.1901 -0.0238,0.0639 -0.0452,0.1292 -0.0638,0.1958l-0.0052 0.0188 -0.0193 -0.0025 -0.2527 -0.0323 -0.0549 0.4349 0.2295 0.0291 0.0213 0.0028 -0.0016 0.0212c-0.0024,0.0322 -0.0042,0.0636 -0.0054,0.0943 -0.0012,0.031 -0.0018,0.062 -0.0018,0.0928 0,0.0338 0.0007,0.0677 0.0021,0.1017 0.0014,0.0328 0.0036,0.0663 0.0064,0.1006l0.0019 0.0231 -0.0234 0.0013 -0.2555 0.0137 0.0241 0.4373 0.3169 -0.0171 0.0178 -0.001 0.005 0.0174c0.0173,0.0602 0.0367,0.1189 0.058,0.1761 0.0216,0.0579 0.0455,0.1152 0.0716,0.1717l0.0089 0.0192 -0.0187 0.0101 -0.2178 0.1174 0.2084 0.3854 0.2327 -0.1256 0.0174 -0.0094 0.0116 0.016c0.0374,0.0516 0.0772,0.1021 0.119,0.1512 0.0419,0.0492 0.0852,0.0963 0.1299,0.1413l0.0159 0.0159 -0.0159 0.0159 -0.1939 0.1928 0.3093 0.3103 0.2271 -0.226 0.0132 -0.013 0.0153 0.0103c0.0508,0.0343 0.1027,0.0665 0.1555,0.0966 0.053,0.0302 0.1073,0.0586 0.1628,0.0849l0.0183 0.0087 -0.0067 0.0191 -0.0945 0.2706 0.414 0.1442 0.0927 -0.266 0.0068 -0.0195 0.0199 0.0051c0.0966,0.0244 0.1956,0.043 0.2964,0.0555 0.0989,0.0122 0.1997,0.0185 0.3019,0.0185 0.1095,0 0.2169,-0.0071 0.3219,-0.021 0.1072,-0.0143 0.2127,-0.0355 0.3157,-0.0633l0.0212 -0.0057 0.0062 0.0212 0.0762 0.261 0.4208 -0.1231 -0.087 -0.2972 -0.0052 -0.018 0.0169 -0.0084c0.0537,-0.0267 0.1065,-0.0554 0.1582,-0.086 0.0519,-0.0307 0.1027,-0.0635 0.1523,-0.0979l0.0172 -0.0119 0.0132 0.0162 0.1905 0.2343 0.3399 -0.2768 -0.1971 -0.2423 -0.0126 -0.0154 0.014 -0.0145c0.0394,-0.0406 0.0779,-0.0834 0.1155,-0.1281 0.0371,-0.0441 0.0726,-0.0894 0.1066,-0.1361l0.0112 -0.0154 0.0172 0.0087 0.2974 0.1498 0.1969 -0.3916 -0.2688 -0.1354 -0.0195 -0.0098 0.0092 -0.0198c0.0282,-0.0608 0.054,-0.1231 0.0773,-0.1866 0.023,-0.0628 0.0436,-0.127 0.0616,-0.1924l0.006 -0.0217 0.0216 0.0059 0.2978 0.0807 0.1144 -0.4231 -0.3419 -0.0927 -0.0181 -0.0049 0.0013 -0.0185c0.0021,-0.0296 0.0037,-0.0587 0.0047,-0.0869 0.0011,-0.0293 0.0017,-0.0586 0.0017,-0.0876 0,-0.0306 -0.0006,-0.0613 -0.0018,-0.092 -0.0012,-0.0303 -0.003,-0.0613 -0.0053,-0.093l-0.0017 -0.0218 0.022 -0.0023 0.3281 -0.0337 -0.0452 -0.4361 -0.362 0.0373 -0.0189 0.0019 -0.0051 -0.0183c-0.016,-0.0573 -0.0342,-0.1143 -0.0546,-0.1708 -0.0206,-0.0572 -0.0431,-0.1129 -0.0672,-0.167l-0.0088 -0.0198 0.0194 -0.0096 0.2613 -0.1291 -0.1945 -0.3929 -0.2865 0.1418 -0.0172 0.0085 -0.0112 -0.0158c-0.0349,-0.0494 -0.0714,-0.0973 -0.1093,-0.1434 -0.038,-0.0463 -0.0779,-0.0913 -0.1194,-0.1349l-0.0145 -0.0152 0.0141 -0.0155 0.2005 -0.2207 -0.3243 -0.2944 -0.2084 0.2293 -0.0135 0.0148 -0.0163 -0.0115c-0.0562,-0.0399 -0.1138,-0.0772 -0.1727,-0.1119 -0.0588,-0.0347 -0.1192,-0.0671 -0.1808,-0.0967l-0.021 -0.0101 0.0108 -0.0206 0.1329 -0.2553 -0.3889 -0.2018 -0.1617 0.3109 -0.0083 0.0158 -0.0173 -0.0044c-0.098,-0.0251 -0.1983,-0.0442 -0.3006,-0.057zm1.2159 0.9129c-0.199,-0.199 -0.4365,-0.3595 -0.7,-0.4689 -0.2536,-0.1054 -0.5314,-0.1635 -0.8224,-0.1635 -0.291,0 -0.5689,0.0581 -0.8225,0.1635 -0.2635,0.1094 -0.5009,0.2699 -0.6999,0.4689 -0.199,0.199 -0.3594,0.4364 -0.4689,0.7 -0.1054,0.2536 -0.1636,0.5314 -0.1636,0.8224 0,0.291 0.0583,0.5688 0.1636,0.8224 0.1095,0.2635 0.2699,0.501 0.4689,0.6999 0.199,0.199 0.4365,0.3595 0.7,0.4689 0.2535,0.1054 0.5314,0.1636 0.8224,0.1636 0.291,0 0.5688,-0.0582 0.8224,-0.1636 0.2635,-0.1094 0.501,-0.2699 0.7,-0.4689 0.199,-0.1989 0.3594,-0.4364 0.4688,-0.7 0.1054,-0.2535 0.1636,-0.5313 0.1636,-0.8223 0,-0.291 -0.0582,-0.5689 -0.1636,-0.8225 -0.1094,-0.2635 -0.2698,-0.501 -0.4688,-0.6999zm-0.6827 -0.5106c0.2691,0.1119 0.5116,0.2756 0.7146,0.4787 0.2031,0.203 0.3668,0.4454 0.4786,0.7146 0.1076,0.259 0.167,0.5427 0.167,0.8397 0,0.2969 -0.0594,0.5806 -0.167,0.8396 -0.1118,0.2692 -0.2755,0.5116 -0.4786,0.7147 -0.203,0.203 -0.4455,0.3668 -0.7146,0.4785 -0.2591,0.1077 -0.5427,0.1671 -0.8397,0.1671 -0.297,0 -0.5807,-0.0594 -0.8397,-0.1671 -0.2692,-0.1117 -0.5116,-0.2755 -0.7146,-0.4785 -0.2031,-0.203 -0.3669,-0.4455 -0.4787,-0.7147 -0.1075,-0.259 -0.167,-0.5427 -0.167,-0.8396 0,-0.297 0.0595,-0.5807 0.167,-0.8397 0.1118,-0.2692 0.2756,-0.5116 0.4787,-0.7146 0.203,-0.2031 0.4454,-0.3668 0.7146,-0.4787 0.259,-0.1076 0.5427,-0.167 0.8397,-0.167 0.2969,0 0.5806,0.0594 0.8397,0.167z"/>
   <path id="_153194040" class="fil2" d="M4.1369 6.3357l0.7185 0 0.0614 0 -0.0015 0.0613 -0.1355 5.5013 -0.0004 0.0138 -0.0067 0.0126c-0.0281,0.0535 -0.0519,0.1004 -0.0729,0.1417 -0.0829,0.1634 -0.1276,0.2514 -0.203,0.2521 -0.0849,0.0008 -0.1359,-0.1144 -0.2465,-0.3643 -0.0042,-0.0095 -0.0085,-0.0193 -0.0129,-0.0293l-0.0048 -0.0109 -0.0003 -0.0115 -0.1554 -5.5052 -0.0017 -0.0616 0.0617 0z"/>
   <path id="_153194112" class="fil3" d="M4.794 6.4556l-0.5955 0 0.1533 5.4321c0.0027,0.0061 0.0054,0.0122 0.0081,0.0183 0.0886,0.2004 0.1295,0.2928 0.136,0.2927 0.0027,0 0.0358,-0.0652 0.0972,-0.1862 0.0199,-0.039 0.0422,-0.083 0.0672,-0.1307l0.1337 -5.4262z"/>
   <path id="_153194184" class="fil2" d="M3.1837 7.168l2.6418 0 0.0565 0 0 0.0564 0 2.467c0,0.1064 -0.0435,0.203 -0.1136,0.2731 -0.07,0.07 -0.1667,0.1135 -0.2731,0.1135l-0.6838 0c-0.004,0 -0.0077,0 -0.0116,0 -0.0613,-0.0006 -0.1741,-0.0015 -0.2562,0.1842l-0.0659 0.1487 -0.0404 -0.1575c-0.0456,-0.1772 -0.1914,-0.1759 -0.2449,-0.1754 -0.0031,0 -0.0059,0 -0.0089,0l-0.6598 0c-0.1091,0 -0.2082,-0.0446 -0.2801,-0.1164 -0.0718,-0.0718 -0.1164,-0.1709 -0.1164,-0.28l0 -2.4572 0 -0.0564 0.0564 0z"/>
   <polygon id="_153194256" class="fil2" points="5.3282,6.4556 3.6499,6.4556 3.59,6.4556 3.59,6.3956 3.59,5.7741 3.59,5.7141 3.6499,5.7141 5.3282,5.7141 5.3882,5.7141 5.3882,5.7741 5.3882,6.3956 5.3882,6.4556 "/>
   <polygon id="_153194328" class="fil3" points="3.7098,6.3357 5.2683,6.3357 5.2683,5.834 3.7098,5.834 "/>
   <path id="_153194400" class="fil4" d="M1.8358 8.4963l0 -0.7827c0,-0.1123 0.028,-0.1528 0.1298,-0.1528 0.2087,0 0.2876,0.1466 0.2876,0.474 0,0.3367 -0.0967,0.4615 -0.3436,0.4615l-0.0738 0zm0.1197 -1.0478l-0.7483 0 0 0.0779c0.168,0.0126 0.2214,0.078 0.2214,0.2776l0 1.3846c0,0.2121 -0.0458,0.2869 -0.2239,0.2931l0 0.0811 0.8576 0 0 -0.0811c-0.1934,-0.0093 -0.2265,-0.0842 -0.2265,-0.2931l0 -0.58 0.2265 0c0.4148,0 0.6337,-0.2339 0.6337,-0.5863 0,-0.2245 -0.0967,-0.4054 -0.2723,-0.4989 -0.1323,-0.0718 -0.285,-0.0749 -0.4682,-0.0749z"/>
   <path id="_153194472" class="fil4" d="M6.4098 9.5565l1.4038 0 0.0928 -0.7142 -0.0659 0c-0.1294,0.4565 -0.3003,0.5868 -0.6373,0.5868 -0.1758,0 -0.1904,-0.0465 -0.1904,-0.2545l0 -0.7422 0.4053 -0.3602 0 -0.1708 -0.4053 0.3602 0 -0.4565c0,-0.2173 0.0366,-0.2732 0.249,-0.2764l0 -0.0776 -0.8496 0 0 0.0776c0.1611,0.0093 0.2124,0.0777 0.2124,0.2764l0 0.7111 -0.271 0.2392 0 0.1676 0.271 -0.2391 0 0.4999c0,0.2112 -0.044,0.2857 -0.2148,0.292l0 0.0807z"/>
   <path id="_153194544" class="fil4" d="M5.1131 5.6104c0.2286,-0.6695 0.7476,-0.3066 1.1214,-0.5082l0.0701 -0.1518c-0.1272,0.0189 -0.2721,0.0174 -0.4201,0.0159 -0.131,-0.0013 -0.2645,-0.0026 -0.386,0.0102 -0.3088,0.0324 -0.5548,0.1601 -0.5321,0.6339l0.1467 0zm1.2297 -0.7429l0.0571 -0.1238c-0.1686,0.0241 -0.3712,0.0202 -0.5791,0.0163 -0.299,-0.0057 -0.6089,-0.0115 -0.8297,0.0657 -0.2581,0.0902 -0.3969,0.3022 -0.2519,0.7847l0.1523 0c-0.0257,-0.5289 0.2515,-0.6716 0.5994,-0.7082 0.1273,-0.0134 0.262,-0.0121 0.3942,-0.0108 0.1651,0.0016 0.3265,0.0033 0.4577,-0.0239zm0.095 -0.2059l0.0645 -0.1397c-0.3001,0.0366 -0.6429,0.0249 -0.9738,0.0137 -0.4893,-0.0167 -0.9524,-0.0325 -1.1933,0.1097 -0.2204,0.1301 -0.2531,0.4059 0.0591,0.9651l0.267 0c-0.1504,-0.5197 0.0113,-0.7525 0.3052,-0.8552 0.2342,-0.0818 0.5504,-0.0759 0.8555,-0.0701 0.2259,0.0042 0.4457,0.0084 0.6158,-0.0235zm0.1015 -0.2199l0.1308 -0.2834c-0.4127,0.2417 -1.123,0.0978 -1.8731,0.009 -0.8712,-0.1031 -1.7232,0.2472 -0.9101,1.4431l0.422 0c-0.3163,-0.5828 -0.265,-0.8799 -0.0117,-1.0295 0.2599,-0.1534 0.7334,-0.1373 1.2337,-0.1202 0.3458,0.0116 0.7046,0.024 1.0084,-0.019z"/>
   <path id="_153194640" class="fil3" d="M5.7691 7.2809l-2.5289 0 0 2.4007c0,0.0779 0.0319,0.1488 0.0833,0.2002 0.0515,0.0515 0.1223,0.0834 0.2003,0.0834l0.6598 0c0.0021,0 0.005,0 0.0081,-0.0001 0.0636,-0.0005 0.218,-0.0019 0.308,0.1454 0.1042,-0.1471 0.2282,-0.1461 0.3011,-0.1454 0.0039,0 0.0076,0.0001 0.0107,0.0001l0.6838 0c0.0752,0 0.1436,-0.0309 0.1933,-0.0805 0.0496,-0.0496 0.0805,-0.1181 0.0805,-0.1933l0 -2.4105z"/>
   <path id="_153194712" class="fil4" d="M3.4549 8.2767l0.1572 0 0.065 0.0958 0.1734 0 0.1788 0.2781 0.9104 0 0.1734 -0.2781 0.1896 0 0.0759 -0.1863 0.1192 0c-0.0761,0.4836 -0.2111,0.786 -0.4173,0.9228l-1.0837 0c-0.2538,-0.1147 -0.4182,-0.4141 -0.5419,-0.8323z"/>
   <path id="_153194784" class="fil4" d="M4.0483 9.1969l0.0288 -0.0597 0.208 -0.431 0.4164 -0.8631 -0.0389 -0.0181 0.0323 -0.0596 0.1441 0.0685 -0.0269 0.0556 -0.034 -0.0147 -0.4044 0.8314 -0.2097 0.431 -0.0419 0.086c0.0288,0.0385 0.0415,0.0808 0.0229,0.1237l-0.1794 0.3798 -0.2102 -0.1008 0.1731 -0.3728c0.0196,-0.0419 0.0762,-0.0518 0.1198,-0.0562z"/>
  </g>
 </g>
</svg>
