<?xml version="1.0" encoding="UTF-8"?>
<!DOCTYPE svg PUBLIC "-//W3C//DTD SVG 1.1//EN" "http://www.w3.org/Graphics/SVG/1.1/DTD/svg11.dtd">
<!-- Creator: CorelDRAW X5 -->
<svg xmlns="http://www.w3.org/2000/svg" xml:space="preserve" width="70mm" height="55mm" style="shape-rendering:geometricPrecision; text-rendering:geometricPrecision; image-rendering:optimizeQuality; fill-rule:evenodd; clip-rule:evenodd"
viewBox="0 0 7000 5500"
 xmlns:xlink="http://www.w3.org/1999/xlink">
 <defs>
  <style type="text/css">
   <![CDATA[
    .fil0 {fill:#B2B3B3}
   ]]>
  </style>
 </defs>
 <g id="Layer_x0020_1">
  <metadata id="CorelCorpID_0Corel-Layer"/>
  <g id="_397898912">
   <path class="fil0" d="M868 1988c0,270 72,491 164,675 52,104 94,168 159,256 80,107 164,181 259,266 209,187 521,314 792,368 161,32 188,20 280,34 35,5 82,13 82,-23 0,-560 31,-432 -116,-451 -134,-18 -230,-25 -369,-80 -78,-31 -136,-56 -201,-95 -56,-34 -128,-77 -175,-121 -110,-103 -191,-175 -270,-322 -212,-395 -161,-804 107,-1157 21,-28 42,-47 67,-77 35,-44 191,-161 246,-194 367,-220 821,-256 1221,-94 240,97 476,279 600,509 49,90 82,156 108,265 11,47 17,77 24,128 23,157 -114,124 478,124 0,-797 -609,-1409 -1361,-1560 -57,-11 -315,-44 -374,-41 -457,24 -853,153 -1196,455 -35,31 -68,67 -102,101 -23,22 -27,33 -47,55 -222,249 -375,617 -375,980z"/>
   <path class="fil0" d="M1884 2090c51,14 199,131 246,144 22,-16 182,-288 322,-288 132,0 365,276 514,408 192,170 425,253 659,96 96,-64 269,-245 291,-327 -17,-4 -157,-95 -188,-117 -23,-16 -36,-29 -66,-36 -343,513 -452,150 -755,-92 -55,-44 -39,-51 -153,-127 -523,-349 -868,306 -870,337z"/>
   <path class="fil0" d="M436 5129c139,-12 290,-90 381,-195l0 195c133,-3 312,-98 398,-220 106,-150 127,-334 127,-559l-135 0 -13 190c-17,118 -34,219 -108,307 -26,31 -81,77 -125,87l0 -584 -144 0c0,152 6,285 -62,421 -25,50 -38,65 -76,102 -38,38 -62,45 -108,70l1 -534c1,-69 9,-59 -111,-59 -14,0 -22,10 -25,27l0 142 0 610z"/>
   <path class="fil0" d="M2586 4740c0,53 24,135 42,170 74,144 226,241 407,245l0 -152c-89,0 -159,-21 -223,-82 -193,-186 -1,-443 180,-443l68 0c123,0 239,96 262,195l-381 0c0,100 -14,152 25,152l483 0c35,0 25,-29 25,-102 0,-254 -264,-434 -538,-386 -124,22 -250,116 -306,228 -21,41 -45,118 -45,175z"/>
   <path class="fil0" d="M1951 5155l0 -152c-119,0 -180,-26 -259,-88 -93,-72 -113,-160 -113,-268 0,-100 61,-173 116,-222 131,-117 371,-120 508,-4 77,65 121,141 121,252l144 0c0,-158 -52,-246 -159,-349 -152,-147 -389,-165 -583,-88 -29,12 -49,26 -76,43 -119,72 -233,250 -221,401 24,296 256,471 523,476z"/>
   <path class="fil0" d="M3848 4723c0,77 8,136 43,203 20,38 59,94 92,119 58,44 119,88 205,100 88,13 75,23 75,-118 0,-29 -15,-23 -41,-27 -28,-4 -28,-2 -56,-12 -105,-37 -174,-137 -174,-258 0,-123 117,-254 237,-254 91,0 153,-1 226,61 149,127 14,557 95,557 83,0 119,11 119,-25l0 -373c0,-167 -108,-293 -251,-342 -135,-47 -280,-35 -393,46 -104,74 -178,187 -178,322z"/>
   <path class="fil0" d="M3602 5087l135 0 0 -711c0,-20 -6,-25 -25,-25l-110 0 0 737z"/>
   <path class="fil0" d="M1731 4697c26,14 50,35 76,42 34,-23 33,-53 79,-75 41,-19 71,16 97,43 122,124 233,205 366,6 -16,-22 -54,-44 -85,-51 -149,282 -263,-370 -533,34z"/>
  </g>
 </g>
</svg>
